<svg width="30" height="28" viewBox="0 0 30 28" fill="none" xmlns="http://www.w3.org/2000/svg">
<path d="M0.73789 18.712L0.737891 18.7123C0.73897 19.0695 0.891722 19.4102 1.16019 19.6604C1.42842 19.9103 1.79045 20.0497 2.1667 20.0501H2.1668H28.002H28.002C28.3787 20.0498 28.7411 19.9102 29.0094 19.6598C29.278 19.4093 29.4305 19.0679 29.4309 18.7103V18.7102V8.75928C29.4309 8.61441 29.3691 8.477 29.2618 8.37681C29.1547 8.27685 29.0108 8.22178 28.8621 8.22178H1.30664C1.15794 8.22178 1.01406 8.27685 0.906952 8.37681C0.799613 8.477 0.737891 8.61441 0.737891 8.75928L0.73789 18.712ZM28.0018 18.9751L27.902 18.9752V18.9768H23.1163V16.9552H28.2934V18.7116C28.2927 18.7793 28.2636 18.8455 28.2097 18.8954C28.1556 18.9457 28.081 18.975 28.0018 18.9751ZM28.2934 9.29678V15.8802H1.87539V9.29678H28.2934ZM21.9788 16.9552V18.9751H8.19273V16.9552H21.9788ZM1.87539 18.7116V16.9552H7.05523V18.9751H2.16691C2.08779 18.975 2.01317 18.9457 1.959 18.8954C1.90516 18.8455 1.87601 18.7792 1.87539 18.7116Z" fill="black" stroke="black" stroke-width="0.2"/>
<path d="M23.3438 10.728H26.6114V11.603H23.3438V10.728Z" fill="black"/>
<path d="M7.1543 21.4116H8.0918V23.7706H7.1543V21.4116Z" fill="black"/>
<path d="M10.8398 21.4116H11.7773V23.7706H10.8398V21.4116Z" fill="black"/>
<path d="M18.3008 21.4116H19.2383V23.7706H18.3008V21.4116Z" fill="black"/>
<path d="M22.0762 21.4116H23.0137V23.7706H22.0762V21.4116Z" fill="black"/>
<path d="M14.5234 21.4116H15.4609V23.7706H14.5234V21.4116Z" fill="black"/>
</svg>
