<svg width="44" height="44" viewBox="0 0 44 44" fill="none" xmlns="http://www.w3.org/2000/svg">
<path d="M2.57143 35.5577H41.4286C41.6199 35.5577 41.8034 35.4817 41.9387 35.3464C42.074 35.2112 42.15 35.0277 42.15 34.8363C42.15 34.645 42.074 34.4615 41.9387 34.3262C41.8034 34.1909 41.6199 34.1149 41.4286 34.1149H2.57143C2.38009 34.1149 2.1966 34.1909 2.0613 34.3262C1.92601 34.4615 1.85 34.645 1.85 34.8363C1.85 35.0277 1.92601 35.2112 2.0613 35.3464C2.19659 35.4817 2.38009 35.5577 2.57143 35.5577Z" fill="black" stroke="black" stroke-width="0.3"/>
<path d="M11.7592 24.4424L11.8644 24.3372C11.9997 24.4725 12.0757 24.656 12.0757 24.8473V31.3672V31.3673H11.9257C11.9258 31.4443 11.9103 31.5205 11.8801 31.5914C11.85 31.6623 11.8059 31.7263 11.7503 31.7797C11.6948 31.833 11.6291 31.8746 11.5571 31.902C11.4851 31.9293 11.4084 31.9418 11.3314 31.9387L11.7592 24.4424ZM11.7592 24.4424L11.8644 24.3372C11.7291 24.2019 11.5456 24.1259 11.3543 24.1259H6.57143C6.38009 24.1259 6.1966 24.2019 6.0613 24.3372C5.92601 24.4725 5.85 24.656 5.85 24.8473V31.3673C5.85 31.5586 5.92601 31.7421 6.0613 31.8774C6.1966 32.0127 6.38009 32.0887 6.57143 32.0887H11.3286L11.7592 24.4424ZM10.6329 25.5687V30.6459H7.29286V25.5687H10.6329Z" fill="black" stroke="black" stroke-width="0.3"/>
<path d="M20.5518 15.6687L20.4457 15.7748L20.5518 15.6687C20.4165 15.5334 20.233 15.4574 20.0416 15.4574H15.2531C15.0617 15.4574 14.8782 15.5334 14.7429 15.6687C14.6076 15.804 14.5316 15.9875 14.5316 16.1789V31.3674C14.5316 31.5588 14.6076 31.7423 14.7429 31.8775C14.8782 32.0128 15.0617 32.0889 15.2531 32.0889H20.0416C20.233 32.0889 20.4165 32.0128 20.5518 31.8775C20.6871 31.7423 20.7631 31.5588 20.7631 31.3674V16.1789C20.7631 15.9875 20.6871 15.804 20.5518 15.6687ZM19.3202 16.9003V30.646H15.9745V16.9003H19.3202Z" fill="black" stroke="black" stroke-width="0.3"/>
<path d="M23.9601 32.0889H28.7487C28.94 32.0889 29.1235 32.0129 29.2588 31.8776C29.3941 31.7423 29.4701 31.5588 29.4701 31.3674V18.7274C29.4701 18.5361 29.3941 18.3526 29.2588 18.2173C29.1235 18.082 28.94 18.006 28.7487 18.006H23.9601C23.7688 18.006 23.5853 18.082 23.45 18.2173C23.3147 18.3526 23.2387 18.5361 23.2387 18.7274V31.3674C23.2387 31.5588 23.3147 31.7423 23.45 31.8776C23.5853 32.0129 23.7688 32.0889 23.9601 32.0889ZM28.0272 19.4489V30.646H24.6815V19.4489H28.0272Z" fill="black" stroke="black" stroke-width="0.3"/>
<path d="M32.6691 32.0887H37.4291C37.6204 32.0887 37.8039 32.0127 37.9392 31.8774C38.0745 31.7421 38.1505 31.5586 38.1505 31.3673V8.59584C38.1505 8.40451 38.0745 8.22101 37.9392 8.08572C37.8039 7.95042 37.6204 7.87441 37.4291 7.87441H32.6691C32.4777 7.87441 32.2943 7.95042 32.159 8.08572C32.0237 8.22101 31.9477 8.40451 31.9477 8.59584V31.3673C31.9477 31.5586 32.0237 31.7421 32.159 31.8774C32.2943 32.0127 32.4777 32.0887 32.6691 32.0887ZM36.7077 9.31727V30.6458H33.3678L33.3904 9.31727H36.7077Z" fill="black" stroke="black" stroke-width="0.3"/>
<path d="M10.476 13.3321C10.9557 13.6538 11.5199 13.8262 12.0974 13.8274C12.4816 13.8282 12.8621 13.7532 13.2173 13.6067C13.5724 13.4603 13.8952 13.2452 14.1671 12.9738C14.439 12.7025 14.6547 12.3802 14.8019 12.0253C14.9491 11.6705 15.0249 11.2901 15.0249 10.9059C15.0249 10.3284 14.8537 9.76381 14.533 9.28351C14.2122 8.80322 13.7563 8.42877 13.2228 8.20748C12.6894 7.98619 12.1023 7.92798 11.5357 8.04022C10.9692 8.15245 10.4486 8.4301 10.0398 8.83806C9.63102 9.24603 9.35231 9.76601 9.2389 10.3323C9.1255 10.8986 9.1825 11.4858 9.40269 12.0198C9.62288 12.5537 9.99639 13.0104 10.476 13.3321ZM11.2777 9.68516C11.5203 9.52184 11.8058 9.43411 12.0983 9.43309C12.2924 9.4324 12.4848 9.46997 12.6645 9.54365C12.8441 9.61732 13.0075 9.72566 13.1453 9.86248C13.2831 9.9993 13.3926 10.1619 13.4675 10.341C13.5424 10.5202 13.5814 10.7123 13.582 10.9065C13.5831 11.1989 13.4973 11.4851 13.3357 11.7288C13.1741 11.9725 12.9439 12.1628 12.6741 12.2757C12.4043 12.3885 12.1071 12.4189 11.8201 12.3628C11.5331 12.3068 11.2691 12.1669 11.0616 11.9608C10.8541 11.7548 10.7124 11.4918 10.6543 11.2052C10.5963 10.9186 10.6245 10.6212 10.7355 10.3506C10.8464 10.0801 11.0351 9.84848 11.2777 9.68516Z" fill="black" stroke="black" stroke-width="0.3"/>
<path d="M12.3598 19.6036L12.3598 19.6037L12.3654 19.6035C12.4606 19.6003 12.5543 19.5782 12.641 19.5386C12.7275 19.499 12.8054 19.4427 12.87 19.373C12.8702 19.3729 12.8703 19.3727 12.8704 19.3726L18.5841 13.2761L18.5843 13.2758C18.7153 13.1353 18.785 12.9486 18.7783 12.7566C18.7715 12.5647 18.6888 12.3833 18.5483 12.2524C18.4078 12.1215 18.2211 12.0517 18.0291 12.0585C17.8373 12.0652 17.656 12.1479 17.5251 12.2882C17.525 12.2883 17.5249 12.2884 17.5249 12.2884L11.8109 18.3853L11.8109 18.3852L11.8084 18.388C11.7448 18.4593 11.6961 18.5424 11.6649 18.6327C11.6337 18.723 11.6208 18.8185 11.6268 18.9138C11.6329 19.0091 11.6578 19.1022 11.7001 19.1878C11.742 19.2726 11.8001 19.3483 11.8712 19.4106C12.004 19.534 12.1785 19.6029 12.3598 19.6036Z" fill="black" stroke="black" stroke-width="0.3"/>
</svg>
