<svg width="30" height="30" viewBox="0 0 30 30" fill="none" xmlns="http://www.w3.org/2000/svg">
<path d="M26.7398 9.13037H3.26157C2.90157 9.13037 2.60938 9.42257 2.60938 9.78257V13.6956C2.60938 20.5278 8.16852 26.0869 15.0007 26.0869C21.8329 26.0869 27.392 20.5278 27.392 13.6956V9.78257C27.392 9.42257 27.0998 9.13037 26.7398 9.13037ZM26.0877 13.6956C26.0877 19.8091 21.1142 24.7825 15.0008 24.7825C8.8873 24.7825 3.91376 19.8091 3.91376 13.6956V10.4348H26.0877V13.6956Z" fill="black"/>
<path d="M15.0004 11.7393C11.7643 11.7393 9.13086 14.3727 9.13086 17.6088C9.13086 20.8449 11.7643 23.4784 15.0004 23.4784C18.2365 23.4784 20.87 20.8449 20.87 17.6088C20.87 14.3727 18.2365 11.7393 15.0004 11.7393ZM15.0004 22.1741C12.4831 22.1741 10.4352 20.1262 10.4352 17.6088C10.4352 15.0914 12.483 13.0436 15.0004 13.0436C17.5179 13.0436 19.5657 15.0914 19.5657 17.6088C19.5657 20.1262 17.5179 22.1741 15.0004 22.1741Z" fill="black"/>
<path d="M14.9991 14.3477C13.2005 14.3477 11.7383 15.8111 11.7383 17.6085C11.7383 19.4059 13.2005 20.8694 14.9991 20.8694C16.7978 20.8694 18.26 19.4059 18.26 17.6085C18.26 15.8111 16.7978 14.3477 14.9991 14.3477ZM14.9991 19.565C13.9204 19.565 13.0426 18.6872 13.0426 17.6085C13.0426 16.5298 13.9204 15.652 14.9991 15.652C16.0778 15.652 16.9556 16.5298 16.9556 17.6085C16.9556 18.6872 16.0778 19.565 14.9991 19.565Z" fill="black"/>
<path d="M29.3478 3.91309H0.652194C0.292194 3.91309 0 4.20528 0 4.56528V8.47832C0 9.55704 0.877805 10.4348 1.95652 10.4348H28.0435C29.1222 10.4348 30 9.55704 30 8.47832V4.56528C30 4.20528 29.7078 3.91309 29.3478 3.91309ZM28.6956 8.47832C28.6956 8.83832 28.4021 9.13051 28.0434 9.13051H1.95652C1.5978 9.13051 1.30433 8.83832 1.30433 8.47832V5.21741H28.6956V8.47832Z" fill="black"/>
<path d="M22.826 14.3478C23.1862 14.3478 23.4782 14.0558 23.4782 13.6957C23.4782 13.3355 23.1862 13.0435 22.826 13.0435C22.4658 13.0435 22.1738 13.3355 22.1738 13.6957C22.1738 14.0558 22.4658 14.3478 22.826 14.3478Z" fill="black"/>
</svg>
