<svg width="26" height="30" viewBox="0 0 26 30" fill="none" xmlns="http://www.w3.org/2000/svg">
<path d="M23.7812 14.0977V13.5938C23.7812 12.2262 23.238 10.9147 22.271 9.94773C21.304 8.98075 19.9925 8.4375 18.625 8.4375C17.2575 8.4375 15.946 8.98075 14.979 9.94773C14.012 10.9147 13.4687 12.2262 13.4687 13.5938V15.4688H11.5937C11.4694 15.4688 11.3502 15.5181 11.2623 15.606C11.1744 15.694 11.125 15.8132 11.125 15.9375V17.8125C11.125 17.9368 11.1744 18.056 11.2623 18.144C11.3502 18.2319 11.4694 18.2812 11.5937 18.2812H11.6406L12.0845 22.5H10.1875V2.34375C10.1875 1.97079 10.0393 1.6131 9.77561 1.34938C9.51188 1.08566 9.1542 0.9375 8.78124 0.9375C8.40828 0.9375 8.05059 1.08566 7.78687 1.34938C7.52315 1.6131 7.37499 1.97079 7.37499 2.34375V22.5H2.68749C2.43894 22.5003 2.20065 22.5992 2.0249 22.7749C1.84915 22.9507 1.75028 23.1889 1.74999 23.4375V24.786L0.826491 28.4801C0.809218 28.5492 0.807921 28.6213 0.822699 28.691C0.837478 28.7607 0.867943 28.8261 0.91178 28.8822C0.955618 28.9384 1.01167 28.9838 1.07569 29.015C1.13971 29.0463 1.21001 29.0625 1.28124 29.0625H23.3125C23.4368 29.0625 23.556 29.0131 23.6439 28.9252C23.7319 28.8373 23.7812 28.7181 23.7812 28.5938V26.7434L24.4429 20.4579C24.6695 20.3336 24.8583 20.1504 24.9894 19.9276C25.1205 19.7048 25.1889 19.4507 25.1875 19.1923V15.8203C25.187 15.4152 25.0469 15.0227 24.7907 14.7089C24.5346 14.3951 24.178 14.1792 23.7812 14.0977ZM14.4062 13.5938C14.4062 13.0397 14.5154 12.4911 14.7274 11.9793C14.9394 11.4675 15.2501 11.0024 15.6419 10.6106C16.0336 10.2189 16.4987 9.90814 17.0105 9.69613C17.5224 9.48412 18.071 9.375 18.625 9.375C19.179 9.375 19.7276 9.48412 20.2394 9.69613C20.7513 9.90814 21.2163 10.2189 21.6081 10.6106C21.9998 11.0024 22.3106 11.4675 22.5226 11.9793C22.7346 12.4911 22.8437 13.0397 22.8437 13.5938V14.0625H18.5078C18.1027 14.063 17.7102 14.2031 17.3964 14.4593C17.0826 14.7154 16.8667 15.072 16.7851 15.4688H14.4062V13.5938ZM12.0625 16.4062H16.75V17.3438H12.0625V16.4062ZM12.5832 18.2812H16.75V19.193C16.7508 19.3843 16.7894 19.5736 16.8635 19.7499C16.9377 19.9263 17.046 20.0863 17.1822 20.2206C17.3128 20.3511 17.4681 20.454 17.6391 20.5235C17.8101 20.5929 17.9933 20.6274 18.1778 20.6249C18.5163 20.6189 18.8413 20.4915 19.0937 20.266C19.3513 20.4971 19.6852 20.625 20.0312 20.625C20.3773 20.625 20.7112 20.4971 20.9687 20.266C21.2262 20.497 21.56 20.6248 21.9059 20.6249C22.2519 20.625 22.5857 20.4974 22.8433 20.2665C23.0251 20.4299 23.2467 20.5425 23.4859 20.5931L22.8906 26.25H16.1785L15.8125 24.786V23.4375C15.8122 23.1889 15.7133 22.9507 15.5376 22.7749C15.3618 22.5992 15.1235 22.5003 14.875 22.5H13.0271L12.5832 18.2812ZM8.31249 2.34375C8.31249 2.21943 8.36187 2.1002 8.44978 2.01229C8.53769 1.92439 8.65692 1.875 8.78124 1.875C8.90556 1.875 9.02479 1.92439 9.11269 2.01229C9.2006 2.1002 9.24999 2.21943 9.24999 2.34375V22.5H8.31249V2.34375ZM2.68749 23.4375H14.875V24.375H2.68749V23.4375ZM3.75659 28.125L4.45971 25.3125H5.36839L4.66526 28.125H3.75659ZM2.58471 25.3125H3.49339L2.79026 28.125H1.88159L2.58471 25.3125ZM6.33471 25.3125H7.31276L6.9612 28.125H5.63159L6.33471 25.3125ZM7.90596 28.125L8.25753 25.3125H9.30495L9.65651 28.125H7.90596ZM10.6013 28.125L10.2497 25.3125H11.2278L11.9309 28.125H10.6013ZM12.8972 28.125L12.1941 25.3125H13.1028L13.8059 28.125H12.8972ZM14.7722 28.125L14.0691 25.3125H14.9778L15.6809 28.125H14.7722ZM22.8437 28.125H16.6472L16.4128 27.1875H22.8437V28.125ZM24.25 17.8125V19.1923C24.2522 19.3158 24.2074 19.4355 24.1248 19.5273C24.0421 19.6191 23.9277 19.6761 23.8047 19.6869C23.7412 19.6901 23.6778 19.6803 23.6182 19.6582C23.5587 19.6361 23.5042 19.6022 23.4582 19.5584C23.4121 19.5146 23.3755 19.4619 23.3504 19.4035C23.3254 19.3451 23.3125 19.2823 23.3125 19.2188V17.3438H22.375V19.2188C22.375 19.3431 22.3256 19.4623 22.2377 19.5502C22.1498 19.6381 22.0306 19.6875 21.9062 19.6875C21.7819 19.6875 21.6627 19.6381 21.5748 19.5502C21.4869 19.4623 21.4375 19.3431 21.4375 19.2188V17.3438H20.5V19.2188C20.5 19.3431 20.4506 19.4623 20.3627 19.5502C20.2748 19.6381 20.1556 19.6875 20.0312 19.6875C19.9069 19.6875 19.7877 19.6381 19.6998 19.5502C19.6119 19.4623 19.5625 19.3431 19.5625 19.2188V17.3438H18.625V19.2188C18.6251 19.3418 18.5768 19.46 18.4904 19.5478C18.4041 19.6355 18.2867 19.6857 18.1636 19.6875H18.1572C18.0378 19.6863 17.9238 19.6378 17.8401 19.5527C17.7922 19.5058 17.7542 19.4498 17.728 19.3881C17.7019 19.3263 17.6882 19.2601 17.6877 19.193V15.8203C17.688 15.6028 17.7745 15.3943 17.9282 15.2405C18.082 15.0867 18.2905 15.0002 18.508 15H23.4299C23.6474 15.0002 23.8559 15.0867 24.0097 15.2405C24.1635 15.3943 24.25 15.6028 24.2502 15.8203L24.25 17.8125Z" fill="black"/>
</svg>
