<svg width="44" height="44" viewBox="0 0 44 44" fill="none" xmlns="http://www.w3.org/2000/svg">
<path d="M33.6701 13.688L26.2009 6.21882C26.0609 6.07878 25.8712 6 25.6728 6H9.98761C8.34066 6 7 7.33989 7 8.98768V38.8642C7 40.512 8.34066 41.8519 9.98768 41.8519H30.9013C32.5482 41.8519 33.8889 40.512 33.8889 38.8642V14.216C33.8889 14.0177 33.8101 13.828 33.6701 13.688ZM26.4197 8.55003L31.3389 13.4692H27.9135C27.0893 13.4692 26.4197 12.7988 26.4197 11.9754V8.55003ZM32.3951 38.8642C32.3951 39.6876 31.7255 40.358 30.9013 40.358H9.98768C9.16344 40.358 8.49387 39.6876 8.49387 38.8642V8.98768C8.49387 8.16421 9.16351 7.49387 9.98768 7.49387H24.9259V11.9754C24.9259 13.6231 26.2666 14.963 27.9136 14.963H32.3951V38.8642Z" fill="black"/>
<path d="M28.9947 26.6174H18.538C18.1251 26.6174 17.791 26.9515 17.791 27.3643C17.791 27.7772 18.1251 28.1113 18.538 28.1113H28.9947C29.4076 28.1113 29.7416 27.7772 29.7416 27.3643C29.7416 26.9515 29.4076 26.6174 28.9947 26.6174Z" fill="black"/>
<path d="M12.5633 14.6667H21.5263C21.9391 14.6667 22.2732 14.3326 22.2732 13.9198C22.2732 13.5069 21.9391 13.1729 21.5263 13.1729H12.5633C12.1505 13.1729 11.8164 13.5069 11.8164 13.9198C11.8164 14.3326 12.1505 14.6667 12.5633 14.6667Z" fill="black"/>
<path d="M28.9953 22.1357H12.5633C12.1505 22.1357 11.8164 22.4698 11.8164 22.8827C11.8164 23.2955 12.1505 23.6296 12.5633 23.6296H28.9954C29.4083 23.6296 29.7423 23.2955 29.7423 22.8827C29.7423 22.4698 29.4082 22.1357 28.9953 22.1357Z" fill="black"/>
<path d="M11.8164 18.4012C11.8164 18.8141 12.1505 19.1481 12.5633 19.1481H28.9954C29.4083 19.1481 29.7423 18.8141 29.7423 18.4012C29.7423 17.9884 29.4083 17.6543 28.9954 17.6543H12.5633C12.1505 17.6544 11.8164 17.9884 11.8164 18.4012Z" fill="black"/>
<path d="M22.4963 32.8071C21.3978 33.8881 20.0135 35.1062 19.4649 35.4768C19.3351 35.1828 19.1878 34.6912 19.0988 34.3929C18.7954 33.387 18.5576 32.5926 17.7917 32.5926C17.1367 32.5926 16.8419 33.1915 16.3955 34.0974C16.1767 34.5409 15.723 35.4644 15.5582 35.5803C15.3962 35.5635 15.1191 35.3746 14.8142 35.0902C15.6371 34.0274 16.2979 32.7969 16.2979 31.8457C16.2979 30.2133 14.9237 29.605 14.0571 29.605C13.176 29.605 11.8164 30.888 11.8164 32.5926C11.8164 33.3483 12.2351 34.282 12.8288 35.1011C12.5925 35.3374 12.3517 35.5519 12.1154 35.7298C11.7857 35.9771 11.7186 36.4454 11.9651 36.775C12.1125 36.9713 12.3372 37.0741 12.5633 37.0741C12.7193 37.0741 12.8769 37.0252 13.0111 36.9246C13.2694 36.7314 13.5465 36.4884 13.8251 36.2112C14.4101 36.7321 15.0316 37.0741 15.5509 37.0741C16.5604 37.0741 17.16 35.9253 17.6808 34.8684C18.0251 36.0092 18.3577 37.0741 19.2855 37.0741C19.535 37.0741 20.2921 37.0741 23.5438 33.872C23.8385 33.5825 23.8414 33.1098 23.5526 32.8159C23.2637 32.5205 22.791 32.519 22.4963 32.8071ZM13.8296 33.9173C13.5262 33.4548 13.3102 32.9749 13.3102 32.5926C13.3102 31.6817 13.9784 31.1484 14.0571 31.0988C14.1811 31.0988 14.8041 31.1346 14.8041 31.8458C14.8041 32.322 14.4014 33.1259 13.8296 33.9173Z" fill="black"/>
</svg>
