<svg width="30" height="30" viewBox="0 0 30 30" fill="none" xmlns="http://www.w3.org/2000/svg">
<path d="M12.8999 28.9H5.09996V7.10002H12.8999V28.9ZM27.8999 28.9H23.1V6.49998C23.1 6.32726 23.042 6.17555 22.9332 6.06678C22.8245 5.958 22.6728 5.9 22.5 5.9H13.5H4.49998C4.32726 5.9 4.17555 5.958 4.06678 6.06678C3.958 6.17555 3.9 6.32726 3.9 6.49998V28.9H2.09996V1.10002H27.8999V28.9ZM28.5 -0.1H1.49998C1.32726 -0.1 1.17555 -0.041995 1.06678 0.0667796C0.958005 0.175554 0.9 0.327258 0.9 0.49998V29.5C0.9 29.6727 0.958005 29.8244 1.06678 29.9332C1.17555 30.0419 1.32726 30.0999 1.49998 30.0999H4.49998H13.5H22.5H28.5C28.6727 30.0999 28.8244 30.0419 28.9332 29.9332C29.042 29.8244 29.1 29.6727 29.1 29.5V0.49998C29.1 0.327258 29.042 0.175554 28.9332 0.0667795C28.8244 -0.041995 28.6727 -0.1 28.5 -0.1ZM14.1 28.9V7.10002H21.8999V28.9L14.1 28.9Z" fill="black" stroke="black" stroke-width="0.2"/>
<path d="M11 5.1H16C16.9052 5.1 17.6 4.40525 17.6 3.5C17.6 2.59475 16.9052 1.9 16 1.9H11C10.0948 1.9 9.4 2.59475 9.4 3.5C9.4 4.40525 10.0948 5.1 11 5.1ZM11 3.10002H16C16.1273 3.10002 16.2255 3.142 16.2918 3.20822C16.358 3.27444 16.4 3.37272 16.4 3.5C16.4 3.62728 16.358 3.72556 16.2918 3.79178C16.2255 3.858 16.1273 3.89998 16 3.89998H11C10.8727 3.89998 10.7744 3.858 10.7082 3.79178C10.642 3.72556 10.6 3.62728 10.6 3.5C10.6 3.37272 10.642 3.27444 10.7082 3.20822C10.7744 3.142 10.8727 3.10002 11 3.10002Z" fill="black" stroke="black" stroke-width="0.2"/>
<path d="M26.9208 16.0793L26.9208 16.0793C27.1598 16.3184 27.1598 16.6817 26.9208 16.9207C26.9208 16.9207 26.9208 16.9207 26.9208 16.9207L26.85 16.85C26.7501 16.95 26.6501 17 26.5001 17C26.3501 17 26.2501 16.95 26.1501 16.85L26.9208 16.0793ZM26.9208 16.0793L25.9207 15.0793C25.6817 14.8402 25.3184 14.8403 25.0793 15.0793L25.0793 15.0793L24.0793 16.0793C23.8402 16.3183 23.8403 16.6816 24.0793 16.9207L24.0793 16.9207C24.3184 17.1598 24.6817 17.1598 24.9208 16.9207L25.5001 16.3415L26.9208 16.0793Z" fill="black" stroke="black" stroke-width="0.2"/>
<path d="M25.5 19.6586L24.9207 19.0793C24.6817 18.8403 24.3184 18.8403 24.0793 19.0793L24.0793 19.0793C23.8402 19.3184 23.8403 19.6817 24.0793 19.9208L24.0793 19.9208L25.0793 20.9207C25.0793 20.9207 25.0793 20.9207 25.0793 20.9207C25.1352 20.9766 25.1951 21.0226 25.2656 21.0539C25.3366 21.0855 25.4133 21.1 25.5 21.1C25.5866 21.1 25.6633 21.0855 25.7344 21.0539C25.8049 21.0226 25.8648 20.9767 25.9207 20.9207C25.9207 20.9207 25.9207 20.9207 25.9207 20.9207L26.9207 19.9207C27.1597 19.6817 27.1597 19.3184 26.9207 19.0793L26.9207 19.0793C26.6817 18.8402 26.3183 18.8403 26.0793 19.0793L26.0793 19.0793L25.5 19.6586Z" fill="black" stroke="black" stroke-width="0.2"/>
</svg>
