<svg width="22" height="30" viewBox="0 0 22 30" fill="none" xmlns="http://www.w3.org/2000/svg">
<path d="M19.25 0H2.75C1.23365 0 0 1.05141 0 2.34375V27.6562C0 28.9486 1.23365 30 2.75 30H19.25C20.7663 30 22 28.9486 22 27.6562V2.34375C22 1.05141 20.7663 0 19.25 0ZM20.9 27.6562C20.9 28.4316 20.1597 29.0625 19.25 29.0625H2.75C1.8403 29.0625 1.1 28.4316 1.1 27.6562V2.34375C1.1 1.56844 1.8403 0.9375 2.75 0.9375H19.25C20.1597 0.9375 20.9 1.56844 20.9 2.34375V27.6562Z" fill="black"/>
<path d="M11 12.1875C14.0327 12.1875 16.5 10.0847 16.5 7.5C16.5 4.91531 14.0327 2.8125 11 2.8125C7.9673 2.8125 5.5 4.91531 5.5 7.5C5.5 10.0847 7.9673 12.1875 11 12.1875ZM11 3.75C13.4261 3.75 15.4 5.43234 15.4 7.5C15.4 9.56766 13.4261 11.25 11 11.25C8.57395 11.25 6.6 9.56766 6.6 7.5C6.6 5.43234 8.57395 3.75 11 3.75Z" fill="black"/>
<path d="M8.8 9.84375H13.2C13.5041 9.84375 13.75 9.63375 13.75 9.375V7.5C13.75 7.24125 13.5041 7.03125 13.2 7.03125H12.65V6.09375C12.65 5.31844 11.9097 4.6875 11 4.6875C10.0903 4.6875 9.35 5.31844 9.35 6.09375V7.03125H8.8C8.49585 7.03125 8.25 7.24125 8.25 7.5V9.375C8.25 9.63375 8.49585 9.84375 8.8 9.84375ZM10.45 6.09375C10.45 5.83547 10.6964 5.625 11 5.625C11.3036 5.625 11.55 5.83547 11.55 6.09375V7.03125H10.45V6.09375ZM9.35 7.96875H12.65V8.90625H9.35V7.96875Z" fill="black"/>
<path d="M5.50078 14.0625C4.28748 14.0625 3.30078 14.9034 3.30078 15.9375C3.30078 16.9716 4.28748 17.8125 5.50078 17.8125C6.71408 17.8125 7.70078 16.9716 7.70078 15.9375C7.70078 14.9034 6.71408 14.0625 5.50078 14.0625ZM5.50078 16.875C4.89413 16.875 4.40078 16.4545 4.40078 15.9375C4.40078 15.4205 4.89413 15 5.50078 15C6.10688 15 6.60078 15.4205 6.60078 15.9375C6.60078 16.4545 6.10688 16.875 5.50078 16.875Z" fill="black"/>
<path d="M16.5008 14.0625C15.2875 14.0625 14.3008 14.9034 14.3008 15.9375C14.3008 16.9716 15.2875 17.8125 16.5008 17.8125C17.7141 17.8125 18.7008 16.9716 18.7008 15.9375C18.7008 14.9034 17.7141 14.0625 16.5008 14.0625ZM16.5008 16.875C15.8941 16.875 15.4008 16.4545 15.4008 15.9375C15.4008 15.4205 15.8941 15 16.5008 15C17.1069 15 17.6008 15.4205 17.6008 15.9375C17.6008 16.4545 17.1069 16.875 16.5008 16.875Z" fill="black"/>
<path d="M11.0008 14.0625C9.78748 14.0625 8.80078 14.9034 8.80078 15.9375C8.80078 16.9716 9.78748 17.8125 11.0008 17.8125C12.2141 17.8125 13.2008 16.9716 13.2008 15.9375C13.2008 14.9034 12.2141 14.0625 11.0008 14.0625ZM11.0008 16.875C10.3941 16.875 9.90078 16.4545 9.90078 15.9375C9.90078 15.4205 10.3941 15 11.0008 15C11.6069 15 12.1008 15.4205 12.1008 15.9375C12.1008 16.4545 11.6069 16.875 11.0008 16.875Z" fill="black"/>
<path d="M5.50078 18.75C4.28748 18.75 3.30078 19.5909 3.30078 20.625C3.30078 21.6591 4.28748 22.5 5.50078 22.5C6.71408 22.5 7.70078 21.6591 7.70078 20.625C7.70078 19.5909 6.71408 18.75 5.50078 18.75ZM5.50078 21.5625C4.89413 21.5625 4.40078 21.142 4.40078 20.625C4.40078 20.108 4.89413 19.6875 5.50078 19.6875C6.10688 19.6875 6.60078 20.108 6.60078 20.625C6.60078 21.142 6.10688 21.5625 5.50078 21.5625Z" fill="black"/>
<path d="M16.5008 18.75C15.2875 18.75 14.3008 19.5909 14.3008 20.625C14.3008 21.6591 15.2875 22.5 16.5008 22.5C17.7141 22.5 18.7008 21.6591 18.7008 20.625C18.7008 19.5909 17.7141 18.75 16.5008 18.75ZM16.5008 21.5625C15.8941 21.5625 15.4008 21.142 15.4008 20.625C15.4008 20.108 15.8941 19.6875 16.5008 19.6875C17.1069 19.6875 17.6008 20.108 17.6008 20.625C17.6008 21.142 17.1069 21.5625 16.5008 21.5625Z" fill="black"/>
<path d="M11.0008 18.75C9.78748 18.75 8.80078 19.5909 8.80078 20.625C8.80078 21.6591 9.78748 22.5 11.0008 22.5C12.2141 22.5 13.2008 21.6591 13.2008 20.625C13.2008 19.5909 12.2141 18.75 11.0008 18.75ZM11.0008 21.5625C10.3941 21.5625 9.90078 21.142 9.90078 20.625C9.90078 20.108 10.3941 19.6875 11.0008 19.6875C11.6069 19.6875 12.1008 20.108 12.1008 20.625C12.1008 21.142 11.6069 21.5625 11.0008 21.5625Z" fill="black"/>
<path d="M5.50078 23.4375C4.28748 23.4375 3.30078 24.2784 3.30078 25.3125C3.30078 26.3466 4.28748 27.1875 5.50078 27.1875C6.71408 27.1875 7.70078 26.3466 7.70078 25.3125C7.70078 24.2784 6.71408 23.4375 5.50078 23.4375ZM5.50078 26.25C4.89413 26.25 4.40078 25.8295 4.40078 25.3125C4.40078 24.7955 4.89413 24.375 5.50078 24.375C6.10688 24.375 6.60078 24.7955 6.60078 25.3125C6.60078 25.8295 6.10688 26.25 5.50078 26.25Z" fill="black"/>
<path d="M16.5008 23.4375C15.2875 23.4375 14.3008 24.2784 14.3008 25.3125C14.3008 26.3466 15.2875 27.1875 16.5008 27.1875C17.7141 27.1875 18.7008 26.3466 18.7008 25.3125C18.7008 24.2784 17.7141 23.4375 16.5008 23.4375ZM16.5008 26.25C15.8941 26.25 15.4008 25.8295 15.4008 25.3125C15.4008 24.7955 15.8941 24.375 16.5008 24.375C17.1069 24.375 17.6008 24.7955 17.6008 25.3125C17.6008 25.8295 17.1069 26.25 16.5008 26.25Z" fill="black"/>
<path d="M11.0008 23.4375C9.78748 23.4375 8.80078 24.2784 8.80078 25.3125C8.80078 26.3466 9.78748 27.1875 11.0008 27.1875C12.2141 27.1875 13.2008 26.3466 13.2008 25.3125C13.2008 24.2784 12.2141 23.4375 11.0008 23.4375ZM11.0008 26.25C10.3941 26.25 9.90078 25.8295 9.90078 25.3125C9.90078 24.7955 10.3941 24.375 11.0008 24.375C11.6069 24.375 12.1008 24.7955 12.1008 25.3125C12.1008 25.8295 11.6069 26.25 11.0008 26.25Z" fill="black"/>
</svg>
