<svg width="44" height="44" viewBox="0 0 44 44" fill="none" xmlns="http://www.w3.org/2000/svg">
<mask id="mask0_728_1470" style="mask-type:luminance" maskUnits="userSpaceOnUse" x="2" y="2" width="40" height="40">
<path d="M2.44531 2.44456H41.5564V41.5557H2.44531V2.44456Z" fill="white"/>
</mask>
<g mask="url(#mask0_728_1470)">
<path d="M34.6009 24.6067V19.3933H32.5149C32.2515 18.3276 31.8309 17.324 31.2782 16.4089L32.7536 14.9334L29.0672 11.247L27.5918 12.7224C26.6767 12.1697 25.6731 11.7491 24.6074 11.4857V9.39964H19.394V11.4857C18.3283 11.7491 17.3246 12.1697 16.4095 12.7224L14.9341 11.247L11.2477 14.9334L12.7231 16.4089C12.1704 17.324 11.7497 18.3276 11.4864 19.3933H9.40039V24.6067H11.4864C11.7497 25.6724 12.1704 26.676 12.7231 27.5911L11.2477 29.0666L14.9341 32.753L16.4095 31.2776C17.3246 31.8303 18.3283 32.2509 19.394 32.5142V34.6003H24.6074V32.5142C25.6731 32.2509 26.6767 31.8303 27.5918 31.2776L29.0672 32.753L32.7536 29.0666L31.2782 27.5911C31.8309 26.676 32.2515 25.6724 32.5149 24.6067H34.6009Z" stroke="black" stroke-width="1.6" stroke-miterlimit="10" stroke-linecap="round" stroke-linejoin="round"/>
<path d="M27.7731 25.3322V18.6681L22.0017 15.336L16.2305 18.6681V25.3322L22.0017 28.6643L27.7731 25.3322Z" stroke="black" stroke-width="1.6" stroke-miterlimit="10" stroke-linecap="round" stroke-linejoin="round"/>
<path d="M16.4199 18.7774L22.0017 22L27.644 18.7424" stroke="black" stroke-width="1.6" stroke-miterlimit="10" stroke-linecap="round" stroke-linejoin="round"/>
<path d="M22 22.0001V28.2981" stroke="black" stroke-width="1.6" stroke-miterlimit="10" stroke-linecap="round" stroke-linejoin="round"/>
<path d="M31.0614 5.67529C28.3779 4.17807 25.2882 3.32527 22 3.32527" stroke="black" stroke-width="1.6" stroke-miterlimit="10" stroke-linecap="round" stroke-linejoin="round"/>
<path d="M40.1326 17.5693C39.4433 14.7588 38.1218 12.1976 36.3281 10.0465" stroke="black" stroke-width="1.6" stroke-miterlimit="10" stroke-linecap="round" stroke-linejoin="round"/>
<path d="M37.9551 16.1596L40.1435 17.5959L40.7907 15.0553" stroke="black" stroke-width="1.6" stroke-miterlimit="10" stroke-linecap="round" stroke-linejoin="round"/>
<path d="M3.86719 26.4309C5.87324 34.6093 13.2309 40.675 22.0004 40.675" stroke="black" stroke-width="1.6" stroke-miterlimit="10" stroke-linecap="round" stroke-linejoin="round"/>
<path d="M6.04462 27.8405L3.85615 26.4042L3.20898 28.9448" stroke="black" stroke-width="1.6" stroke-miterlimit="10" stroke-linecap="round" stroke-linejoin="round"/>
<path d="M26.4316 40.1333C34.6101 38.1273 40.6758 30.7696 40.6758 22.0001" stroke="black" stroke-width="1.6" stroke-miterlimit="10" stroke-linecap="round" stroke-linejoin="round"/>
<path d="M27.8406 37.9561L26.4043 40.1446L28.945 40.7917" stroke="black" stroke-width="1.6" stroke-miterlimit="10" stroke-linecap="round" stroke-linejoin="round"/>
<path d="M17.5703 3.86681C9.39191 5.87285 3.32617 13.2305 3.32617 22" stroke="black" stroke-width="1.6" stroke-miterlimit="10" stroke-linecap="round" stroke-linejoin="round"/>
<path d="M16.1609 6.04395L17.5973 3.85548L15.0566 3.20831" stroke="black" stroke-width="1.6" stroke-miterlimit="10" stroke-linecap="round" stroke-linejoin="round"/>
</g>
</svg>
