<svg width="28" height="30" viewBox="0 0 28 30" fill="none" xmlns="http://www.w3.org/2000/svg">
<g clip-path="url(#clip0_728_1113)">
<path d="M15.3778 2H12.5779C12.0624 2 11.6445 2.44769 11.6445 2.99998V3.99997C11.6445 4.55226 12.0624 4.99995 12.5779 4.99995H15.3778C15.8933 4.99995 16.3111 4.55226 16.3111 3.99997V2.99998C16.3111 2.44769 15.8933 2 15.3778 2ZM12.5779 3.99997V2.99998H15.3778V3.99997H12.5779Z" fill="black"/>
<path d="M16.7782 0H11.178C10.4049 0 9.77817 0.671539 9.77817 1.50009V6.09558C7.34671 6.57967 5.58218 8.8504 5.57812 11.4999V22.5C5.58005 24.3585 6.45761 26.0902 7.91153 27.104V28C7.91153 29.1046 8.74722 30 9.77817 30H18.178C19.209 30 20.0449 29.1046 20.0449 28V27.104C21.4986 26.0902 22.3764 24.3585 22.3781 22.5V11.4999C22.3742 8.8504 20.6095 6.57967 18.178 6.09558V1.50009C18.178 0.671539 17.5513 0 16.7782 0ZM10.7115 1.50009C10.7115 1.22383 10.9204 0.999985 11.178 0.999985H16.7782C17.0358 0.999985 17.2447 1.22383 17.2447 1.50009V5.99991H10.7115V1.50009ZM19.1114 27.6244V28C19.1114 28.5523 18.6935 29 18.178 29H9.77817C9.2627 29 8.84485 28.5523 8.84485 28V27.6244C8.91193 27.6526 8.98157 27.6746 9.05014 27.6986C9.11871 27.7224 9.17426 27.746 9.23685 27.7666C9.3302 27.7954 9.42014 27.8165 9.51263 27.8426C9.58163 27.8604 9.64935 27.8801 9.71878 27.8925C9.81833 27.9135 9.91916 27.927 10.0193 27.9426C10.0828 27.952 10.1454 27.9646 10.2097 27.9714C10.3759 27.9886 10.5429 27.9984 10.7104 27.9984H17.2447C17.4124 27.9984 17.5795 27.9886 17.7455 27.9714C17.81 27.9646 17.8726 27.952 17.936 27.9426C18.0362 27.9279 18.137 27.9144 18.2364 27.8925C18.306 27.8776 18.3737 27.8579 18.4427 27.8426C18.5361 27.819 18.6294 27.7954 18.7185 27.7666C18.782 27.746 18.8441 27.7215 18.9052 27.6986C18.9663 27.6755 19.0443 27.6526 19.1114 27.6244ZM21.4448 11.4999V22.5C21.4358 24.3089 20.4251 25.9394 18.8725 26.6501C18.8366 26.6661 18.7988 26.678 18.7629 26.6929C18.6433 26.743 18.5226 26.7874 18.3994 26.825C18.3481 26.8405 18.2962 26.854 18.2438 26.868C18.1272 26.8984 18.0093 26.9236 17.8896 26.9435C17.8431 26.9511 17.7963 26.9604 17.7465 26.9671C17.5799 26.9886 17.4124 26.9996 17.2447 27H10.7115C10.5438 26.9989 10.3763 26.9872 10.2097 26.965C10.1631 26.9584 10.1142 26.949 10.0666 26.9415C9.94714 26.9215 9.82901 26.8964 9.71237 26.8659C9.66003 26.852 9.60834 26.8385 9.55685 26.8229C9.43381 26.7856 9.3129 26.7405 9.19348 26.6911C9.15738 26.6759 9.11957 26.664 9.08368 26.648C7.53171 25.9378 6.52127 24.3082 6.51144 22.5V11.4999C6.51422 9.01588 8.39304 7.0031 10.7115 6.99989H17.2447C19.5632 7.0031 21.442 9.01588 21.4448 11.4999Z" fill="black"/>
<path d="M15.4497 15.2395C14.6097 14.5166 13.884 13.8895 13.884 13.1395C13.9206 12.876 14.0677 12.6446 14.2835 12.5121C14.4781 12.3674 14.5552 12.099 14.47 11.8621C14.3846 11.6222 14.1579 11.4755 13.9199 11.5059C12.24 11.7211 11.4554 13.8531 11.4554 15.2259C11.4921 15.8906 11.7008 16.5313 12.058 17.076C12.2212 17.315 12.334 17.5889 12.3887 17.8791C12.3887 18.3291 12.253 18.3291 12.1088 18.3291C11.9005 18.3291 11.7957 18.2824 11.7662 18.2385C11.7149 18.0604 11.7277 17.8682 11.8021 17.6995C11.8751 17.4713 11.7939 17.2191 11.6053 17.0874C11.4143 16.9648 11.1717 16.9858 11.0018 17.1401C10.261 17.8714 9.82071 18.8874 9.77734 19.9656C9.77734 22.1785 11.3473 23.5 13.9774 23.5C16.6075 23.5 18.1772 22.1785 18.1772 19.9656C18.1772 17.5885 16.6648 16.2861 15.4497 15.2395ZM13.9774 22.5C12.7574 22.5 10.7107 22.1705 10.7107 19.9656C10.7156 19.5562 10.8115 19.154 10.9907 18.7926C10.9963 18.8015 11.0014 18.81 11.0074 18.818C11.271 19.1769 11.6861 19.3685 12.1105 19.3275C12.6971 19.3275 13.3239 18.9476 13.3239 17.8775C13.2829 17.4035 13.1235 16.9501 12.8625 16.5651C12.5959 16.1715 12.4331 15.7082 12.3906 15.2241C12.4038 14.5331 12.5995 13.8602 12.9548 13.2834C13.0248 14.4336 13.9195 15.2056 14.865 16.019C16.0344 17.0266 17.245 18.0691 17.245 19.9656C17.2439 22.1705 15.1972 22.5 13.9774 22.5Z" fill="black"/>
</g>
<defs>
<clipPath id="clip0_728_1113">
<rect width="28" height="30" fill="white"/>
</clipPath>
</defs>
</svg>
