<svg width="45" height="44" viewBox="0 0 45 44" fill="none" xmlns="http://www.w3.org/2000/svg">
<path d="M2.60971 15.4434H6.85669V35.4896H6.45816C4.8558 35.4896 3.5415 36.7534 3.5415 38.3204V38.4092C3.5415 38.852 3.91033 39.2 4.35156 39.2H10.9819C11.4231 39.2 11.7919 38.852 11.7919 38.4092V38.3204C11.7918 36.7534 10.4775 35.4897 8.87526 35.4897H8.47673V15.4434H9.64364V21.9279C9.64364 22.3707 10.0125 22.7187 10.4537 22.7187C10.8949 22.7187 11.2638 22.3707 11.2638 21.9279V15.4434H12.7236C13.2298 15.4434 13.6305 14.9728 13.513 14.475L13.513 14.475L11.3738 5.41318C11.2881 5.05029 10.9575 4.8 10.5844 4.8H4.74893C4.37579 4.8 4.04522 5.05029 3.95957 5.41317C3.95957 5.41317 3.95957 5.41317 3.95956 5.41318L1.82034 14.475L1.82034 14.475C1.70283 14.9728 2.10354 15.4434 2.60971 15.4434ZM3.62761 13.8619L5.39356 6.3816H9.93985L11.7057 13.8619H3.62761ZM9.94705 37.6185H5.38622C5.61912 37.2896 6.0115 37.0712 6.45807 37.0712H8.87518C9.32177 37.0712 9.71416 37.2895 9.94705 37.6185Z" fill="white" stroke="white" stroke-width="0.4"/>
<path d="M40.7856 37.6913H37.9624V30.5508C37.9624 29.7812 38.5943 29.152 39.3741 29.152C40.1537 29.152 40.7856 29.7812 40.7856 30.5508V37.6913ZM42.3032 30.5508C42.3031 29.2065 41.3803 28.0749 40.1328 27.7425V25.8699C40.1328 23.8643 38.4889 22.2358 36.4713 22.2358H23.2142C22.7967 22.2358 22.4554 22.572 22.4554 22.9901C22.4554 23.4083 22.7967 23.7445 23.2142 23.7445H36.4713C37.6549 23.7445 38.6154 24.6996 38.6154 25.87V27.7425C37.3679 28.0749 36.445 29.2066 36.445 30.5508V32.4095H18.9921V30.5508C18.9921 29.2065 18.0693 28.0749 16.8218 27.7425V25.87C16.8218 24.6996 17.7824 23.7445 18.9659 23.7445H20.9793C21.3968 23.7445 21.738 23.4083 21.738 22.9901C21.738 22.572 21.3968 22.2358 20.9793 22.2358H18.9659C16.9482 22.2358 15.3044 23.8644 15.3044 25.8699V27.7425C14.0569 28.0748 13.134 29.2065 13.134 30.5507V38.4455C13.134 38.8637 13.4752 39.1999 13.8928 39.1999H31.1266C31.5442 39.1999 31.8854 38.8637 31.8854 38.4455C31.8854 38.0274 31.5442 37.6912 31.1266 37.6912H18.9921V33.918H36.445V37.6912H33.3615C32.9439 37.6912 32.6028 38.0274 32.6028 38.4455C32.6028 38.8637 32.9439 39.1999 33.3615 39.1999H41.5444C41.962 39.1999 42.3032 38.8637 42.3032 38.4455V30.5508ZM14.6514 30.5508C14.6514 29.7812 15.2833 29.152 16.0631 29.152C16.8428 29.152 17.4747 29.7812 17.4747 30.5508V37.6913H14.6514V30.5508Z" fill="white" stroke="white" stroke-width="0.4"/>
</svg>
