<svg width="40" height="40" viewBox="0 0 40 40" fill="none" xmlns="http://www.w3.org/2000/svg">
<path d="M22.6962 16.2628L22.6962 16.2628C22.3679 16.6303 21.804 16.6621 21.4364 16.3339C21.0597 15.9976 20.5504 15.8094 19.9997 15.8094C18.8854 15.8094 18.0198 16.581 18.0198 17.4821C18.0198 18.3831 18.8853 19.1547 19.9998 19.1547C22.0628 19.1547 23.7642 20.6932 23.7642 22.6118C23.7642 24.2389 22.5387 25.594 20.9095 25.9667L20.9258 26.6418C20.9378 27.1345 20.5481 27.5435 20.0555 27.5554L20.0337 27.5556C19.5509 27.5556 19.1538 27.1703 19.1421 26.685L19.1251 25.9821C18.1778 25.7824 17.5582 25.2644 16.9846 24.7234C16.6261 24.3853 16.6096 23.8206 16.9477 23.4622C17.2858 23.1037 17.8505 23.0872 18.2089 23.4253C18.5438 23.7412 18.8018 23.9533 19.0695 24.0886C19.3326 24.2215 19.6137 24.2844 19.9999 24.2844C21.1143 24.2844 21.9799 23.5128 21.9799 22.6118C21.9799 21.7107 21.1143 20.9391 19.9999 20.9391C17.9368 20.9391 16.2355 19.4006 16.2355 17.4821C16.2355 15.8541 17.4621 14.4987 19.0922 14.1266L19.0738 13.3574C19.062 12.8648 19.4517 12.456 19.9442 12.4441C19.9443 12.4441 19.9443 12.4441 19.9444 12.4441L19.948 12.5941L22.6962 16.2628ZM22.6962 16.2628C23.0244 15.8952 22.9926 15.3313 22.6251 15.003M22.6962 16.2628L22.6251 15.003M22.6251 15.003C22.1323 14.5629 21.5299 14.2613 20.8769 14.1189L22.6251 15.003ZM2.01162 16.7313L2.01152 16.7313C1.52314 16.668 1.07529 17.0119 1.01157 17.5007C0.904371 18.3229 0.85 19.1636 0.85 19.9998C0.85 25.1146 2.8421 29.9242 6.45885 33.541C10.0755 37.1578 14.8851 39.15 19.9999 39.15C25.1146 39.15 29.9242 37.1578 33.541 33.541C37.1578 29.9241 39.15 25.1146 39.15 19.9998C39.15 14.885 37.1578 10.0755 33.541 6.45878C29.9242 2.8421 25.1147 0.85 19.9999 0.85C16.9984 0.85 14.1236 1.52516 11.4565 2.85671L11.523 2.98979L11.4565 2.85672C9.58837 3.78946 7.86876 5.04127 6.39237 6.53039V4.97553C6.39237 4.48277 5.99293 4.08334 5.50018 4.08334C5.00743 4.08334 4.60799 4.48277 4.60799 4.97553V8.90534C4.60799 9.39809 5.00743 9.79752 5.50018 9.79752H9.42954C9.9223 9.79752 10.3217 9.39809 10.3217 8.90534C10.3217 8.41258 9.9223 8.01315 9.42954 8.01315H7.43421C10.7034 4.57569 15.1938 2.63437 19.9999 2.63437C29.5752 2.63437 37.3656 10.4246 37.3656 19.9998C37.3656 29.5752 29.5752 37.3656 19.9999 37.3656C10.4246 37.3656 2.63437 29.5752 2.63437 19.9998C2.63437 19.2404 2.68369 18.4772 2.78096 17.7314L2.63222 17.712L2.78096 17.7314C2.84466 17.2428 2.50028 16.795 2.01162 16.7313ZM8.0769 19.9998C8.0769 26.5742 13.4254 31.9227 19.9999 31.9227C26.5742 31.9227 31.9228 26.5743 31.9228 19.9999C31.9228 13.4254 26.5743 8.0769 19.9999 8.0769C13.4254 8.0769 8.0769 13.4253 8.0769 19.9998ZM30.1384 19.9998C30.1384 25.5901 25.5901 30.1384 19.9999 30.1384C14.4096 30.1384 9.86128 25.5901 9.86128 19.9998C9.86128 14.4095 14.4096 9.8612 19.9999 9.8612C25.5901 9.8612 30.1384 14.4095 30.1384 19.9998Z" fill="black" stroke="black" stroke-width="0.3"/>
</svg>
