<svg width="36" height="36" viewBox="0 0 36 36" fill="none" xmlns="http://www.w3.org/2000/svg">
<path d="M34.5673 27.193L26.5191 19.0659C26.3856 18.938 26.2085 18.8666 26.0243 18.8666C25.8401 18.8666 25.663 18.938 25.5295 19.0659L23.9334 20.6752L22.054 18.7843L26.5909 14.1856C28.4863 14.085 31.0121 14.0931 31.1238 14.077C31.5946 14.0046 32.4964 13.2723 35.5489 9.13236C35.6337 9.0153 35.681 8.87494 35.6846 8.73003V6.86724C35.6843 6.74323 35.6517 6.62147 35.5901 6.51415C35.5285 6.40683 35.44 6.3177 35.3335 6.2557C35.2271 6.19234 35.1058 6.15892 34.9823 6.15892C34.8588 6.15892 34.7375 6.19234 34.6312 6.2557L31.4031 8.18688C31.1278 8.2754 29.9187 8.56105 28.8853 7.07645C27.768 5.46713 28.2668 4.69466 28.9731 4.08714C30.0277 3.32745 31.1226 2.62635 32.253 1.98697C32.3551 1.92687 32.4406 1.84203 32.5019 1.74017C32.5632 1.6383 32.5984 1.52261 32.6041 1.40359C32.6086 1.28475 32.5831 1.1667 32.5301 1.06046C32.4771 0.95423 32.3982 0.863271 32.3009 0.796075C32.2011 0.727679 29.7711 -0.909806 25.5974 0.719632C22.3733 1.9749 21.9224 3.62848 21.8825 3.81355L21.1962 8.70187L16.6314 13.3086L12.5534 9.18466C12.7301 8.73645 12.8222 8.25885 12.8247 7.77651C12.8257 7.27557 12.7281 6.77941 12.5377 6.31672C12.3473 5.85403 12.0678 5.43399 11.7154 5.08089C11.6821 5.04558 11.6445 5.01451 11.6037 4.98836L4.69666 0.458117C4.5632 0.369061 4.40332 0.329227 4.24408 0.345356C4.08485 0.361485 3.93602 0.432587 3.8228 0.54663L0.953843 3.43939C0.840738 3.55355 0.770222 3.70361 0.754225 3.86416C0.738229 4.02472 0.777735 4.18592 0.866058 4.32049L5.371 11.2728C5.39815 11.313 5.42887 11.3507 5.46277 11.3854C5.81216 11.7404 6.22812 12.0218 6.68642 12.2131C7.14472 12.4045 7.6362 12.5019 8.13222 12.4999C8.61183 12.5006 9.08718 12.4092 9.53278 12.2303L13.6108 16.3542L8.61504 21.3914L3.82679 22.0753H3.77492C3.59137 22.1196 1.95538 22.5702 0.70645 25.8251C-0.889632 30.0334 0.70645 32.4796 0.786254 32.5842C0.852224 32.6814 0.941065 32.7605 1.04482 32.8146C1.14858 32.8687 1.26402 32.896 1.38079 32.894C1.49819 32.8898 1.61258 32.8554 1.71313 32.7942C1.81368 32.7329 1.89706 32.6468 1.95538 32.544C2.59002 31.4045 3.28534 30.3005 4.03827 29.2368C4.64079 28.5247 5.41888 28.0298 7.00698 29.1443C8.48336 30.1944 8.20405 31.4215 8.10828 31.683L6.19298 34.9378C6.12914 35.0443 6.09461 35.1661 6.09295 35.2905C6.09128 35.4149 6.12255 35.5376 6.18352 35.6458C6.24449 35.754 6.33297 35.8438 6.43983 35.9061C6.5467 35.9684 6.66809 36.0008 6.79151 36H8.63898C8.78352 35.9974 8.9234 35.948 9.038 35.8592C13.2277 32.7371 13.8941 31.8359 13.9499 31.3812C13.9499 31.2847 13.9499 28.7379 14.0497 26.8309L19.0335 21.8299L20.9328 23.7168L19.3367 25.3262C19.2061 25.4588 19.1328 25.6381 19.1328 25.8251C19.1328 26.012 19.2061 26.1913 19.3367 26.3239L27.3969 34.447C28.3022 35.3585 29.5292 35.8704 30.8086 35.8704C32.0879 35.8704 33.3149 35.3585 34.2202 34.447L34.5833 34.0809C35.0323 33.6297 35.3886 33.0936 35.6317 32.5033C35.8749 31.913 36 31.2801 36 30.6409C36 30.0018 35.8749 29.3689 35.6317 28.7786C35.3886 28.1883 35.0323 27.6522 34.5833 27.201L34.5673 27.193ZM22.3493 9.53469C22.4553 9.42495 22.5238 9.28402 22.5448 9.13236L23.2511 4.12737C23.295 4.01472 23.7619 2.96464 26.1001 2.05135C27.4212 1.47181 28.8797 1.28746 30.3018 1.52027C29.5255 1.97319 28.7779 2.47439 28.0633 3.02096C26.144 4.67856 26.8303 6.58159 27.7401 7.88916C29.1646 9.92898 31.1278 9.82839 31.9617 9.49848C31.9936 9.49848 34.288 8.11849 34.288 8.11849V8.52082C32.9792 10.2911 31.4031 12.2585 30.8684 12.693C29.9507 12.6447 27.3969 12.7694 26.2517 12.8338C26.0788 12.8421 25.9151 12.9153 25.7929 13.039L21.0685 17.7784L19.8714 16.5715L24.4282 11.9567C24.5025 11.8939 24.563 11.8161 24.6058 11.7285C24.6486 11.6408 24.6729 11.545 24.677 11.4474C24.6812 11.3497 24.6651 11.2522 24.6298 11.1612C24.5945 11.0701 24.5408 10.9875 24.4721 10.9185C24.4035 10.8495 24.3213 10.7957 24.2308 10.7605C24.1404 10.7253 24.0436 10.7095 23.9468 10.714C23.8499 10.7186 23.7551 10.7434 23.6683 10.787C23.5815 10.8305 23.5047 10.8918 23.4426 10.967L18.8739 15.5696L17.6209 14.3023L22.3493 9.53469ZM8.12025 11.0917C7.51326 11.0947 6.92858 10.8612 6.48826 10.4399L2.34243 4.03081L4.40936 1.94674L10.7658 6.13902C11.1885 6.59497 11.4197 7.19832 11.4108 7.82245C11.4019 8.44657 11.1535 9.04294 10.7179 9.48641L9.80412 10.4077C9.58323 10.6308 9.32069 10.8075 9.03166 10.9277C8.74264 11.0478 8.43287 11.1091 8.12025 11.1078V11.0917ZM12.8846 26.0302C12.7615 26.1516 12.6887 26.3155 12.6811 26.4889C12.6172 27.6476 12.4935 30.2185 12.5454 31.1439C12.1144 31.683 10.1513 33.2762 8.40356 34.5959H8.00453C8.00453 34.5959 9.3612 32.2905 9.38515 32.2503C9.72431 31.4054 9.82806 29.434 7.78906 27.9936C6.49225 27.0763 4.5969 26.3843 2.95693 28.3195C2.41529 29.0403 1.91823 29.7941 1.46858 30.5766C1.23734 29.1423 1.42161 27.6713 1.99928 26.34C2.90904 23.9623 3.95448 23.5237 4.05822 23.4634L9.04199 22.7512C9.19291 22.7317 9.33319 22.6624 9.44101 22.5541L14.5964 17.3479L15.8533 18.6113L10.8136 23.6967C10.7481 23.7615 10.6961 23.8388 10.6606 23.9242C10.625 24.0095 10.6067 24.1011 10.6067 24.1936C10.6067 24.2861 10.625 24.3777 10.6606 24.463C10.6961 24.5484 10.7481 24.6257 10.8136 24.6905C10.8779 24.7565 10.9546 24.809 11.0392 24.8448C11.1238 24.8806 11.2147 24.8991 11.3064 24.8991C11.3982 24.8991 11.489 24.8806 11.5737 24.8448C11.6583 24.809 11.735 24.7565 11.7992 24.6905L16.8389 19.609L18.0359 20.816L12.8846 26.0302ZM10.7219 11.4498L10.7937 11.3854L11.7035 10.4681L11.7673 10.3957L22.9399 21.6609L21.8944 22.715L10.7219 11.4498ZM33.5817 33.0952L33.2186 33.4653C32.5741 34.1119 31.7018 34.475 30.7926 34.475C29.8833 34.475 29.0111 34.1119 28.3666 33.4653L20.8051 25.821L22.4012 24.2117L24.4362 22.1638L26.0323 20.5545L33.6137 28.1988C33.9317 28.5217 34.1832 28.9049 34.3538 29.3262C34.5244 29.7475 34.6107 30.1986 34.6077 30.6537C34.6047 31.1087 34.5126 31.5587 34.3365 31.9777C34.1604 32.3967 33.9039 32.7765 33.5817 33.0952Z" fill="black"/>
</svg>
