<svg width="28" height="30" viewBox="0 0 28 30" fill="none" xmlns="http://www.w3.org/2000/svg">
<path d="M8.58461 29.1128C7.16715 28.0193 6.04704 26.5411 5.33942 24.8301C4.63179 23.1192 4.36218 21.2372 4.55829 19.3776C4.7544 17.518 5.40916 15.7479 6.45527 14.2493C7.50138 12.7506 8.9011 11.5775 10.5106 10.8505L10.6578 10.7188M8.58461 29.1128L8.52345 29.1919C8.52348 29.1919 8.5235 29.1919 8.52353 29.1919C8.60499 29.2549 8.7038 29.2894 8.80595 29.2894H19.8683H19.8686V29.1894M8.58461 29.1128C8.64905 29.1626 8.7265 29.1894 8.80596 29.1894H19.8686M8.58461 29.1128L19.8686 29.1894M19.8686 29.1894C19.9485 29.1896 20.0263 29.1628 20.0911 29.1128L20.1522 29.1919C20.1522 29.1919 20.1522 29.1919 20.1522 29.1919C21.5833 28.0868 22.7133 26.5942 23.4269 24.8677C24.1404 23.1413 24.4121 21.2428 24.2142 19.3671C24.0163 17.4915 23.3559 15.7055 22.3003 14.1927C21.2446 12.6799 19.8315 11.4946 18.2056 10.7594L18.2053 10.7592C18.1458 10.7325 18.0817 10.7188 18.0167 10.7188M18.0167 10.7188H18.0168V10.8188L18.0167 10.7188C18.0167 10.7188 18.0167 10.7188 18.0167 10.7188ZM18.0167 10.7188H10.6578M10.6578 10.7188H10.6577V10.8188L10.6579 10.7188C10.6579 10.7188 10.6579 10.7188 10.6578 10.7188ZM22.5788 24.3939C21.9547 25.9358 20.9653 27.2748 19.7099 28.2786H8.96388C7.70828 27.2748 6.71874 25.9358 6.09453 24.3939C5.46581 22.8409 5.23016 21.1374 5.41158 19.4552C5.593 17.7731 6.185 16.1725 7.12733 14.8145C8.06532 13.4629 9.31723 12.3995 10.7574 11.7297H17.9172C19.3571 12.3998 20.6088 13.4633 21.5465 14.815C22.4886 16.1729 23.0805 17.7735 23.2618 19.4556C23.4431 21.1376 23.2075 22.841 22.5788 24.3939Z" fill="black" stroke="black" stroke-width="0.2"/>
<path d="M17.5384 10.7189V8.60143C17.5382 8.47122 17.4898 8.34766 17.4057 8.25755C17.3218 8.16768 17.2096 8.11852 17.0942 8.11833H11.5799C11.4645 8.11852 11.3523 8.16768 11.2685 8.25755C11.1845 8.34765 11.1362 8.47116 11.1361 8.6013C11.1361 8.60132 11.1361 8.60135 11.1361 8.60137M17.5384 10.7189L11.0361 8.6013L11.1361 8.60137M17.5384 10.7189H11.1361M17.5384 10.7189H11.1361M11.1361 8.60137L11.1361 10.7189M11.1361 8.60137L11.1361 10.7189M10.1793 8.60119V8.6013V11.2243C10.1793 11.3562 10.2281 11.4839 10.317 11.5792C10.4061 11.6746 10.5285 11.7297 10.6577 11.7297H18.0168C18.1459 11.7297 18.2683 11.6746 18.3574 11.5792C18.4463 11.4839 18.4951 11.3562 18.4951 11.2243V8.6013V8.60117C18.4946 8.20734 18.3484 7.82854 18.0867 7.54811C17.8247 7.26745 17.4681 7.1081 17.0944 7.10752H17.0943L11.5798 7.10752L11.5796 7.10752C11.206 7.1081 10.8494 7.26746 10.5875 7.54815C10.3258 7.82859 10.1797 8.2074 10.1793 8.60119Z" fill="black" stroke="black" stroke-width="0.2"/>
<path d="M13.4917 8.11942H15.1838C15.313 8.11942 15.4353 8.06437 15.5244 7.96891C15.6133 7.87368 15.6621 7.74591 15.6621 7.61401V4.68861C15.6621 4.55671 15.6133 4.42894 15.5244 4.33371C15.4353 4.23825 15.313 4.1832 15.1838 4.1832C15.0546 4.1832 14.9322 4.23825 14.8431 4.33371C14.7542 4.42894 14.7054 4.55671 14.7054 4.68861V7.10861H13.97V4.88726C13.97 4.75536 13.9212 4.62759 13.8323 4.53236C13.7432 4.4369 13.6208 4.38185 13.4917 4.38185C13.3625 4.38185 13.2401 4.4369 13.151 4.53236C13.0621 4.62759 13.0133 4.75536 13.0133 4.88726V7.61401C13.0133 7.74591 13.0621 7.87368 13.151 7.96891C13.2401 8.06437 13.3625 8.11942 13.4917 8.11942Z" fill="black" stroke="black" stroke-width="0.2"/>
<path d="M12.4586 5.52226L12.459 5.52226C12.5112 5.52203 12.5633 5.51849 12.615 5.51167L12.6153 5.51163L17.0756 4.91001L17.0757 4.91C17.3791 4.86888 17.6565 4.71077 17.8566 4.46749C18.0566 4.22437 18.1662 3.91255 18.1662 3.59064C18.1662 3.26873 18.0566 2.95691 17.8566 2.71379C17.6565 2.4705 17.3791 2.3124 17.0757 2.27127L17.0757 2.27127L12.6153 1.66884L12.6153 1.66883C12.4386 1.645 12.2593 1.66174 12.0893 1.71782C11.9194 1.77389 11.7631 1.86789 11.6305 1.99312C11.498 2.11833 11.3923 2.27189 11.3201 2.44336C11.2478 2.61482 11.2106 2.80053 11.2105 2.9882V2.98821L11.2105 4.19223C11.2105 4.19224 11.2105 4.19225 11.2105 4.19225C11.2105 4.366 11.2424 4.5382 11.3046 4.69907C11.3667 4.85995 11.458 5.00656 11.5736 5.13035C11.6891 5.25416 11.8267 5.35276 11.9786 5.42015C12.1306 5.48755 12.2937 5.52232 12.4586 5.52226ZM12.4573 2.66901L12.4575 2.66901C12.4696 2.66891 12.4818 2.66969 12.4938 2.67134L12.494 2.67136L16.954 3.27416C16.954 3.27416 16.9541 3.27417 16.9541 3.27417C17.0224 3.28364 17.0866 3.31961 17.1341 3.37748C17.1818 3.43555 17.2089 3.51135 17.2089 3.59084C17.2089 3.67033 17.1818 3.74613 17.1341 3.8042C17.0866 3.86207 17.0224 3.89804 16.9541 3.90751C16.9541 3.90751 16.954 3.90752 16.954 3.90753L12.494 4.5087L12.4938 4.50873C12.4538 4.5142 12.4132 4.51052 12.3745 4.4978C12.3358 4.48507 12.2995 4.46347 12.2683 4.43397C12.237 4.40446 12.2115 4.36772 12.194 4.32597C12.1764 4.28421 12.1672 4.23864 12.1673 4.19238V4.19226L12.1673 2.98829C12.1673 2.98827 12.1673 2.98825 12.1673 2.98823C12.1674 2.90174 12.1995 2.82005 12.2546 2.76068C12.3095 2.70153 12.3826 2.66948 12.4573 2.66901Z" fill="black" stroke="black" stroke-width="0.2"/>
<path d="M11.8771 3.36294L11.9294 3.27776C11.8747 3.24412 11.814 3.22215 11.7508 3.21341L11.7508 3.21326L11.7454 3.21281C10.4449 3.10477 9.14543 3.42923 8.02438 4.1411C6.90372 4.85272 6.01628 5.91655 5.48189 7.1866C5.44832 7.26271 5.4333 7.34628 5.43793 7.42975C5.44257 7.51353 5.46691 7.5951 5.50911 7.6669C5.55133 7.73872 5.61027 7.79874 5.68103 7.84076C5.75186 7.88281 5.83198 7.90529 5.91388 7.90558H5.91416C6.00623 7.90564 6.09586 7.87768 6.17261 7.82574C6.24928 7.77386 6.30969 7.70039 6.34771 7.61461L6.34777 7.61464L6.34904 7.61148C6.78823 6.52222 7.53496 5.60939 8.48274 5.00078C9.42975 4.39265 10.5301 4.11857 11.6291 4.2162C11.6915 4.22447 11.7548 4.21965 11.8154 4.20208C11.8768 4.18427 11.9339 4.15381 11.9835 4.11277C12.0332 4.07176 12.0744 4.02101 12.1051 3.96369C12.1358 3.90638 12.1555 3.84344 12.1633 3.77848C12.1711 3.71352 12.1669 3.64752 12.1509 3.58417C12.1349 3.52082 12.1073 3.46111 12.0695 3.40852C12.0316 3.35592 11.9841 3.31138 11.9294 3.27775L11.8771 3.36294ZM11.8771 3.36294C11.9202 3.38945 11.958 3.42479 11.9883 3.46695L5.5737 7.22625C6.10048 5.9738 6.97499 4.92592 8.07799 4.22552C9.18099 3.52511 10.4588 3.20627 11.7371 3.31247C11.7864 3.31928 11.834 3.33643 11.8771 3.36294Z" fill="black" stroke="black" stroke-width="0.2"/>
<path d="M4.07664 13.8968H4.07688C4.2969 13.8967 4.51539 13.859 4.72412 13.7853C4.98014 13.6953 5.21655 13.552 5.41985 13.3641C5.62312 13.1762 5.78927 12.9474 5.90906 12.6911C5.90907 12.6911 5.90909 12.6911 5.9091 12.691L7.19548 9.95599L7.19551 9.95592C7.43828 9.43878 7.47948 8.84019 7.31048 8.29094C7.14145 7.7416 6.77523 7.28446 6.2899 7.0217L6.28969 7.02159C5.80355 6.7599 5.23959 6.71528 4.72228 6.89811C4.20524 7.08084 3.7791 7.47501 3.53536 7.99171L3.53532 7.9918L2.24883 10.7259L2.24882 10.7259C2.0923 11.0587 2.01801 11.4286 2.03268 11.8003C2.04734 12.1721 2.15051 12.534 2.33281 12.8517C2.51513 13.1695 2.77075 13.4328 3.07597 13.6161C3.38125 13.7993 3.72574 13.8961 4.07664 13.8968ZM5.05451 12.2413L5.05449 12.2413C4.92289 12.5212 4.69396 12.7315 4.42005 12.8284C4.14642 12.9251 3.8482 12.9016 3.59024 12.7624C3.33196 12.623 3.13395 12.3782 3.04209 12.0799C2.9502 11.7816 2.97278 11.4563 3.10446 11.1762L4.39088 8.44193C4.48308 8.24662 4.62362 8.08353 4.79601 7.97011C4.96133 7.86134 5.14995 7.80216 5.34249 7.79775L5.34423 7.79868L5.36929 7.7987C5.55415 7.79885 5.7363 7.84968 5.89847 7.9469C6.0607 8.04416 6.19778 8.18478 6.29606 8.35602C6.39435 8.52729 6.45034 8.72315 6.45824 8.92493C6.46614 9.12671 6.42567 9.32705 6.34101 9.50676L6.34099 9.5068L5.05451 12.2413Z" fill="black" stroke="black" stroke-width="0.2"/>
<path d="M18.9272 2.45137L18.9257 2.45139C18.8096 2.4515 18.6984 2.4071 18.612 2.32799C18.5257 2.24904 18.4698 2.14082 18.4525 2.02349C18.4353 1.90618 18.4577 1.78575 18.5163 1.68361C18.5751 1.58139 18.667 1.50336 18.7768 1.46551L18.7767 1.46553L18.8094 1.56002L18.7769 1.46548L18.9272 2.45137ZM18.9272 2.45137C18.9774 2.45056 19.0271 2.44152 19.0745 2.42466L18.9272 2.45137Z" fill="black" stroke="black" stroke-width="0.2"/>
<path d="M20.9334 6.4585V6.4708L21.0332 6.471C21.1493 6.47124 21.2606 6.42694 21.3471 6.34786C21.4335 6.26895 21.4895 6.16072 21.5068 6.04335C21.5241 5.92601 21.5018 5.80553 21.4431 5.70334C21.3844 5.60108 21.2925 5.52302 21.1826 5.48514L21.1826 5.48515L21.1499 5.57965L21.1825 5.48511L20.9334 6.4585ZM20.884 6.44439C20.8841 6.4444 20.8841 6.4444 20.8841 6.44441L20.884 6.44439Z" fill="black" stroke="black" stroke-width="0.2"/>
<path d="M19.6987 4.09538H22.65C22.7792 4.09538 22.9016 4.04033 22.9907 3.94487C23.0796 3.84965 23.1284 3.72188 23.1284 3.58998C23.1284 3.45807 23.0796 3.33031 22.9907 3.23508C22.9016 3.13962 22.7792 3.08457 22.65 3.08457H19.6987C19.5695 3.08457 19.4471 3.13962 19.358 3.23508C19.2692 3.33031 19.2203 3.45807 19.2203 3.58998C19.2203 3.72188 19.2692 3.84965 19.358 3.94487C19.4471 4.04033 19.5695 4.09538 19.6987 4.09538Z" fill="black" stroke="black" stroke-width="0.2"/>
<path d="M18.1761 21.7716L18.1759 21.7716C18.0752 21.7716 17.9747 21.7687 17.8736 21.7634L17.8728 21.7634C17.8004 21.7589 17.7293 21.7544 17.6539 21.7456C17.3335 21.7204 17.0164 21.6603 16.7074 21.5665C14.398 20.902 9.14524 19.2995 9.0926 19.2833L9.09207 19.2831C8.69284 19.1576 8.28244 19.0775 7.86767 19.0442L7.85989 19.0435L7.85994 19.0432C7.3705 18.9652 6.87031 19.0572 6.43249 19.3065C6.1551 19.5057 5.9168 19.7621 5.73162 20.0612C5.54552 20.3618 5.41689 20.6994 5.35348 21.0544L5.35329 21.0554L5.35328 21.0554C5.32876 21.1847 5.25706 21.3001 5.15155 21.3752C5.04574 21.4505 4.91516 21.4784 4.78889 21.4513C4.66283 21.4242 4.55399 21.3452 4.48476 21.2341C4.41565 21.1233 4.39084 20.9887 4.41469 20.8593L4.51304 20.8775M18.1761 21.7716L17.9045 20.753C17.8543 20.7497 17.8035 20.7464 17.7388 20.7388L17.7389 20.7387L17.7347 20.7384C17.4731 20.7185 17.2141 20.6697 16.9618 20.5925L16.9618 20.5925L16.9602 20.592C14.7935 19.9683 10.0218 18.5148 9.4187 18.3311C9.38236 18.32 9.36116 18.3135 9.35656 18.3121C8.89402 18.1672 8.41854 18.0744 7.93788 18.0354C7.24405 17.942 6.54075 18.0858 5.92858 18.4456L5.9284 18.4453L5.92151 18.4501C5.53282 18.725 5.1996 19.0798 4.94102 19.4935C4.68245 19.9072 4.5036 20.3716 4.41466 20.8595L4.51304 20.8775M18.1761 21.7716C19.3865 21.769 20.5682 21.3805 21.5706 20.6565C22.5727 19.9327 23.3502 18.9066 23.8051 17.7095L18.1761 21.7716ZM4.51304 20.8775C4.59975 20.4017 4.77408 19.9493 5.02582 19.5465C5.27757 19.1438 5.60169 18.7988 5.97925 18.5318L6.37844 19.2222C6.08824 19.4297 5.83946 19.697 5.6466 20.0086C5.45373 20.3201 5.32063 20.6696 5.25504 21.0368C5.23508 21.142 5.17702 21.2344 5.09357 21.2937C5.01012 21.3531 4.90811 21.3746 4.80989 21.3535C4.71167 21.3324 4.62526 21.2705 4.56961 21.1812C4.51397 21.092 4.49362 20.9827 4.51304 20.8775ZM20.9248 19.8963C20.0301 20.5085 18.9811 20.8079 17.9221 20.7541L23.7047 17.1575C23.66 17.1098 23.6065 17.0716 23.5471 17.0457C23.4876 17.0198 23.4237 17.0067 23.3591 17.0075C23.2944 17.0082 23.2308 17.0228 23.1719 17.0501C23.1131 17.0774 23.0604 17.1168 23.0168 17.1655L23.0168 17.1655C22.9734 17.2141 22.9397 17.271 22.9174 17.3328C22.5161 18.3887 21.8195 19.284 20.9248 19.8963Z" fill="black" stroke="black" stroke-width="0.2"/>
</svg>
