<svg width="30" height="30" viewBox="0 0 30 30" fill="none" xmlns="http://www.w3.org/2000/svg">
<path d="M26.0859 13.7578H23.1328V11.918C23.1328 10.8926 22.3008 10.0605 21.2754 10.0605H19.8457V8.69531C19.8457 7.59961 18.9551 6.70312 17.8535 6.70312H16.8047V4.45898C16.8047 4.20703 17.0098 4.00195 17.2676 4.00195H19.3359C20.3965 4.00195 21.3047 3.2168 21.4102 2.20898C21.5332 1.01367 20.5957 0 19.418 0H10.6758C9.52148 0 8.60742 0.966797 8.67773 2.12695C8.74219 3.18164 9.65039 4.00195 10.752 4.00195H12.832C13.084 4.00195 13.2891 4.20703 13.2891 4.45898V6.69727H12.2402C11.1445 6.69727 10.248 7.58789 10.248 8.68945V10.0547H8.81836C7.79297 10.0547 6.96094 10.8867 6.96094 11.9121V25.1602H6.42773C5.60742 25.1602 4.94531 24.498 4.94531 23.6777V12.1934C4.94531 10.6992 3.73242 9.48633 2.23828 9.48633H1.2832C0.943359 9.48633 0.673828 9.76172 0.673828 10.0957C0.673828 10.4297 0.949219 10.7051 1.2832 10.7051H2.23828C3.05859 10.7051 3.7207 11.3672 3.7207 12.1875V23.6777C3.7207 25.1719 4.93359 26.3848 6.42773 26.3848H6.96094V27.5098C6.96094 28.8809 8.07422 29.9941 9.43945 29.9941H20.6484C22.0137 29.9941 23.127 28.8809 23.127 27.5098V26.291H26.0801C27.8672 26.291 29.3262 24.8379 29.3262 23.0449V17.0039C29.332 15.2168 27.873 13.7578 26.0859 13.7578ZM12.8262 2.77734H10.7461C10.3008 2.77734 9.91992 2.44922 9.89648 2.05078C9.86719 1.58789 10.2246 1.22461 10.6699 1.22461H19.4121C19.8633 1.22461 20.2324 1.61133 20.1855 2.08594C20.1445 2.47266 19.7695 2.77734 19.3301 2.77734H17.2559C16.3242 2.77734 15.5684 3.5332 15.5684 4.45898V6.69727H14.502V4.45898C14.5137 3.5332 13.7578 2.77734 12.8262 2.77734ZM11.4727 8.69531C11.4727 8.27344 11.8184 7.92773 12.2402 7.92773H17.8535C18.2754 7.92773 18.6211 8.27344 18.6211 8.69531V10.0605H11.4727V8.69531ZM21.9082 27.5215C21.9082 28.2129 21.3457 28.7812 20.6543 28.7812H9.43945C8.74805 28.7812 8.18555 28.2188 8.18555 27.5215V11.918C8.18555 11.5664 8.47266 11.2852 8.81836 11.2852H21.2754C21.627 11.2852 21.9082 11.5664 21.9082 11.918V27.5215ZM28.1074 23.0566C28.1074 24.1699 27.1992 25.0781 26.0859 25.0781H23.1328V14.9824H26.0859C27.1992 14.9824 28.1074 15.8906 28.1074 17.0039V23.0566Z" fill="black"/>
<path d="M19.9277 19.418H18.1348C18.0762 18.7031 17.9062 18.0469 17.6602 17.4844L19.4121 15.7324C19.6523 15.4922 19.6523 15.1055 19.4121 14.8652C19.1719 14.625 18.7852 14.625 18.5449 14.8652L16.9922 16.4121C16.4648 15.791 15.791 15.4219 15.0469 15.4219C14.3027 15.4219 13.6289 15.791 13.1016 16.4121L11.5547 14.8652C11.3145 14.625 10.9277 14.625 10.6875 14.8652C10.4473 15.1055 10.4473 15.4922 10.6875 15.7324L12.4395 17.4844C12.1875 18.0527 12.0234 18.709 11.9648 19.418H10.166C9.82617 19.418 9.55664 19.6934 9.55664 20.0273C9.55664 20.3613 9.83203 20.6367 10.166 20.6367H11.9648C11.9883 20.9238 12.0293 21.2051 12.0879 21.4688L10.6875 22.8691C10.5703 22.9863 10.5059 23.1387 10.5059 23.3027V24.7559C10.5059 25.0957 10.7812 25.3652 11.1152 25.3652C11.4492 25.3652 11.7246 25.0898 11.7246 24.7559V23.5547L12.5215 22.7578C13.084 23.9004 13.9922 24.6328 15.041 24.6328C16.0898 24.6328 16.998 23.9004 17.5605 22.7578L18.3574 23.5547V24.7559C18.3574 25.0957 18.6328 25.3652 18.9668 25.3652C19.3008 25.3652 19.5762 25.0898 19.5762 24.7559V23.3027C19.5762 23.1387 19.5117 22.9863 19.3945 22.8691L17.9941 21.4688C18.0527 21.1992 18.0938 20.9238 18.1172 20.6367H19.9102C20.25 20.6367 20.5195 20.3613 20.5195 20.0273C20.5195 19.6934 20.2617 19.418 19.9277 19.418ZM15.0469 23.4141C12.5742 23.4141 12.5566 16.6465 15.0469 16.6465C17.5605 16.6465 17.502 23.4141 15.0469 23.4141Z" fill="black"/>
</svg>
