<svg width="44" height="44" viewBox="0 0 44 44" fill="none" xmlns="http://www.w3.org/2000/svg">
<mask id="mask0_734_1585" style="mask-type:luminance" maskUnits="userSpaceOnUse" x="0" y="0" width="44" height="44">
<path d="M0 0H44V44H0V0Z" fill="white"/>
</mask>
<g mask="url(#mask0_734_1585)">
<path d="M41.5545 24.7029V19.2973C41.5545 18.8583 41.1986 18.5024 40.7595 18.5024H37.785C37.3728 16.6289 36.6361 14.8773 35.6357 13.3099L37.738 11.2077C38.0484 10.8972 38.0484 10.3939 37.738 10.0834L33.9156 6.26106C33.6051 5.95064 33.1019 5.95064 32.7914 6.26106L30.6891 8.36337C29.1217 7.36293 27.3701 6.62626 25.4967 6.214V3.23949C25.4967 2.80045 25.1408 2.44455 24.7017 2.44455H19.2961C18.8571 2.44455 18.5012 2.80045 18.5012 3.23949V6.21838C16.6304 6.63262 14.8813 7.37025 13.3165 8.37116L11.2065 6.26106C10.896 5.95064 10.3927 5.95064 10.0822 6.26106L6.25987 10.0834C5.94945 10.3939 5.94945 10.8972 6.25987 11.2077L8.37458 13.3224C7.37812 14.8865 6.64423 16.6339 6.233 18.5024H3.2383C2.79925 18.5024 2.44336 18.8583 2.44336 19.2973V24.7029C2.44336 25.142 2.79925 25.4978 3.2383 25.4978H6.23738C6.65051 27.3637 7.38551 29.1084 8.38237 30.6701L6.25987 32.7925C5.94945 33.1031 5.94945 33.6063 6.25987 33.9168L10.0822 37.7392C10.3927 38.0496 10.896 38.0496 11.2065 37.7392L13.3289 35.6167C14.8906 36.6135 16.6354 37.3485 18.5012 37.7616V40.7607C18.5012 41.1998 18.8571 41.5557 19.2961 41.5557H24.7017C25.1408 41.5557 25.4967 41.1998 25.4967 40.7607V37.766C27.3652 37.3548 29.1125 36.6209 30.6767 35.6244L32.7914 37.7392C33.1019 38.0496 33.6051 38.0496 33.9156 37.7392L37.738 33.9168C38.0484 33.6063 38.0484 33.1031 37.738 32.7925L35.6279 30.6825C36.6288 29.1177 37.3664 27.3686 37.7806 25.4978H40.7595C41.1986 25.4978 41.5545 25.142 41.5545 24.7029Z" stroke="black" stroke-width="2" stroke-miterlimit="10" stroke-linecap="round" stroke-linejoin="round"/>
<path d="M31.6854 17.1519C33.7052 21.1953 33.0293 26.2419 29.6575 29.6137C25.4403 33.8309 18.6028 33.8309 14.3856 29.6137C10.1684 25.3965 10.1684 18.559 14.3856 14.3418C17.8843 10.843 23.1866 10.2469 27.2998 12.5536" stroke="black" stroke-width="2" stroke-miterlimit="10" stroke-linecap="round" stroke-linejoin="round"/>
<path d="M25.315 16.9225L20.9005 21.337L18.727 19.1636L15.8789 22.0117L18.0523 24.1852L20.9005 27.0332L28.163 19.7706L25.315 16.9225Z" stroke="black" stroke-width="2" stroke-miterlimit="10" stroke-linecap="round" stroke-linejoin="round"/>
</g>
</svg>
