<svg clip-rule="evenodd" fill-rule="evenodd" height="512" stroke-linejoin="round" stroke-miterlimit="2" viewBox="0 0 48 48" width="512" xmlns="http://www.w3.org/2000/svg"><g transform="translate(-336 -336)"><g id="Icon"><path d="m369.292 370.707c-.187.391-.292.83-.292 1.293v3.971c0 .791.313 1.551.871 2.113 0 0 4 4.029 4 4.029.856.863 2.148 1.124 3.272.661s1.857-1.559 1.857-2.774v-1h1c1.213 0 2.307-.731 2.772-1.852.464-1.121.207-2.411-.651-3.269 0 0-4-4-4-4-.562-.563-1.325-.879-2.121-.879h-4c-.463 0-.902.105-1.293.292l-10-9.999c-.39-.39-1.024-.39-1.414 0s-.39 1.024 0 1.414zm7.708 9.293c0 .405-.244.77-.619.925-.375.154-.805.067-1.091-.221 0 0-4-4.029-4-4.029-.186-.187-.29-.441-.29-.704v-3.971c0-.552.448-1 1-1h4c.265 0 .52.105.707.293 0 0 4 4 4 4 .286.286.372.716.217 1.09-.155.373-.52.617-.924.617h-2c-.266 0-.52.106-.708.294-.187.188-.293.442-.292.708z"/><path d="m367.663 379.556c-2.374.932-4.959 1.444-7.663 1.444-11.59 0-21-9.41-21-21s9.41-21 21-21 21 9.41 21 21c0 2.697-.509 5.276-1.437 7.644-.201.514.053 1.095.567 1.296s1.094-.052 1.295-.566c1.017-2.595 1.575-5.42 1.575-8.374 0-12.694-10.306-23-23-23s-23 10.306-23 23 10.306 23 23 23c2.962 0 5.793-.561 8.394-1.583.514-.201.767-.782.566-1.296-.202-.514-.783-.767-1.297-.565z"/><path d="m365.571 371.748c-1.689.803-3.578 1.252-5.571 1.252-7.175 0-13-5.825-13-13s5.825-13 13-13 13 5.825 13 13c0 1.993-.449 3.882-1.252 5.57-.237.499-.025 1.096.473 1.333.499.237 1.096.025 1.333-.474.927-1.949 1.446-4.129 1.446-6.429 0-8.279-6.721-15-15-15s-15 6.721-15 15 6.721 15 15 15c2.3 0 4.48-.519 6.429-1.446.499-.237.711-.834.474-1.333-.237-.498-.834-.71-1.332-.473z"/><path d="m360.279 364.992c-.093.005-.186.008-.279.008-2.76 0-5-2.24-5-5s2.24-5 5-5 5 2.24 5 5c0 .093-.003.186-.008.279-.03.551.393 1.023.944 1.053.551.031 1.023-.392 1.053-.943.007-.129.011-.259.011-.389 0-3.863-3.137-7-7-7s-7 3.137-7 7 3.137 7 7 7c.13 0 .26-.004.389-.011.551-.03.974-.502.944-1.053-.031-.551-.503-.974-1.054-.944z"/></g></g></svg>