<svg width="22" height="30" viewBox="0 0 22 30" fill="none" xmlns="http://www.w3.org/2000/svg">
<path d="M19.9418 17.5723H19.5316V7.17188H20.1223C20.4395 7.17188 20.691 6.89648 20.691 6.5625C20.691 6.22852 20.434 5.95312 20.1223 5.95312H19.5043C19.2145 2.61914 16.5949 0 13.4121 0H8.5832C5.40039 0 2.78633 2.61914 2.49648 5.94727H1.87852C1.56133 5.94727 1.30977 6.22266 1.30977 6.55664C1.30977 6.89062 1.5668 7.16602 1.87852 7.16602H2.46914V17.5664H2.05352C0.94336 17.5664 0.0410156 18.4863 0.0410156 19.623C0.0410156 20.7539 0.94336 21.6797 2.05352 21.6797H2.53477V29.3848C2.53477 29.7246 2.7918 29.9941 3.10352 29.9941C3.41523 29.9941 3.67227 29.7188 3.67227 29.3848V21.6797H5.03945V29.3848C5.03945 29.7246 5.29648 29.9941 5.6082 29.9941C5.91992 29.9941 6.17695 29.7188 6.17695 29.3848V27.5391L10.9949 24.8145L15.8129 27.5391V29.3848C15.8129 29.7246 16.0699 29.9941 16.3816 29.9941C16.6934 29.9941 16.9504 29.7188 16.9504 29.3848V21.6797H18.3066V29.3848C18.3066 29.7246 18.5637 29.9941 18.8754 29.9941C19.1871 29.9941 19.4441 29.7188 19.4441 29.3848V21.6797H19.9254C21.0355 21.6797 21.9379 20.7598 21.9379 19.623C21.9598 18.4922 21.052 17.5723 19.9418 17.5723ZM8.58867 1.22461H13.4176C15.966 1.22461 18.077 3.29297 18.3613 5.94727H3.65039C3.9293 3.29297 6.03476 1.22461 8.58867 1.22461ZM18.3887 7.17188V17.5664H3.61211V7.17188H18.3887ZM6.18242 26.1562V22.084L9.77539 24.1172L6.18242 26.1562ZM15.8184 26.1562L12.2254 24.123L15.8184 22.0898V26.1562ZM11.0004 23.4258L7.91602 21.6797H14.0848L11.0004 23.4258ZM19.9418 20.4551H2.05898C1.57773 20.4551 1.18945 20.0801 1.18945 19.623C1.18945 19.166 1.57773 18.791 2.05898 18.791H19.9473C20.4285 18.791 20.8168 19.166 20.8168 19.623C20.8168 20.0859 20.423 20.4551 19.9418 20.4551Z" fill="black"/>
<path d="M11.0004 15.9258C12.4004 15.9258 13.5379 14.707 13.5379 13.207C13.5379 11.8945 11.7988 9.50391 11.4488 9.03516C11.3395 8.88867 11.1754 8.80664 11.0004 8.80664C10.8254 8.80664 10.6613 8.88867 10.552 9.03516C10.202 9.50391 8.46289 11.8945 8.46289 13.207C8.46289 14.707 9.60039 15.9258 11.0004 15.9258ZM11.0004 10.4297C11.6785 11.4258 12.3949 12.6738 12.3949 13.207C12.3949 14.0273 11.7715 14.7012 11.0004 14.7012C10.2348 14.7012 9.60586 14.0332 9.60586 13.207C9.60586 12.6797 10.3223 11.4316 11.0004 10.4297Z" fill="black"/>
</svg>
