<svg width="40" height="40" viewBox="0 0 40 40" fill="none" xmlns="http://www.w3.org/2000/svg">
<path d="M0.85 20V20.15H1H2.46154H2.61154V20C2.61154 10.4148 10.4148 2.61154 20 2.61154H20.15V2.46154V1V0.85H20C9.43793 0.85 0.85 9.43793 0.85 20Z" fill="black" stroke="black" stroke-width="0.3"/>
<path d="M37.5385 19.85H37.3885V20C37.3885 29.5852 29.5852 37.3885 20 37.3885H19.85V37.5385V39V39.15H20C30.5621 39.15 39.15 30.5621 39.15 20V19.85H39H37.5385Z" fill="black" stroke="black" stroke-width="0.3"/>
<path d="M23.3154 1V0.85H23.1654H21.582H21.432V1V2.58333V2.73333H21.582H23.1654H23.3154V2.58333V1Z" fill="black" stroke="black" stroke-width="0.3"/>
<path d="M18.5654 37.4165V37.2665H18.4154H16.832H16.682V37.4165V38.9998V39.1498H16.832H18.4154H18.5654V38.9998V37.4165Z" fill="black" stroke="black" stroke-width="0.3"/>
<path d="M5.6 20C5.6 27.9417 12.0583 34.4 20 34.4C27.9417 34.4 34.4 27.9417 34.4 20C34.4 12.0583 27.9417 5.6 20 5.6C12.0583 5.6 5.6 12.0583 5.6 20ZM32.675 20C32.675 26.9923 26.9923 32.675 20 32.675C13.0077 32.675 7.325 26.9923 7.325 20C7.325 13.0077 13.0077 7.325 20 7.325C26.9923 7.325 32.675 13.0077 32.675 20Z" fill="black" stroke="black" stroke-width="0.3"/>
<path d="M26.2785 26.0052L26.2779 26.0059C24.6342 27.7252 22.4044 28.6716 20.0137 28.6716C15.2192 28.6716 11.3231 24.7843 11.3231 20.0019C11.3231 18.5932 11.656 17.2499 12.308 15.9996L12.3083 15.999C12.5544 15.5225 12.8437 15.0753 13.1686 14.672L13.2637 14.5539L13.1446 14.46L11.9879 13.5487L11.8702 13.456L11.7774 13.5735C11.3883 14.0661 11.037 14.6105 10.7382 15.1845C9.96047 16.6617 9.55703 18.3319 9.55703 20.0019C9.55703 25.7591 14.2511 30.4415 20.0211 30.4415C22.8979 30.4415 25.5818 29.3006 27.5625 27.2353C28.0413 26.7427 28.4674 26.1982 28.8335 25.6243L28.9142 25.4978L28.7877 25.4171L27.5426 24.6234L27.4162 24.5427L27.3355 24.6692C27.0316 25.1456 26.6769 25.5934 26.2785 26.0052Z" fill="black" stroke="black" stroke-width="0.3"/>
<path d="M30.1638 22.4049C30.3475 21.6223 30.443 20.8173 30.443 19.9973C30.443 14.243 25.8286 9.5585 20.1514 9.5585C18.7944 9.5585 17.4657 9.82299 16.2163 10.3522H16.2017L16.1735 10.3642C15.2469 10.7596 14.3723 11.2966 13.5716 11.9673L13.4579 12.0626L13.5519 12.1773L14.4792 13.3091L14.5755 13.4267L14.6918 13.3288C15.3617 12.7648 16.0878 12.3173 16.8557 11.9926C17.9021 11.5522 19.0123 11.3283 20.1514 11.3283C24.862 11.3283 28.6942 15.213 28.6942 19.9973C28.6942 20.6766 28.6158 21.3488 28.4662 21.9994L28.4659 22.0004C28.3665 22.4473 28.2244 22.8941 28.0398 23.3263L27.981 23.4639L28.1185 23.5231L29.4514 24.0963L29.59 24.1559L29.6488 24.0169C29.8699 23.4935 30.039 22.9487 30.1638 22.4049ZM30.1638 22.4049C30.1638 22.4051 30.1638 22.4052 30.1637 22.4054L30.0177 22.3711L30.1639 22.4046C30.1639 22.4047 30.1638 22.4048 30.1638 22.4049Z" fill="black" stroke="black" stroke-width="0.3"/>
</svg>
