<svg width="32" height="28" viewBox="0 0 32 28" fill="none" xmlns="http://www.w3.org/2000/svg">
<path d="M14.0332 14.4688V17.2527C14.0338 18.3392 14.3341 19.4057 14.9029 20.342C15.4718 21.2783 16.2886 22.0503 17.2688 22.5782L18.6368 23.3146C18.7087 23.3533 18.7896 23.3737 18.8719 23.3737C18.9542 23.3737 19.0351 23.3533 19.1071 23.3146L20.475 22.5782C21.4552 22.0503 22.272 21.2783 22.8409 20.342C23.4098 19.4057 23.71 18.3392 23.7106 17.2527V14.4688C23.7106 14.3781 23.6835 14.2894 23.6325 14.2133C23.5815 14.1373 23.5088 14.0772 23.4232 14.0404L19.0684 12.1654C19.0065 12.1388 18.9396 12.125 18.8719 12.125C18.8042 12.125 18.7373 12.1388 18.6755 12.1654L14.3206 14.0404C14.2351 14.0772 14.1624 14.1373 14.1114 14.2133C14.0603 14.2894 14.0332 14.3781 14.0332 14.4688ZM15.0009 14.7735L18.8719 13.1066L22.7429 14.7735V17.2527C22.7425 18.1722 22.4886 19.0749 22.0072 19.8674C21.5259 20.6599 20.8347 21.3134 20.0051 21.7602L18.8719 22.3701L17.7387 21.7607C16.9091 21.3138 16.2178 20.6603 15.7365 19.8677C15.2551 19.0751 15.0012 18.1723 15.0009 17.2527V14.7735Z" fill="black"/>
<path d="M18.3855 19.1566C18.5138 19.1566 18.6369 19.1072 18.7276 19.0193L21.147 16.6755L20.4628 16.0127L18.3855 18.025L17.276 16.9502L16.5918 17.613L18.0434 19.0193C18.1341 19.1072 18.2572 19.1566 18.3855 19.1566Z" fill="black"/>
<path d="M6.22555 8.84375C6.76002 8.84375 7.1933 8.42402 7.1933 7.90625C7.1933 7.38848 6.76002 6.96875 6.22555 6.96875C5.69109 6.96875 5.25781 7.38848 5.25781 7.90625C5.25781 8.42402 5.69109 8.84375 6.22555 8.84375Z" fill="black"/>
<path d="M31.4239 10.7956L17.0066 0.322801C16.7198 0.11349 16.3571 -0.000843659 15.9827 4.68722e-06C15.6083 0.000853033 15.2463 0.116829 14.9607 0.327438L8.17299 5.28337H5.32789C4.62137 5.28337 3.94378 5.52759 3.4442 5.9623C2.94461 6.39702 2.66395 6.98662 2.66395 7.60139V10.383C2.24003 10.383 1.83348 10.5296 1.53373 10.7904C1.23398 11.0512 1.06558 11.405 1.06558 11.7738C1.06558 12.1427 1.23398 12.4965 1.53373 12.7573C1.83348 13.0181 2.24003 13.1646 2.66395 13.1646H2.70124C2.78479 13.7313 3.0171 14.2735 3.3802 14.7495C3.7433 15.2254 4.22744 15.6222 4.7951 15.9092V17.0357L2.21107 18.0371C1.55308 18.2924 0.994124 18.7079 0.601745 19.2337C0.209367 19.7594 0.000365537 20.3727 0 20.9996V27.5364C0 27.6593 0.056133 27.7773 0.15605 27.8642C0.255968 27.9512 0.391485 28 0.532789 28H25.5739C25.9974 27.9989 26.4032 27.852 26.7027 27.5914C27.0022 27.3308 27.171 26.9777 27.1722 26.6092V11.3149L29.3727 12.9282C29.6609 13.1382 30.025 13.2532 30.4009 13.2527C30.6226 13.2528 30.8418 13.2128 31.0447 13.1352C31.2476 13.0576 31.4298 12.9441 31.5796 12.802C31.7294 12.6599 31.8436 12.4922 31.9149 12.3096C31.9863 12.127 32.0132 11.9335 31.994 11.7414C31.9758 11.5587 31.916 11.381 31.8181 11.2187C31.7203 11.0563 31.5863 10.9125 31.4239 10.7956ZM2.66395 12.2374C2.52264 12.2374 2.38712 12.1886 2.28721 12.1017C2.18729 12.0147 2.13116 11.8968 2.13116 11.7738C2.13116 11.6509 2.18729 11.533 2.28721 11.446C2.38712 11.3591 2.52264 11.3102 2.66395 11.3102V12.2374ZM3.72952 7.60139C3.73079 7.23287 3.89959 6.87975 4.19907 6.61916C4.49855 6.35857 4.90437 6.21168 5.32789 6.21058H8.52463C8.94815 6.21168 9.35397 6.35857 9.65345 6.61916C9.95292 6.87975 10.1217 7.23287 10.123 7.60139V9.91942H3.72952V7.60139ZM10.0324 10.8466C9.92126 11.1174 9.71681 11.3517 9.44698 11.5176C9.17714 11.6836 8.85505 11.773 8.52463 11.7738H5.32789C4.99747 11.773 4.67538 11.6836 4.40554 11.5176C4.1357 11.3517 3.93126 11.1174 3.8201 10.8466H10.0324ZM3.72952 12.701V12.2235C4.1872 12.5318 4.74916 12.6996 5.32789 12.701H8.52463C9.10336 12.6996 9.66532 12.5318 10.123 12.2235V12.701C10.123 13.4388 9.7862 14.1463 9.18669 14.668C8.58719 15.1896 7.77409 15.4827 6.92626 15.4827C6.07843 15.4827 5.26533 15.1896 4.66583 14.668C4.06632 14.1463 3.72952 13.4388 3.72952 12.701ZM6.92626 17.3139L5.86068 17.0033V16.2893C6.55906 16.4501 7.29346 16.4501 7.99184 16.2893V17.0033L6.92626 17.3139ZM7.62421 19.0663L7.17134 19.6551H6.68118L6.2283 19.0663L6.92626 18.4544L7.62421 19.0663ZM8.49799 17.8331L9.25987 18.1299L8.88692 18.8531L7.91192 18.0047L8.49799 17.8331ZM5.35453 17.8331L5.9406 18.0047L4.96559 18.8531L4.59264 18.1299L5.35453 17.8331ZM3.19673 27.0728V20.5823H2.13116V27.0728H1.06558V20.9996C1.06611 20.5512 1.21582 20.1125 1.49662 19.7366C1.77741 19.3606 2.17729 19.0634 2.64796 18.8809L3.62297 18.5054L4.31026 19.8452C4.3455 19.9134 4.39934 19.9732 4.46711 20.0192C4.53489 20.0653 4.61456 20.0963 4.6992 20.1094C4.73082 20.1148 4.7629 20.1179 4.7951 20.1187C4.93664 20.1191 5.07261 20.0708 5.17338 19.9843L5.45576 19.7339L5.8447 20.2393L5.32789 25.6449C5.31718 25.7485 5.34929 25.8521 5.41847 25.937L6.28691 27.0728H3.19673ZM6.92626 26.2383L6.40945 25.5614L6.88364 20.5823H6.96888L7.44306 25.5614L6.92626 26.2383ZM12.7869 27.0728H11.7214V20.5823H10.6558V27.0728H7.56561L8.43405 25.937C8.50323 25.8521 8.53534 25.7485 8.52463 25.6449L8.00782 20.2393L8.39676 19.7339L8.67914 19.9843C8.77991 20.0708 8.91588 20.1191 9.05742 20.1187C9.08962 20.1179 9.1217 20.1148 9.15332 20.1094C9.23796 20.0963 9.31763 20.0653 9.3854 20.0192C9.45318 19.9732 9.50702 19.9134 9.54225 19.8452L10.2296 18.5054L11.2046 18.8809C11.6752 19.0634 12.0751 19.3606 12.3559 19.7366C12.6367 20.1125 12.7864 20.5512 12.7869 20.9996V27.0728ZM26.1067 26.6092C26.1067 26.7321 26.0505 26.8501 25.9506 26.937C25.8507 27.0239 25.7152 27.0728 25.5739 27.0728H13.8525V20.9996C13.8522 20.3727 13.6432 19.7594 13.2508 19.2337C12.8584 18.7079 12.2994 18.2924 11.6414 18.0371L9.05742 17.0357V15.9092C9.62508 15.6222 10.1092 15.2254 10.4723 14.7495C10.8354 14.2735 11.0677 13.7313 11.1513 13.1646H11.1886C11.6125 13.1646 12.019 13.0181 12.3188 12.7573C12.6185 12.4965 12.7869 12.1427 12.7869 11.7738C12.7869 11.405 12.6185 11.0512 12.3188 10.7904C12.019 10.5296 11.6125 10.383 11.1886 10.383V7.60139C11.1866 7.32051 11.1252 7.04234 11.0074 6.78081L15.9837 3.10907L26.1067 10.5314V26.6092ZM11.1886 12.2374V11.3102C11.3299 11.3102 11.4654 11.3591 11.5653 11.446C11.6652 11.533 11.7214 11.6509 11.7214 11.7738C11.7214 11.8968 11.6652 12.0147 11.5653 12.1017C11.4654 12.1886 11.3299 12.2374 11.1886 12.2374ZM30.8112 12.1586C30.7198 12.2535 30.5889 12.3131 30.4472 12.3244C30.3055 12.3357 30.1644 12.2978 30.0546 12.2189L16.3247 2.1494C16.2292 2.07766 16.1072 2.03818 15.981 2.03818C15.8548 2.03818 15.7329 2.07766 15.6374 2.1494L10.432 5.98805C10.1879 5.76896 9.89636 5.59406 9.57422 5.47345L15.648 1.03675C15.7426 0.967118 15.8625 0.928907 15.9863 0.928907C16.1102 0.928907 16.2301 0.967118 16.3247 1.03675L30.7419 11.5096C30.7956 11.5487 30.8397 11.5967 30.8717 11.6508C30.9038 11.705 30.923 11.7641 30.9284 11.8248C30.9362 11.8845 30.9299 11.9449 30.9097 12.0023C30.8895 12.0598 30.856 12.113 30.8112 12.1586Z" fill="black"/>
</svg>
