<svg width="44" height="36" viewBox="0 0 44 36" fill="none" xmlns="http://www.w3.org/2000/svg">
<path d="M43.5 23.3068C43.5004 22.8357 43.4067 22.3691 43.2245 21.9341C43.0422 21.499 42.7749 21.1041 42.438 20.7721L40.0836 18.4362C39.5283 17.889 38.8087 17.5359 38.0334 17.4301C37.2581 17.3243 36.4691 17.4716 35.7856 17.8497L34.1425 16.2195C34.2927 15.5241 34.1875 14.7984 33.8458 14.1732C33.5041 13.548 32.9484 13.0645 32.279 12.8101C32.4192 12.4439 32.4853 12.054 32.4736 11.6625C32.4618 11.271 32.3724 10.8856 32.2106 10.5284C32.0487 10.1712 31.8174 9.8491 31.5301 9.58055C31.2427 9.312 30.9049 9.10225 30.5358 8.96327C30.6723 8.62523 30.7404 8.26382 30.7362 7.89968C30.7355 7.11393 30.4222 6.3602 29.8645 5.80232C29.5637 5.50142 29.2016 5.2676 28.8025 5.11646C28.9354 4.7739 29.0033 4.40995 29.0029 4.04293C29.0038 3.65422 28.9262 3.26927 28.7748 2.91077C28.6234 2.55227 28.4012 2.22747 28.1213 1.95551C27.6874 1.53216 27.1343 1.24943 26.535 1.14471C25.9357 1.03999 25.3185 1.11822 24.765 1.36904C23.9881 0.60738 22.9751 0.127648 21.8896 0.00725101C20.7963 -0.0562852 19.7202 0.299595 18.884 1.00126C18.3248 0.727445 17.6937 0.632969 17.0779 0.730924C16.4622 0.828879 15.8925 1.11441 15.4476 1.54796C14.9282 2.06485 14.6241 2.75692 14.596 3.48628C13.8609 3.51419 13.1633 3.81586 12.6424 4.33119C12.1967 4.78257 11.907 5.36276 11.8152 5.98805C11.7233 6.61334 11.8341 7.25141 12.1314 7.81022C11.7581 7.95394 11.4174 8.17023 11.1295 8.44639C10.8484 8.71951 10.6255 9.04593 10.474 9.40623C10.3226 9.76653 10.2457 10.1534 10.2479 10.5437C10.256 11.0262 10.3796 11.4998 10.6086 11.9254C10.2326 12.064 9.89098 12.2809 9.6067 12.5616C9.10431 13.0518 8.7957 13.7045 8.73688 14.4012C8.67806 15.0979 8.87292 15.7924 9.2861 16.3587L8.2141 17.5117C7.5354 17.1452 6.75578 17.0053 5.99069 17.1128C5.2256 17.2202 4.51571 17.5692 3.96616 18.1082L1.56167 20.4341C1.22512 20.7674 0.95812 21.1633 0.775945 21.5991C0.59377 22.0349 0.5 22.502 0.5 22.9738C0.5 23.4456 0.59377 23.9128 0.775945 24.3486C0.95812 24.7843 1.22512 25.1802 1.56167 25.5135L10.7288 34.6087C11.0647 34.9426 11.4637 35.2075 11.903 35.3883C12.3422 35.569 12.8131 35.662 13.2886 35.662C13.7641 35.662 14.2349 35.569 14.6742 35.3883C15.1134 35.2075 15.5124 34.9426 15.8484 34.6087L18.2027 32.2827C18.746 31.7332 19.0968 31.0248 19.2032 30.2623C19.3097 29.4998 19.1661 28.7236 18.7939 28.0482L19.7957 27.0542C20.4822 26.3832 21.2416 25.7897 22.06 25.2849L25.2058 28.3464C24.8247 29.0246 24.6763 29.8074 24.7829 30.5766C24.8895 31.3459 25.2454 32.0598 25.7969 32.6107L28.1513 34.9467C28.4873 35.2806 28.8863 35.5455 29.3255 35.7262C29.7647 35.907 30.2356 36 30.7111 36C31.1866 36 31.6575 35.907 32.0967 35.7262C32.5359 35.5455 32.935 35.2806 33.2709 34.9467L42.438 25.8515C42.7757 25.5179 43.0434 25.1213 43.2256 24.6846C43.4079 24.2478 43.5012 23.7795 43.5 23.3068ZM21.7293 1.98533C22.2756 2.05201 22.7889 2.28066 23.2021 2.64137L21.9998 3.84412L20.477 2.33323C20.8478 2.09081 21.2856 1.96919 21.7293 1.98533ZM16.8703 2.97934C17.0544 2.79809 17.3022 2.69475 17.5616 2.69107C17.8244 2.69217 18.0763 2.7957 18.2629 2.97934L21.2685 5.96136L21.6291 6.31921C21.8068 6.50407 21.9059 6.74967 21.9059 7.00507C21.9059 7.26047 21.8068 7.50608 21.6291 7.69094C21.4423 7.8701 21.1927 7.97025 20.9328 7.97025C20.673 7.97025 20.4234 7.8701 20.2365 7.69094L16.8602 4.34113C16.678 4.15402 16.577 3.90348 16.5788 3.64329C16.5807 3.38311 16.6853 3.13402 16.8703 2.94952V2.97934ZM14.055 5.7725C14.2416 5.58886 14.4935 5.48534 14.7563 5.48424C14.8853 5.48275 15.0132 5.50758 15.1321 5.55716C15.251 5.60675 15.3584 5.68004 15.4476 5.7725L18.8239 9.12231C19.0066 9.305 19.1107 9.55086 19.1145 9.80818C19.1133 10.0689 19.009 10.3188 18.8239 10.504C18.6376 10.6802 18.39 10.7785 18.1326 10.7785C17.8752 10.7785 17.6277 10.6802 17.4413 10.504L15.4376 8.51597L14.055 7.17405C13.8699 6.98891 13.7656 6.73901 13.7645 6.47825C13.7596 6.34245 13.7829 6.20711 13.8329 6.0806C13.8829 5.95408 13.9585 5.83907 14.055 5.74268V5.7725ZM16.0587 13.2872C15.8719 13.4664 15.6223 13.5665 15.3624 13.5665C15.1026 13.5665 14.853 13.4664 14.6661 13.2872L12.6624 11.2992C12.4797 11.1165 12.3756 10.8706 12.3719 10.6133C12.373 10.3526 12.4773 10.1027 12.6624 9.91752C12.8492 9.73836 13.0989 9.63821 13.3587 9.63821C13.6185 9.63821 13.8682 9.73836 14.055 9.91752L16.0587 11.9055C16.2213 12.098 16.3045 12.3444 16.2915 12.5951C16.2784 12.8459 16.1702 13.0825 15.9886 13.2574L16.0587 13.2872ZM13.2535 16.0704C13.0667 16.2496 12.817 16.3497 12.5572 16.3497C12.2974 16.3497 12.0477 16.2496 11.8609 16.0704L11.1496 15.3746C11.0176 15.1833 10.9572 14.9522 10.9788 14.7213C11.0005 14.4905 11.1027 14.2744 11.268 14.1104C11.4332 13.9465 11.651 13.845 11.8837 13.8236C12.1164 13.8021 12.3493 13.862 12.5422 13.993L13.2535 14.6987C13.4171 14.8869 13.5037 15.129 13.4963 15.3774C13.4889 15.6258 13.388 15.8624 13.2134 16.0406L13.2535 16.0704ZM16.8202 30.901L14.4758 33.237C14.326 33.386 14.1479 33.5043 13.9519 33.585C13.756 33.6657 13.5459 33.7072 13.3337 33.7072C13.1215 33.7072 12.9114 33.6657 12.7154 33.585C12.5194 33.5043 12.3414 33.386 12.1915 33.237L2.96429 24.0722C2.81235 23.9244 2.69157 23.7481 2.60901 23.5536C2.52645 23.359 2.48375 23.1501 2.4834 22.939C2.49414 22.5235 2.66645 22.1281 2.96429 21.8357L5.30867 19.5097C5.61429 19.2104 6.02641 19.0426 6.45581 19.0426C6.88521 19.0426 7.29734 19.2104 7.60295 19.5097L16.7601 28.6049C17.0637 28.9038 17.2362 29.3096 17.24 29.734C17.2437 30.1584 17.0785 30.5671 16.7801 30.8712L16.8202 30.901ZM18.4332 25.6328L17.5315 26.5274L9.74696 18.804L10.7989 17.8099C11.2359 18.1049 11.7435 18.2803 12.2706 18.3185C12.7977 18.3566 13.3257 18.2562 13.8012 18.0274C14.2767 17.7986 14.683 17.4494 14.9791 17.0151C15.2752 16.5807 15.4506 16.0766 15.4877 15.5535C16.2211 15.5181 16.916 15.2176 17.4413 14.7086C17.9543 14.1874 18.2572 13.4979 18.2929 12.7703C19.0286 12.7364 19.725 12.4313 20.2457 11.9146C20.7664 11.398 21.074 10.707 21.1082 9.97716C21.8405 9.94971 22.535 9.64777 23.0518 9.13225C23.5459 8.63526 23.8487 7.98203 23.9073 7.28635C23.9658 6.59067 23.7766 5.89665 23.3724 5.3252L25.316 3.39682C25.5089 3.26589 25.7418 3.20597 25.9745 3.22742C26.2072 3.24887 26.425 3.35035 26.5902 3.51429C26.7555 3.67824 26.8578 3.89434 26.8794 4.12519C26.901 4.35605 26.8406 4.58715 26.7086 4.77849L25.6366 5.84208C25.45 6.02832 25.3453 6.28025 25.3453 6.54286C25.3453 6.80546 25.45 7.05739 25.6366 7.24363C25.7298 7.3368 25.8406 7.41075 25.9627 7.46121C26.0848 7.51168 26.2157 7.53766 26.348 7.53766C26.4802 7.53766 26.6112 7.51168 26.7333 7.46121C26.8553 7.41075 26.9661 7.3368 27.0593 7.24363C27.2456 7.06741 27.4932 6.9691 27.7506 6.9691C28.008 6.9691 28.2555 7.06741 28.4419 7.24363C28.6224 7.42898 28.7234 7.67668 28.7234 7.93447C28.7234 8.19225 28.6224 8.43996 28.4419 8.62531L27.3799 9.6889C27.2158 9.87905 27.13 10.1237 27.1397 10.3738C27.1495 10.624 27.254 10.8613 27.4324 11.0383C27.6108 11.2154 27.85 11.3191 28.1022 11.3287C28.3543 11.3384 28.6009 11.2533 28.7925 11.0904C28.9793 10.9113 29.229 10.8111 29.4888 10.8111C29.7486 10.8111 29.9983 10.9113 30.1851 11.0904C30.3657 11.2758 30.4666 11.5235 30.4666 11.7813C30.4666 12.0391 30.3657 12.2868 30.1851 12.4721L29.1131 13.4959C28.9265 13.6822 28.8218 13.9341 28.8218 14.1967C28.8218 14.4593 28.9265 14.7113 29.1131 14.8975C29.2063 14.9907 29.3171 15.0646 29.4392 15.1151C29.5612 15.1655 29.6922 15.1915 29.8245 15.1915C29.9567 15.1915 30.0877 15.1655 30.2097 15.1151C30.3318 15.0646 30.4426 14.9907 30.5358 14.8975C30.7286 14.7666 30.9616 14.7066 31.1942 14.7281C31.4269 14.7496 31.6447 14.851 31.81 15.015C31.9752 15.1789 32.0775 15.395 32.0991 15.6259C32.1207 15.8567 32.0603 16.0878 31.9284 16.2792L29.2133 18.9729C27.8455 20.3496 26.1708 21.3881 24.3242 22.0047C22.0997 22.7465 20.0724 23.9764 18.3931 25.603L18.4332 25.6328ZM24.9854 23.9231C27.1356 23.2123 29.0857 22.0065 30.676 20.4043L33.0204 17.959L34.2527 19.1022L26.5083 26.8256L23.9435 24.2809C24.2741 24.1418 24.6047 24.0026 24.9453 23.8933L24.9854 23.9231ZM41.0154 24.4797L31.8482 33.565C31.6984 33.7141 31.5204 33.8323 31.3244 33.913C31.1284 33.9937 30.9183 34.0353 30.7061 34.0353C30.4939 34.0353 30.2838 33.9937 30.0878 33.913C29.8918 33.8323 29.7138 33.7141 29.564 33.565L27.2196 31.239C27.0693 31.0903 26.9501 30.9137 26.8688 30.7193C26.7875 30.5248 26.7456 30.3164 26.7456 30.1058C26.7456 29.8953 26.7875 29.6868 26.8688 29.4924C26.9501 29.2979 27.0693 29.1213 27.2196 28.9727L36.3767 19.8775C36.5267 19.7269 36.7053 19.6074 36.9023 19.5258C37.0992 19.4442 37.3104 19.4022 37.5238 19.4022C37.7372 19.4022 37.9485 19.4442 38.1454 19.5258C38.3423 19.6074 38.521 19.7269 38.671 19.8775L41.0354 22.1736C41.1873 22.3214 41.3081 22.4977 41.3907 22.6923C41.4732 22.8868 41.5159 23.0957 41.5163 23.3068C41.5162 23.5194 41.4736 23.7299 41.391 23.9261C41.3085 24.1223 41.1876 24.3003 41.0354 24.4499L41.0154 24.4797Z" fill="black"/>
</svg>
