<svg width="24" height="24" viewBox="0 0 24 24" fill="none" xmlns="http://www.w3.org/2000/svg">
<g id="air-conditioner (2) 1" clip-path="url(#clip0_938_9838)">
<path id="Vector" d="M16.9746 14.6134C16.803 14.4626 16.5417 14.4795 16.3909 14.6511L16.4284 14.6841L16.9416 14.651M16.9746 14.6134L16.9416 14.651M16.9746 14.6134C16.9746 14.6134 16.9746 14.6134 16.9746 14.6134L16.9416 14.651M16.9746 14.6134C17.0313 14.6631 17.5257 15.1158 17.5478 15.8012C17.5623 16.2492 17.3732 16.669 16.9942 17.0481L16.9588 17.0128M16.9416 14.651C16.9963 14.699 17.4764 15.1394 17.4978 15.8028C17.5117 16.234 17.3304 16.6411 16.9588 17.0128M16.9588 17.0128L16.9942 17.0481C16.8468 17.1955 16.7537 17.3441 16.7106 17.4959C16.6676 17.6472 16.6732 17.8052 16.7288 17.9737L16.6814 17.9894M16.9588 17.0128L16.6814 17.9894M16.6814 17.9894L16.7288 17.9737C16.8158 18.2372 16.9941 18.4272 16.9964 18.4297L16.9964 18.4297L16.9606 18.4646L16.9963 18.4295C17.1566 18.5922 17.1547 18.8541 16.992 19.0145C16.9114 19.0938 16.8064 19.1335 16.7017 19.1335C16.5948 19.1335 16.488 19.0923 16.407 19.0102C16.407 19.0101 16.407 19.0101 16.407 19.0101L16.4426 18.975C16.4115 18.9435 16.135 18.6546 15.9907 18.2173C15.7882 17.604 15.9494 16.9936 16.4445 16.4985C16.6682 16.2747 16.7781 16.0485 16.7709 15.8263C16.7595 15.4745 16.4645 15.1999 16.4616 15.1973L16.6814 17.9894ZM12.3011 14.6511L12.3011 14.6511C12.4519 14.4795 12.7132 14.4626 12.8848 14.6134M12.3011 14.6511L12.3529 18.975L12.3173 19.0101C12.3173 19.0101 12.3173 19.0101 12.3173 19.0102C12.3982 19.0923 12.5051 19.1335 12.6119 19.1335C12.7167 19.1335 12.8217 19.0938 12.9022 19.0145C13.065 18.8541 13.0669 18.5922 12.9065 18.4295L12.8709 18.4646L12.9067 18.4297L12.9067 18.4297C12.9042 18.4271 12.7261 18.2372 12.6391 17.9737C12.5835 17.8052 12.5779 17.6472 12.6208 17.4959C12.664 17.3441 12.757 17.1955 12.9044 17.0481L12.8691 17.0128L12.9044 17.0481C13.2834 16.669 13.4725 16.2492 13.458 15.8012C13.4359 15.1158 12.9415 14.6631 12.8848 14.6134M12.3011 14.6511C12.1503 14.8227 12.1672 15.0841 12.3388 15.2349M12.3011 14.6511L12.3388 15.2349M12.8848 14.6134L12.8518 14.651L12.8848 14.6134C12.8848 14.6134 12.8848 14.6134 12.8848 14.6134ZM12.3388 15.2349L12.3718 15.1973L12.3388 15.2349ZM14.4936 13.347L14.4935 13.347C14.3428 13.5186 14.3597 13.7798 14.5311 13.9306L14.5311 13.9307C14.5321 13.9315 14.5667 13.9631 14.6187 14.0205C14.6713 14.0787 14.7412 14.1629 14.8116 14.2679C14.9529 14.4787 15.0939 14.7701 15.1046 15.1018C15.118 15.518 14.9227 15.9371 14.5118 16.348C14.0243 16.8355 13.7925 17.3299 13.711 17.7873C13.6297 18.2441 13.699 18.6608 13.8085 18.9928L13.856 18.9771L13.8085 18.9928C14.0372 19.6854 14.4889 20.1491 14.5097 20.1702L14.5453 20.1351L14.5097 20.1702C14.5905 20.2522 14.697 20.2933 14.8036 20.2933C14.908 20.2933 15.0126 20.2539 15.0931 20.175C15.2561 20.0156 15.2587 19.754 15.1 19.5906L15.0999 19.5906C15.1 19.5907 15.0945 19.585 15.0845 19.5739C15.0746 19.5629 15.0602 19.5466 15.0425 19.5255C15.0071 19.4833 14.9583 19.4218 14.9044 19.3441C14.7965 19.1886 14.6691 18.9696 14.5873 18.7126C14.3844 18.0745 14.5521 17.4777 15.0967 16.9329C15.669 16.3609 15.9528 15.7355 15.9314 15.0751C15.898 14.0408 15.1112 13.3391 15.0773 13.3093C14.9057 13.1585 14.6443 13.1754 14.4936 13.347ZM21.864 3.70684H2.13595C0.930557 3.70684 -0.05 4.68744 -0.05 5.89279V10.6064C-0.05 11.8117 0.930558 12.7923 2.13595 12.7923H21.864C23.0694 12.7923 24.05 11.8117 24.05 10.6064V5.89279C24.05 4.68744 23.0694 3.70684 21.864 3.70684ZM20.6716 11.9651H3.32825V11.5979C3.32825 11.1513 3.69169 10.7878 4.13827 10.7878H19.8616C20.3082 10.7878 20.6716 11.1513 20.6716 11.5979V11.9651ZM23.2227 10.6064C23.2227 11.3556 22.6132 11.9651 21.864 11.9651H21.4989V11.5979C21.4989 10.695 20.7644 9.96057 19.8616 9.96057H4.13827C3.2354 9.96057 2.50098 10.695 2.50098 11.5979V11.9651H2.13595C1.3868 11.9651 0.777266 11.3556 0.777266 10.6064V5.89279C0.777266 5.14364 1.3868 4.5341 2.13595 4.5341H21.864C22.6132 4.5341 23.2227 5.14364 23.2227 5.89279V10.6064ZM20.3566 6.17827C19.6628 6.17827 19.0985 6.74263 19.0985 7.43638C19.0985 8.13014 19.6628 8.69449 20.3566 8.69449C21.0504 8.69449 21.6147 8.13014 21.6147 7.43638C21.6147 6.74263 21.0504 6.17827 20.3566 6.17827ZM20.3566 7.86723C20.1191 7.86723 19.9257 7.67389 19.9257 7.43638C19.9257 7.19887 20.119 7.00554 20.3566 7.00554C20.5942 7.00554 20.7874 7.19883 20.7874 7.43638C20.7874 7.67394 20.5941 7.86723 20.3566 7.86723Z" fill="black" stroke="black" stroke-width="0.1"/>
</g>
<defs>
<clipPath id="clip0_938_9838">
<rect width="24" height="24" fill="white"/>
</clipPath>
</defs>
</svg>
