<svg width="29" height="28" viewBox="0 0 29 28" fill="none" xmlns="http://www.w3.org/2000/svg">
<path d="M2.5 14.9H2.4V15V19.7368C2.4 22.6967 4.89593 25.1 7.95463 25.1H21.0456C24.1041 25.1 26.6 22.6967 26.6 19.7368V15V14.9H26.5H2.5ZM3.69085 19.7368V16.1526H25.3092V19.7368C25.3092 22.0006 23.4006 23.8472 21.0456 23.8472H7.95463C5.59964 23.8472 3.69085 22.0006 3.69085 19.7368Z" fill="#747474" stroke="#747474" stroke-width="0.2"/>
<path d="M8.66797 24.6665H9.83464V26.6665H8.66797V24.6665Z" fill="#747474"/>
<path d="M19.168 24.6665H20.3346V26.6665H19.168V24.6665Z" fill="#747474"/>
<path d="M6.6428 15.1H6.7428V15V5.64005C6.7428 4.26735 7.96755 3.13993 9.5001 3.13993C11.0324 3.13993 12.2572 4.26734 12.2572 5.64005V6.15992V6.25992H12.3572H13.5H13.6V6.15992V5.64005C13.6 3.56751 11.7534 1.9 9.5001 1.9C7.24663 1.9 5.4 3.56751 5.4 5.64005V15V15.1H5.5H6.6428Z" fill="#747474" stroke="#747474" stroke-width="0.2"/>
<path d="M17.5 11.1H17.6V11V9.88875C17.6 7.68509 15.7598 5.9 13.5001 5.9C11.2402 5.9 9.4 7.68509 9.4 9.88875V11V11.1H9.5H17.5ZM10.7447 9.78875C10.7988 8.35816 12.0086 7.21104 13.5001 7.21104C14.9914 7.21104 16.2012 8.35816 16.2553 9.78875H10.7447Z" fill="#747474" stroke="#747474" stroke-width="0.2"/>
</svg>
