<svg width="24" height="24" viewBox="0 0 24 24" fill="none" xmlns="http://www.w3.org/2000/svg">
<path d="M21.3913 7.30444H2.60867C2.32067 7.30444 2.08691 7.5382 2.08691 7.8262V10.9566C2.08691 16.4224 6.53423 20.8697 12 20.8697C17.4657 20.8697 21.913 16.4224 21.913 10.9566V7.8262C21.913 7.5382 21.6793 7.30444 21.3913 7.30444ZM20.8696 10.9566C20.8696 15.8474 16.8908 19.8262 12 19.8262C7.10925 19.8262 3.13042 15.8474 3.13042 10.9566V8.34795H20.8696V10.9566Z" fill="black"/>
<path d="M11.9998 9.39136C9.41098 9.39136 7.3042 11.4981 7.3042 14.087C7.3042 16.6759 9.41098 18.7827 11.9998 18.7827C14.5887 18.7827 16.6955 16.6759 16.6955 14.087C16.6955 11.4981 14.5887 9.39136 11.9998 9.39136ZM11.9998 17.7392C9.98595 17.7392 8.34766 16.101 8.34766 14.087C8.34766 12.0731 9.9859 10.4348 11.9998 10.4348C14.0138 10.4348 15.652 12.0731 15.652 14.087C15.652 16.1009 14.0138 17.7392 11.9998 17.7392Z" fill="black"/>
<path d="M11.9998 11.4783C10.5609 11.4783 9.39111 12.6491 9.39111 14.0869C9.39111 15.5248 10.5609 16.6956 11.9998 16.6956C13.4387 16.6956 14.6085 15.5248 14.6085 14.0869C14.6085 12.6491 13.4388 11.4783 11.9998 11.4783ZM11.9998 15.6522C11.1368 15.6522 10.4346 14.9499 10.4346 14.0869C10.4346 13.224 11.1368 12.5217 11.9998 12.5217C12.8628 12.5217 13.565 13.224 13.565 14.0869C13.565 14.9499 12.8628 15.6522 11.9998 15.6522Z" fill="black"/>
<path d="M23.4782 3.13037H0.521755C0.233755 3.13037 0 3.36413 0 3.65213V6.78256C0 7.64553 0.702244 8.34778 1.56522 8.34778H22.4348C23.2978 8.34778 24 7.64553 24 6.78256V3.65213C24 3.36413 23.7662 3.13037 23.4782 3.13037ZM22.9565 6.78256C22.9565 7.07056 22.7217 7.30431 22.4347 7.30431H1.56522C1.27824 7.30431 1.04346 7.07056 1.04346 6.78256V4.17383H22.9565V6.78256Z" fill="black"/>
<path d="M18.261 11.4783C18.5492 11.4783 18.7828 11.2447 18.7828 10.9566C18.7828 10.6684 18.5492 10.4348 18.261 10.4348C17.9729 10.4348 17.7393 10.6684 17.7393 10.9566C17.7393 11.2447 17.9729 11.4783 18.261 11.4783Z" fill="black"/>
</svg>
