<svg width="24" height="24" viewBox="0 0 24 24" fill="none" xmlns="http://www.w3.org/2000/svg">
<g clip-path="url(#clip0_938_9868)">
<path d="M6.43085 0.276645L6.43086 0.276635C6.54398 0.163562 6.69738 0.1 6.85731 0.1C7.01724 0.1 7.17064 0.163563 7.28375 0.276678C7.28375 0.276678 7.28375 0.276679 7.28375 0.276679L9.4138 2.40682L9.48451 2.33611L9.4138 2.40682C9.64934 2.64236 9.64934 3.02422 9.4138 3.25976C9.29606 3.3775 9.14183 3.43639 8.98736 3.43639C8.83285 3.43639 8.67866 3.37751 8.56086 3.25971L6.92797 1.62677L6.85726 1.55606L6.78655 1.62677L5.15352 3.25976L5.22423 3.33047M6.43085 0.276645L6.36015 0.205922L4.22987 2.33606C3.95528 2.61066 3.95528 3.05583 4.22987 3.33042C4.50442 3.60502 4.94964 3.60506 5.22423 3.33047M6.43085 0.276645L4.30058 2.40677C4.30058 2.40677 4.30058 2.40677 4.30058 2.40678C4.06504 2.64232 4.06504 3.02417 4.30058 3.25971L4.30059 3.25972C4.53609 3.49526 4.91798 3.49529 5.15352 3.25976L5.22423 3.33047M6.43085 0.276645L5.22423 3.33047" fill="black" stroke="white" stroke-width="0.2"/>
<path d="M14.5565 3.25973L14.5565 3.25975C14.4434 3.37284 14.29 3.43641 14.1301 3.43641C13.9701 3.43641 13.8167 3.37285 13.7036 3.25973L11.5735 1.12959L11.5735 1.12959C11.338 0.894053 11.338 0.512197 11.5735 0.276656C11.8091 0.0411247 12.1909 0.0411518 12.4265 0.276655C12.4265 0.276657 12.4265 0.27666 12.4265 0.276662L14.0594 1.90959L14.1301 1.98031L14.2008 1.90959L15.8337 0.276656C16.0693 0.0411113 16.4512 0.0411201 16.6867 0.27665L16.6867 0.276656C16.9222 0.512197 16.9222 0.894053 16.6867 1.12959L14.5565 3.25973ZM14.6272 3.33045L16.7574 1.2003C17.032 0.925711 17.032 0.480539 16.7574 0.205945L14.6272 3.33045Z" fill="black" stroke="white" stroke-width="0.2"/>
<path d="M9.89066 6.54883V6.44883H9.79066H4.09225C3.38658 6.44883 2.8126 7.02282 2.8126 7.72853V22.5937V22.6937H2.9126H9.79066H9.89066V22.5937V6.54883ZM18.0751 22.6937H18.1751V22.5937V7.72853C18.1751 7.02282 17.6011 6.44883 16.8954 6.44883H11.197H11.097V6.54883V22.5937V22.6937H11.197H18.0751ZM4.09225 5.24258H16.8954C18.2661 5.24258 19.3813 6.35787 19.3813 7.72853V23.2968C19.3813 23.6299 19.1112 23.8999 18.7781 23.8999H2.20947C1.87639 23.8999 1.60635 23.6299 1.60635 23.2968V7.72853C1.60635 6.35787 2.72164 5.24258 4.09225 5.24258Z" fill="black" stroke="white" stroke-width="0.2"/>
<path d="M22.2525 12.6034L22.2526 12.6035C22.3744 12.7249 22.4441 12.8935 22.4441 13.0649C22.4441 13.2368 22.3744 13.405 22.2525 13.5269C22.1311 13.6483 21.9629 13.7181 21.791 13.7181C21.6191 13.7181 21.4504 13.6483 21.329 13.5269C21.2076 13.4055 21.1379 13.2369 21.1379 13.0649C21.1379 12.893 21.2076 12.7248 21.329 12.6034L21.3291 12.6034C21.4504 12.4816 21.6191 12.4118 21.791 12.4118C21.9629 12.4118 22.1311 12.4815 22.2525 12.6034Z" fill="black" stroke="white" stroke-width="0.1"/>
<path d="M21.791 15.4245C21.6191 15.4245 21.4504 15.4943 21.329 15.6156C21.2076 15.737 21.1379 15.9057 21.1379 16.0776C21.1379 16.2496 21.2076 16.4182 21.329 16.5396C21.4504 16.661 21.6191 16.7308 21.791 16.7308C21.9629 16.7308 22.1311 16.661 22.2525 16.5396C22.3744 16.4177 22.4441 16.2495 22.4441 16.0776C22.4441 15.9058 22.3744 15.7375 22.2525 15.6156C22.2525 15.6156 22.2525 15.6156 22.2525 15.6156M21.791 15.4245L22.2879 15.5803M21.791 15.4245C21.9629 15.4245 22.1311 15.4942 22.2525 15.6156M21.791 15.4245L22.2525 15.6156M22.2525 15.6156L22.2879 15.5803M22.2879 15.5803C22.1571 15.4495 21.9761 15.3745 21.791 15.3745C21.6059 15.3745 21.4245 15.4495 21.2937 15.5803C21.1629 15.7111 21.0879 15.8925 21.0879 16.0776C21.0879 16.2628 21.1629 16.4442 21.2937 16.575C21.4245 16.7058 21.6059 16.7808 21.791 16.7808C21.9761 16.7808 22.1571 16.7058 22.2879 16.575C22.4191 16.4437 22.4941 16.2628 22.4941 16.0776C22.4941 15.8925 22.4191 15.7115 22.2879 15.5803Z" fill="black" stroke="white" stroke-width="0.1"/>
</g>
<defs>
<clipPath id="clip0_938_9868">
<rect width="24" height="24" fill="white"/>
</clipPath>
</defs>
</svg>
