<svg width="36" height="36" viewBox="0 0 36 36" fill="none" xmlns="http://www.w3.org/2000/svg">
<rect width="36" height="36" rx="4" fill="#00A7CF"/>
<path fill-rule="evenodd" clip-rule="evenodd" d="M13.7619 11.9092C13.7619 10.7651 12.8666 9.83361 11.7643 9.83361C10.6631 9.83361 9.76668 10.7651 9.76668 11.9092C9.76668 13.0534 10.6631 13.9849 11.7643 13.9849C12.8666 13.9849 13.7619 13.0534 13.7619 11.9092ZM15.5246 11.9092C15.5246 14.0643 13.8375 15.8184 11.7623 15.8184C9.68821 15.8184 8 14.0643 8 11.9092C8 9.75414 9.68821 8 11.7623 8C13.8375 8 15.5246 9.75414 15.5246 11.9092ZM27.9983 11.9094C27.9983 11.4034 27.603 10.9926 27.116 10.9926H19.8808C19.3937 10.9926 18.9985 11.4034 18.9985 11.9094C18.9985 12.4155 19.3937 12.8262 19.8808 12.8262H27.116C27.603 12.8262 27.9983 12.4155 27.9983 11.9094ZM22.242 24.091C22.242 25.2351 23.1373 26.1666 24.2396 26.1666C25.342 26.1666 26.2372 25.2351 26.2372 24.091C26.2372 22.9456 25.342 22.0153 24.2396 22.0153C23.1373 22.0153 22.242 22.9456 22.242 24.091ZM20.4755 24.0909C20.4755 21.9346 22.1625 20.1817 24.2378 20.1817C26.313 20.1817 28.0001 21.9346 28.0001 24.0909C28.0001 26.246 26.313 28.0001 24.2378 28.0001C22.1625 28.0001 20.4755 26.246 20.4755 24.0909ZM8.88253 23.1737H16.1165C16.6036 23.1737 16.9989 23.5844 16.9989 24.0905C16.9989 24.5966 16.6036 25.0073 16.1165 25.0073H8.88253C8.39548 25.0073 8.00019 24.5966 8.00019 24.0905C8.00019 23.5844 8.39548 23.1737 8.88253 23.1737Z" fill="white"/>
</svg>
