<svg width="24" height="24" viewBox="0 0 24 24" fill="none" xmlns="http://www.w3.org/2000/svg">
<g id="gas-bottle 1" clip-path="url(#clip0_938_9843)">
<path id="Vector" d="M13.1814 1.54985H10.7814C10.312 1.54985 9.93145 1.93039 9.93145 2.39984V3.19983C9.93145 3.66928 10.312 4.04982 10.7814 4.04982H13.1814C13.6508 4.04982 14.0314 3.66928 14.0314 3.19983V2.39984C14.0314 1.93039 13.6508 1.54985 13.1814 1.54985ZM10.8314 3.14983V2.44984H13.1314V3.14983H10.8314Z" fill="black" stroke="black" stroke-width="0.1"/>
<path id="Vector_2" d="M7.6313 22.1707V22.1179C7.65804 22.1271 7.68505 22.1357 7.71204 22.1443C7.72714 22.1491 7.74223 22.154 7.75726 22.1589C7.78398 22.1675 7.80838 22.1761 7.8321 22.1845C7.86056 22.1946 7.88803 22.2043 7.9173 22.2133C7.96628 22.2274 8.01417 22.2392 8.06213 22.251C8.09252 22.2585 8.12294 22.266 8.15369 22.274C8.16659 22.2772 8.17945 22.2804 8.19228 22.2835C8.23824 22.2949 8.28386 22.3062 8.33038 22.314M7.6313 22.1707C7.61458 22.1651 7.59785 22.1592 7.5813 22.1531V22.4C7.5813 22.8419 7.93945 23.2 8.38129 23.2H15.5812C16.023 23.2 16.3812 22.8419 16.3812 22.4V22.153C16.3647 22.1591 16.3478 22.1648 16.3312 22.1703M7.6313 22.1707V22.4C7.6313 22.8142 7.96707 23.15 8.38129 23.15H15.5812C15.9954 23.15 16.3312 22.8142 16.3312 22.4V22.1703M7.6313 22.1707L8.32144 22.3632M16.3312 22.1703V22.1176C16.3117 22.1242 16.2919 22.1304 16.2726 22.1365C16.2486 22.1441 16.2254 22.1515 16.2045 22.1589C16.1932 22.1628 16.1819 22.1668 16.1706 22.1708C16.1292 22.1855 16.0871 22.2003 16.0444 22.2133C15.9681 22.2363 15.8881 22.2552 15.808 22.274C15.7803 22.2798 15.7528 22.2863 15.7253 22.2928C15.6941 22.3002 15.6629 22.3076 15.6312 22.314M16.3312 22.1703C16.3227 22.173 16.3143 22.1757 16.3061 22.1784C16.2997 22.1804 16.2934 22.1824 16.2873 22.1843C16.2634 22.1919 16.2412 22.1989 16.2211 22.206L16.221 22.2061C16.2101 22.2099 16.1991 22.2138 16.1879 22.2177C16.1463 22.2324 16.1029 22.2478 16.0589 22.2611L16.0589 22.2611C15.981 22.2846 15.8997 22.3038 15.8202 22.3225L15.8195 22.3227L15.8182 22.323L15.8182 22.323C15.7912 22.3286 15.7645 22.3349 15.7368 22.3415L15.7313 22.3428C15.702 22.3497 15.6718 22.3569 15.6409 22.363L15.6312 22.314M15.6312 22.314C15.5566 22.3294 15.4811 22.3395 15.4059 22.3497C15.3951 22.3512 15.3844 22.3526 15.3737 22.3541C15.3543 22.3567 15.335 22.3597 15.3157 22.3627C15.2809 22.3682 15.246 22.3736 15.2104 22.3771C15.0681 22.3909 14.9249 22.3987 14.7812 22.3987H9.18036C9.0368 22.3987 8.89362 22.3909 8.75116 22.3771C8.71576 22.3736 8.68097 22.3682 8.64621 22.3628C8.62684 22.3598 8.60747 22.3568 8.58801 22.3541C8.56931 22.3514 8.55058 22.3487 8.53185 22.3461C8.46455 22.3366 8.39713 22.3271 8.33038 22.314M15.6312 22.314L15.6413 22.3629C15.5649 22.3787 15.4876 22.3891 15.4125 22.3993C15.4018 22.4007 15.3911 22.4022 15.3805 22.4036C15.3629 22.406 15.3445 22.4089 15.3256 22.4118C15.2897 22.4174 15.2521 22.4232 15.2153 22.4269L15.2152 22.4269C15.0716 22.4408 14.9267 22.4487 14.7812 22.4487H9.18036C9.03498 22.4487 8.89018 22.4408 8.74636 22.4269L8.7462 22.4269C8.70963 22.4232 8.67213 22.4174 8.63635 22.4119C8.61734 22.4089 8.59882 22.406 8.58118 22.4036L8.58084 22.4035C8.56263 22.4009 8.54424 22.3983 8.52571 22.3957C8.45844 22.3863 8.38946 22.3766 8.32144 22.3632M8.33038 22.314L8.32219 22.3633C8.32194 22.3632 8.32169 22.3632 8.32144 22.3632M8.33038 22.314L8.3207 22.363C8.32095 22.3631 8.3212 22.3631 8.32144 22.3632M16.0643 21.3077L16.0645 21.3077C16.0809 21.3013 16.0978 21.2956 16.1131 21.2903C16.1289 21.2848 16.1434 21.2797 16.1572 21.2739L16.1765 21.3201M16.0643 21.3077L7.80565 21.2724C7.80561 21.2724 7.80555 21.2724 7.80551 21.2724C6.49369 20.712 5.6396 19.4264 5.63124 17.9999L5.63124 9.20001C5.63359 7.24034 7.22165 5.65244 9.18134 5.64991H14.7811C16.7408 5.65244 18.3289 7.24034 18.3312 9.20001L18.3312 17.9997C18.3312 17.9998 18.3312 17.9999 18.3312 17.9999C18.3236 19.427 17.4692 20.7134 16.1568 21.2741L16.1765 21.3201M16.0643 21.3077C15.9631 21.3473 15.8612 21.3823 15.7572 21.4119L15.7709 21.46M16.0643 21.3077L18.3812 18C18.3735 19.4471 17.5073 20.7515 16.1765 21.3201M16.1765 21.3201C16.159 21.3273 16.141 21.3335 16.1231 21.3397C16.1095 21.3445 16.0958 21.3492 16.0825 21.3543C15.98 21.3944 15.8765 21.4299 15.7709 21.46M15.7709 21.46C15.7328 21.4707 15.6943 21.4803 15.6555 21.4899C15.6496 21.4914 15.6436 21.4929 15.6376 21.4944M15.7709 21.46L15.7572 21.4119L15.6376 21.4944M15.6376 21.4944L15.6257 21.4458L15.6435 21.4414L15.6376 21.4944ZM15.6376 21.4944L15.6255 21.4459L15.6257 21.4458C15.5271 21.4698 15.4274 21.4897 15.3263 21.5054M15.6376 21.4944C15.5376 21.5187 15.4365 21.5389 15.334 21.5548M15.334 21.5548L15.3265 21.5054C15.3264 21.5054 15.3264 21.5054 15.3263 21.5054M15.334 21.5548L15.3263 21.5054M15.334 21.5548C15.3199 21.5569 15.3057 21.5593 15.2914 21.5616C15.2654 21.5659 15.2389 21.5702 15.2113 21.5737M15.3263 21.5054C15.3109 21.5077 15.2963 21.5101 15.2818 21.5125C15.2566 21.5167 15.232 21.5207 15.2053 21.524L15.2113 21.5737M15.2113 21.5737C15.0685 21.5909 14.9249 21.5997 14.7812 21.6M15.2113 21.5737L15.2051 21.5241M14.7812 21.6L15.2051 21.5241M14.7812 21.6V21.55H14.7811M14.7812 21.6L15.2051 21.5241M14.7812 21.6L14.7811 21.55M14.7812 21.6H9.18127M15.2051 21.5241C15.0643 21.541 14.9228 21.5497 14.7811 21.55M14.7811 21.55H9.18159M9.18159 21.55L9.18127 21.6M9.18159 21.55C9.03981 21.5491 8.89821 21.5399 8.75733 21.5224L8.75116 21.572M9.18159 21.55H9.18127V21.6M9.18127 21.6C9.03754 21.5991 8.89398 21.5898 8.75116 21.572M8.75116 21.572L8.75775 21.5225C8.73437 21.5193 8.71157 21.5157 8.68798 21.5119C8.67124 21.5092 8.65411 21.5064 8.63609 21.5037M8.75116 21.572L8.63609 21.5037M8.62848 21.5532L8.63617 21.5038L8.62848 21.5532ZM8.62848 21.5532L8.6358 21.5037C8.6359 21.5037 8.63599 21.5037 8.63609 21.5037M8.62848 21.5532L8.63609 21.5037M4.73125 9.19987V9.19995L4.73125 18L4.73125 18.0001C4.73291 19.4947 5.48452 20.888 6.73131 21.7102V22.4C6.73131 23.3113 7.47001 24.05 8.38129 24.05H15.5812C16.4925 24.05 17.2313 23.3113 17.2313 22.4V21.7102C18.4779 20.888 19.2297 19.4947 19.2312 18V18V9.19995V9.19987C19.2279 7.07006 17.7178 5.24277 15.6312 4.83509V1.20007C15.6312 0.509622 15.0716 -0.05 14.3813 -0.05H9.58118C8.8909 -0.05 8.33129 0.509622 8.33129 1.20007V4.83509C6.24465 5.24277 4.73475 7.07006 4.73125 9.19987ZM8.32489 21.4927L8.33697 21.4442L8.33672 21.4442L8.32489 21.4927ZM8.19159 21.4583L8.2052 21.4102C8.20519 21.4102 8.20518 21.4102 8.20517 21.4102L8.19159 21.4583ZM9.23127 1.20007C9.23127 1.00666 9.38798 0.849988 9.58118 0.849988H14.3813C14.5745 0.849988 14.7312 1.00666 14.7312 1.20007V4.74993H9.23127V1.20007Z" fill="black" stroke="black" stroke-width="0.1"/>
<path id="Vector_3" d="M13.2747 12.1524L13.2747 12.1524C12.9138 11.8626 12.5818 11.5952 12.3395 11.3261C12.0984 11.0582 11.9526 10.7956 11.9514 10.5151C11.9813 10.321 12.0981 10.1507 12.2686 10.0529L12.2687 10.0531L12.2723 10.0506C12.458 9.92175 12.5316 9.68257 12.4503 9.47153L12.4036 9.48951L12.4503 9.47168C12.3689 9.25835 12.1529 9.12788 11.9262 9.15495L11.9262 9.15495C11.1859 9.24344 10.6461 9.72612 10.2929 10.3197C9.94004 10.913 9.76964 11.6228 9.76964 12.1806H9.76955L9.76973 12.1836C9.80177 12.7246 9.98378 13.246 10.2953 13.6894L10.2953 13.6894L10.2958 13.6902C10.4305 13.8742 10.5238 14.0849 10.5696 14.3082C10.5691 14.4833 10.5396 14.5536 10.5105 14.583C10.483 14.6108 10.4459 14.6132 10.3798 14.6132C10.2937 14.6132 10.2314 14.6041 10.1892 14.592C10.1551 14.5822 10.138 14.5717 10.1308 14.5656C10.0941 14.438 10.1052 14.3012 10.162 14.1808L10.1623 14.1809L10.1641 14.1757C10.2342 13.9714 10.1563 13.7457 9.97547 13.6279L9.97548 13.6279L9.97389 13.6269C9.79186 13.5178 9.56051 13.5365 9.39857 13.6738L9.39855 13.6738L9.39703 13.6752C8.75229 14.2691 8.36913 15.0944 8.33139 15.9702L8.33135 15.9702V15.9724C8.33135 16.8715 8.67376 17.5934 9.30508 18.0893C9.93487 18.584 10.8471 18.8499 11.9814 18.8499C13.1157 18.8499 14.0278 18.584 14.6576 18.0893C15.2889 17.5934 15.6312 16.8715 15.6312 15.9724C15.6312 14.047 14.3185 12.9917 13.2798 12.1565L13.2747 12.1524ZM11.4713 14.3019H11.4715L11.4711 14.2973C11.4351 13.9091 11.2953 13.5379 11.0662 13.2226C10.8435 12.9157 10.7073 12.5547 10.6713 12.1773C10.682 11.6829 10.8199 11.2003 11.0705 10.7759C11.1315 11.1861 11.3311 11.5356 11.6042 11.8544C11.9083 12.2093 12.3065 12.5294 12.7109 12.8541C13.716 13.6624 14.7322 14.4823 14.7322 15.9723C14.7319 16.4046 14.6244 16.742 14.4495 17.0056C14.2744 17.2696 14.0298 17.4627 13.751 17.6029C13.1921 17.884 12.5016 17.9499 11.9814 17.9499C11.4611 17.9499 10.7705 17.884 10.2117 17.6029C9.93299 17.4627 9.68845 17.2696 9.51346 17.0057C9.33872 16.7421 9.23139 16.4048 9.23134 15.9727C9.23516 15.679 9.30322 15.3902 9.43052 15.1265C9.66724 15.3996 10.0214 15.5438 10.3835 15.5119C10.6437 15.5114 10.916 15.4324 11.1238 15.2395C11.3331 15.0453 11.4713 14.7409 11.4713 14.3019Z" fill="black" stroke="black" stroke-width="0.1"/>
</g>
<defs>
<clipPath id="clip0_938_9843">
<rect width="24" height="24" fill="white"/>
</clipPath>
</defs>
</svg>
