<svg width="16" height="16" viewBox="0 0 16 16" fill="none" xmlns="http://www.w3.org/2000/svg">
<g id="Group">
<path id="Vector" d="M15.0501 0.999512V0.949512H15.0001H10.6689H10.6189V0.999512V1.86575V1.91575H10.6689H13.4003L10.1116 5.20655L10.0763 5.24191L10.1116 5.27725L10.7223 5.88795L10.7577 5.92329L10.793 5.88796L14.0838 2.59926V5.33069V5.38069H14.1338H15.0001H15.0501V5.33069V0.999512Z" fill="black" stroke="black" stroke-width="0.1"/>
<path id="Vector_2" d="M1.91623 5.33069V2.59926L5.20704 5.88796L5.2424 5.92329L5.27774 5.88795L5.88844 5.27725L5.92378 5.24191L5.88845 5.20655L2.59975 1.91575H5.33117H5.38117V1.86575V0.999512V0.949512H5.33117H1H0.95V0.999512V5.33069V5.38069H1H1.86623H1.91623V5.33069Z" fill="black" stroke="black" stroke-width="0.1"/>
<path id="Vector_3" d="M5.38117 14.1343V14.0843H5.33117H2.59975L5.88845 10.7935L5.92378 10.7581L5.88844 10.7228L5.27774 10.1121L5.2424 10.0768L5.20704 10.1121L1.91623 13.4008V10.6694V10.6194H1.86623H1H0.95V10.6694V15.0005V15.0505H1H5.33117H5.38117V15.0005V14.1343Z" fill="black" stroke="black" stroke-width="0.1"/>
<path id="Vector_4" d="M15.0515 10.6694V10.6194H15.0015H14.1353H14.0853V10.6694V13.4008L10.7945 10.1121L10.7591 10.0768L10.7238 10.1121L10.1131 10.7228L10.0777 10.7581L10.1131 10.7935L13.4018 14.0843H10.6703H10.6203V14.1343V15.0005V15.0505H10.6703H15.0015H15.0515V15.0005V10.6694Z" fill="black" stroke="black" stroke-width="0.1"/>
</g>
</svg>
