<svg width="20" height="20" viewBox="0 0 20 20" fill="none" xmlns="http://www.w3.org/2000/svg">
<path d="M9.87358 10.2111L9.87354 10.2111L9.87631 10.2132L12.5012 12.1819C12.7387 12.36 13.0755 12.3119 13.2537 12.0744C13.4318 11.8369 13.3837 11.5003 13.1464 11.3221C13.1463 11.322 13.1462 11.322 13.1462 11.3219L10.756 9.51259V5.84373C10.756 5.54679 10.5154 5.30625 10.2185 5.30625C9.92155 5.30625 9.68101 5.54679 9.68101 5.84373V9.78105C9.68101 9.95267 9.75265 10.1137 9.87358 10.2111Z" fill="#272727" stroke="#272727" stroke-width="0.2"/>
<path d="M5.02518 8.3062L4.98494 8.34676C5.62172 5.47718 8.39656 3.56998 11.3346 4.04738C14.3803 4.54228 16.4484 7.41241 15.9535 10.4583C15.514 13.163 13.1779 15.1499 10.4378 15.1494L10.436 15.1495C8.70969 15.1808 7.07697 14.3664 6.06325 12.9686C5.89097 12.7272 5.55557 12.6706 5.31377 12.8428C5.072 13.015 5.01522 13.3506 5.18752 13.5925L5.18791 13.5931C6.40296 15.2756 8.36365 16.2581 10.4386 16.2244C14.1178 16.224 17.1 13.2415 17.1 9.5622C17.1 5.88267 14.1173 2.9 10.4378 2.9C7.26912 2.9 4.55152 5.12919 3.91427 8.2102L3.88421 8.16551L3.88412 8.16537C3.71785 7.91906 3.3836 7.85399 3.13719 8.02032C2.89096 8.18653 2.82585 8.5206 2.99196 8.76699C2.99202 8.76707 2.99207 8.76716 2.99213 8.76725L3.86644 10.0787C3.8665 10.0788 3.86655 10.0789 3.86661 10.079C3.95501 10.2131 4.09894 10.3009 4.25881 10.3179L4.25875 10.3184H4.26934L4.31308 10.3184L4.31346 10.3184C4.45581 10.3179 4.59208 10.261 4.69238 10.1599C4.69242 10.1599 4.69246 10.1598 4.6925 10.1598L5.78592 9.06637C5.99581 8.85648 5.99581 8.51581 5.78592 8.30592C5.57603 8.09603 5.23535 8.09603 5.02546 8.30592L5.02518 8.3062Z" fill="#272727" stroke="#272727" stroke-width="0.2"/>
</svg>
