<svg width="20" height="20" viewBox="0 0 20 20" fill="none" xmlns="http://www.w3.org/2000/svg">
<g id="history 2">
<g id="Group 1261153204">
<g id="Group 1261153220">
<path id="Vector" d="M10.1492 10.9186L10.1492 10.9186L10.1506 10.9195L13.1675 12.9511C13.41 13.1144 13.7538 13.0715 13.9377 12.8514C14.1245 12.6278 14.0722 12.3111 13.8268 12.1458C13.8267 12.1458 13.8267 12.1458 13.8267 12.1458L11.0556 10.2624V6.45146C11.0556 6.16948 10.803 5.95 10.5028 5.95C10.2026 5.95 9.95 6.16948 9.95 6.45146V10.5146C9.95 10.6798 10.027 10.8302 10.1492 10.9186Z" fill="black" stroke="black" stroke-width="0.1"/>
<path id="Vector_2" d="M2.19275 8.79068C1.94069 8.96083 1.8741 9.30279 2.04421 9.55493L4.16233 9.30878C4.80502 5.87866 8.07205 3.57076 11.5355 4.13353C15.0514 4.70482 17.4387 8.01792 16.8674 11.5339C16.3602 14.656 13.6634 16.9496 10.5004 16.9491L10.4994 16.9491C8.50544 16.9853 6.61955 16.0447 5.44869 14.4301C5.27241 14.1828 4.92907 14.1248 4.68161 14.301C4.43416 14.4773 4.3761 14.8207 4.55239 15.0682L4.55258 15.0685C5.92901 16.9745 8.15017 18.0874 10.5008 18.049C14.6702 18.0488 18.05 14.669 18.05 10.4995C18.05 6.32992 14.67 2.95 10.5003 2.95C6.85784 2.95 3.74132 5.54941 3.07808 9.11897L2.95718 8.93921L2.95714 8.93914C2.78696 8.68704 2.4449 8.62048 2.19275 8.79068Z" fill="black" stroke="black" stroke-width="0.1"/>
</g>
</g>
</g>
</svg>
