<svg width="24" height="24" viewBox="0 0 24 24" fill="none" xmlns="http://www.w3.org/2000/svg">
<g id="hot-water 1">
<path id="Vector" d="M4.4 15.75L4.4 15.7501C4.40231 17.765 5.20376 19.6967 6.62851 21.1215C8.05326 22.5462 9.98498 23.3477 11.9999 23.35H12.0001C14.015 23.3477 15.9467 22.5462 17.3715 21.1215C18.7962 19.6967 19.5977 17.765 19.6 15.7501V15.75C19.6 14.767 19.2236 13.3333 18.6425 11.7451C18.0601 10.1534 17.2677 8.39507 16.4268 6.75825C15.5859 5.12168 14.6951 3.60391 13.915 2.49398C13.5252 1.93938 13.1611 1.48374 12.843 1.16566C12.6841 1.0067 12.5342 0.879664 12.3963 0.791761C12.26 0.704936 12.1257 0.65 12 0.65C11.8743 0.65 11.74 0.704936 11.6037 0.791761C11.4658 0.879664 11.3159 1.0067 11.157 1.16566C10.8389 1.48374 10.4748 1.93938 10.085 2.49398C9.30495 3.60391 8.4141 5.12168 7.57324 6.75825C6.73226 8.39507 5.93991 10.1534 5.35753 11.7451C4.77643 13.3333 4.4 14.767 4.4 15.75ZM5.35 15.75C5.35 14.8529 5.69203 13.5578 6.23172 12.1007C6.77016 10.647 7.50099 9.04339 8.26946 7.53364C9.0379 6.02396 9.843 4.61009 10.5293 3.53604C10.8726 2.99886 11.1853 2.54805 11.4482 2.21319C11.5797 2.04572 11.6977 1.90849 11.8001 1.8044C11.8794 1.72374 11.9462 1.66626 12 1.62975C12.0538 1.66626 12.1206 1.72374 12.1999 1.8044C12.3023 1.90849 12.4203 2.04572 12.5518 2.21319C12.8147 2.54805 13.1274 2.99886 13.4707 3.53604C14.157 4.61009 14.9621 6.02396 15.7305 7.53364C16.499 9.04339 17.2298 10.647 17.7683 12.1007C18.308 13.5578 18.65 14.8529 18.65 15.75C18.65 17.5137 17.9494 19.2051 16.7023 20.4523C15.4551 21.6994 13.7637 22.4 12 22.4C10.2363 22.4 8.54486 21.6994 7.29774 20.4523C6.05062 19.2051 5.35 17.5137 5.35 15.75Z" fill="black" stroke="black" stroke-width="0.2"/>
<path id="Vector_2" d="M11.647 18.4327C11.5857 18.5008 11.5455 18.5853 11.5312 18.6758C11.5168 18.7665 11.5291 18.8594 11.5664 18.9433C11.6037 19.0272 11.6646 19.0984 11.7416 19.1484C11.8186 19.1984 11.9084 19.2251 12.0002 19.2251L12.0009 19.2251C12.0677 19.2247 12.1337 19.2101 12.1945 19.1825C12.2549 19.155 12.3089 19.1152 12.3529 19.0656C12.9069 18.4696 13.2148 17.6861 13.2148 16.8725C13.2148 16.0587 12.9068 15.2751 12.3527 14.6791C11.8795 14.1532 11.6838 13.6773 11.7325 13.2609C11.7921 12.9126 11.9839 12.6009 12.268 12.3908C12.3189 12.3562 12.3627 12.3121 12.3968 12.2608C12.4313 12.2088 12.4553 12.1506 12.4673 12.0893C12.4794 12.0281 12.4793 11.9651 12.467 11.904C12.4546 11.8428 12.4304 11.7847 12.3956 11.7329C12.3609 11.6811 12.3162 11.6366 12.2643 11.6021C12.2123 11.5675 12.1541 11.5435 12.0929 11.5315C12.0317 11.5194 11.9687 11.5196 11.9075 11.5319C11.8463 11.5442 11.7882 11.5684 11.7364 11.6032L11.7364 11.6032L11.7339 11.6049C11.4832 11.7843 11.2707 12.0118 11.1089 12.2742C10.947 12.5366 10.8391 12.8287 10.7914 13.1333L10.7914 13.1332L10.791 13.1363C10.6999 13.8611 10.9981 14.5961 11.6473 15.3178L11.6473 15.3179C12.3383 16.0858 12.35 16.8441 12.1857 17.4212C12.02 18.0029 11.6739 18.4022 11.647 18.4327ZM11.647 18.4327C11.6471 18.4326 11.6472 18.4324 11.6473 18.4323L11.7216 18.4992M11.647 18.4327C11.6469 18.4327 11.6468 18.4328 11.6468 18.4329L11.7216 18.4992M11.7216 18.4992C11.6731 18.5531 11.6413 18.6199 11.63 18.6915C11.6186 18.763 11.6283 18.8364 11.6578 18.9026C11.6872 18.9688 11.7353 19.0251 11.7961 19.0646C11.8568 19.1041 11.9278 19.1251 12.0002 19.1251L11.7216 15.251C13.1571 16.8462 11.7801 18.4332 11.7216 18.4992Z" fill="black" stroke="black" stroke-width="0.2"/>
<path id="Vector_3" d="M8.64701 18.4326C8.58575 18.5008 8.54552 18.5853 8.53118 18.6758C8.51683 18.7665 8.52906 18.8594 8.5664 18.9433C8.60374 19.0272 8.66459 19.0984 8.74158 19.1484C8.81857 19.1984 8.90841 19.2251 9.00022 19.2251L9.0009 19.2251C9.0677 19.2247 9.13367 19.2101 9.19448 19.1825C9.25489 19.155 9.30886 19.1152 9.35292 19.0656C9.90688 18.4696 10.2148 17.6861 10.2148 16.8725C10.2148 16.0587 9.90678 15.2751 9.35265 14.6791C8.87947 14.1532 8.68376 13.6773 8.7325 13.2609C8.79209 12.9126 8.98393 12.6009 9.26795 12.3908C9.31891 12.3562 9.36267 12.3121 9.39678 12.2608C9.43133 12.2088 9.45531 12.1506 9.46735 12.0893C9.47939 12.0281 9.47925 11.9651 9.46695 11.904C9.45465 11.8428 9.43042 11.7847 9.39565 11.7329C9.36087 11.6811 9.31624 11.6366 9.26429 11.6021C9.21233 11.5675 9.15409 11.5435 9.09287 11.5315C9.03165 11.5194 8.96866 11.5196 8.90749 11.5319C8.84633 11.5442 8.78818 11.5684 8.73638 11.6032L8.73636 11.6032L8.73394 11.6049C8.48318 11.7843 8.27069 12.0118 8.10886 12.2742C7.94704 12.5366 7.83913 12.8287 7.79145 13.1333L7.7914 13.1332L7.79102 13.1363C7.69993 13.8611 7.99807 14.5961 8.64727 15.3178L8.64728 15.3179C9.33829 16.0858 9.35003 16.8441 9.18569 17.4212C9.02009 18.0027 8.67419 18.4019 8.64701 18.4326ZM8.64701 18.4326C8.6471 18.4325 8.6472 18.4324 8.64729 18.4323L8.72162 18.4992M8.64701 18.4326C8.64693 18.4327 8.64686 18.4328 8.64678 18.4329L8.72162 18.4992M8.72162 18.4992C8.67313 18.5531 8.64129 18.6199 8.62995 18.6915C8.61862 18.763 8.62828 18.8364 8.65775 18.9026C8.68723 18.9688 8.73527 19.0251 8.79605 19.0646C8.85684 19.1041 8.92776 19.1251 9.00024 19.1251L8.72162 15.251C10.1571 16.8462 8.78012 18.4332 8.72162 18.4992Z" fill="black" stroke="black" stroke-width="0.2"/>
<path id="Vector_4" d="M14.647 18.4327C14.5857 18.5008 14.5455 18.5853 14.5312 18.6758C14.5168 18.7665 14.5291 18.8594 14.5664 18.9433C14.6037 19.0272 14.6646 19.0984 14.7416 19.1484C14.8186 19.1984 14.9084 19.2251 15.0002 19.2251L15.0009 19.2251C15.0677 19.2247 15.1337 19.2101 15.1945 19.1825C15.2549 19.155 15.3089 19.1152 15.3529 19.0656C15.9069 18.4696 16.2148 17.6861 16.2148 16.8725C16.2148 16.0587 15.9068 15.2751 15.3527 14.6791C14.8795 14.1532 14.6838 13.6773 14.7325 13.2609C14.7921 12.9126 14.9839 12.6009 15.268 12.3908C15.3189 12.3562 15.3627 12.3121 15.3968 12.2608C15.4313 12.2088 15.4553 12.1506 15.4673 12.0893C15.4794 12.0281 15.4793 11.9651 15.467 11.904C15.4546 11.8428 15.4304 11.7847 15.3956 11.7329C15.3609 11.6811 15.3162 11.6366 15.2643 11.6021C15.2123 11.5675 15.1541 11.5435 15.0929 11.5315C15.0317 11.5194 14.9687 11.5196 14.9075 11.5319C14.8463 11.5442 14.7882 11.5684 14.7364 11.6032L14.7364 11.6032L14.7339 11.6049C14.4832 11.7843 14.2707 12.0118 14.1089 12.2742C13.947 12.5366 13.8391 12.8287 13.7914 13.1333L13.7914 13.1332L13.791 13.1363C13.6999 13.8611 13.9981 14.5961 14.6473 15.3178L14.6473 15.3179C15.3383 16.0858 15.35 16.8441 15.1857 17.4212C15.02 18.0029 14.6739 18.4022 14.647 18.4327ZM14.647 18.4327C14.6471 18.4326 14.6472 18.4324 14.6473 18.4323L14.7216 18.4992M14.647 18.4327C14.6469 18.4327 14.6468 18.4328 14.6468 18.4329L14.7216 18.4992M14.7216 18.4992C14.6731 18.5531 14.6413 18.6199 14.63 18.6915C14.6186 18.763 14.6283 18.8364 14.6578 18.9026C14.6872 18.9688 14.7353 19.0251 14.7961 19.0646C14.8568 19.1041 14.9278 19.1251 15.0002 19.1251L14.7216 15.251C16.1571 16.8462 14.7801 18.4332 14.7216 18.4992Z" fill="black" stroke="black" stroke-width="0.2"/>
</g>
</svg>
