<svg width="29" height="28" viewBox="0 0 29 28" fill="none" xmlns="http://www.w3.org/2000/svg">
<path d="M4.14491 19.9334C4.02012 20.0581 3.95 20.2274 3.95 20.4038V23.8847C3.95 24.2521 4.24789 24.55 4.61532 24.55H8.09615C8.27266 24.55 8.44181 24.4799 8.56663 24.3551L8.53128 24.3197L8.56664 24.3551L9.43699 23.4847L9.40164 23.4494L9.437 23.4847C9.58072 23.341 9.65089 23.1394 9.62738 22.9374L9.52467 22.0537L10.7692 21.9364C11.0873 21.9064 11.3392 21.6546 11.3692 21.3365L11.4866 20.0918L12.3703 20.1945C12.3703 20.1945 12.3703 20.1945 12.3704 20.1945C12.559 20.2165 12.7479 20.1567 12.8897 20.0305L12.8564 19.9932L12.8897 20.0305C13.0314 19.9043 13.1125 19.7235 13.1125 19.5336V18.4377H14.1876C14.3627 18.4377 14.5308 18.3687 14.6553 18.2456L14.6202 18.21L14.6553 18.2456L16.1625 16.7558C18.5831 17.5286 21.2469 16.896 23.0561 15.0868C25.7146 12.4283 25.7146 8.10248 23.0561 5.44393C20.3975 2.78534 16.0717 2.78538 13.4131 5.44393C11.6045 7.25252 10.9719 9.91496 11.7433 12.3349L4.14491 19.9334ZM4.14491 19.9334L4.18026 19.9688L4.14491 19.9334L4.14491 19.9334ZM16.2337 15.3699L16.2154 15.4165L16.2336 15.3699C15.9888 15.2742 15.7105 15.3315 15.5236 15.5163L13.9143 17.1071H12.4472C12.0797 17.1071 11.7819 17.405 11.7819 17.7724V18.7865L10.9648 18.6915L10.9648 18.6915C10.787 18.6709 10.6085 18.7227 10.4694 18.8353L10.4694 18.8353C10.3303 18.9479 10.2424 19.1117 10.2256 19.2899L10.096 20.6633L8.72277 20.7927C8.54458 20.8095 8.38071 20.8974 8.26807 21.0365L8.30693 21.068L8.26807 21.0365C8.15547 21.1756 8.10362 21.3542 8.12429 21.532L8.26841 22.7714L7.82052 23.2194H5.28059V20.6795L12.9809 12.9792C13.1677 12.7924 13.2263 12.5126 13.13 12.2664C12.3345 10.2325 12.815 7.92394 14.354 6.38491C16.4938 4.24521 19.9754 4.24521 22.1151 6.38491C24.2548 8.52457 24.2548 12.0063 22.1152 14.146C20.5762 15.6849 18.2675 16.1654 16.2337 15.3699Z" fill="#747474" stroke="#747474" stroke-width="0.1"/>
<path d="M19.5782 8.92481C19.7986 9.14523 20.1573 9.14519 20.3777 8.92482C20.3777 8.92482 20.3777 8.92482 20.3777 8.92481M19.5782 8.92481L19.5428 8.08998C19.7834 7.84947 20.1725 7.84947 20.413 8.08998C20.6536 8.3305 20.6535 8.71965 20.413 8.96017L20.3777 8.92481M19.5782 8.92481C19.3578 8.70444 19.3578 8.34576 19.5782 8.12534M19.5782 8.92481L19.5782 8.12534M20.3777 8.92481C20.5986 8.70382 20.5987 8.34632 20.3777 8.12534C20.1567 7.90435 19.7992 7.90435 19.5782 8.12533M20.3777 8.92481L19.5782 8.12533M19.5782 8.12533C19.5782 8.12534 19.5782 8.12534 19.5782 8.12534M19.5782 8.12533L19.5782 8.12534M21.3186 7.1844C20.5793 6.44509 19.3765 6.44513 18.6373 7.1844L18.6726 7.21975C17.9529 7.9395 17.9529 9.11062 18.6726 9.83036C19.3923 10.5501 20.5635 10.5502 21.2832 9.83036L21.3186 9.86571C21.3186 9.86571 21.3186 9.86571 21.3186 9.86571C22.0578 9.12644 22.0578 7.92367 21.3186 7.1844Z" fill="#747474" stroke="#747474" stroke-width="0.1"/>
</svg>
