<svg width="28" height="28" viewBox="0 0 28 28" fill="none" xmlns="http://www.w3.org/2000/svg">
<mask id="path-1-outside-1_938_9763" maskUnits="userSpaceOnUse" x="0.828125" y="0.79248" width="26" height="26" fill="black">
<rect fill="white" x="0.828125" y="0.79248" width="26" height="26"/>
<path d="M19.7579 1.79248C19.7431 1.79283 19.7282 1.79395 19.7135 1.79581C19.606 1.80892 19.5072 1.86141 19.4362 1.94316C19.3651 2.02491 19.3269 2.13009 19.329 2.23836V3.14416C18.9272 3.19558 18.4987 3.32075 18.1113 3.56284C17.5793 3.89534 17.1389 4.49792 17.1389 5.3C17.1387 5.35774 17.1499 5.41496 17.1719 5.46834C17.1939 5.52173 17.2262 5.57027 17.2671 5.6111C17.3079 5.65193 17.3564 5.68423 17.4098 5.70622C17.4632 5.72822 17.5204 5.73945 17.5781 5.73923H21.9514C22.0092 5.73945 22.0664 5.72822 22.1198 5.70622C22.1731 5.68423 22.2216 5.65188 22.2625 5.61105C22.3033 5.57022 22.3356 5.52173 22.3576 5.46834C22.3796 5.41496 22.3908 5.35774 22.3906 5.3C22.3906 4.49792 21.9502 3.89534 21.4182 3.56284C21.0309 3.32075 20.6024 3.19562 20.2006 3.14416V2.23836C20.2016 2.17983 20.1909 2.12171 20.169 2.0674C20.1472 2.01309 20.1146 1.96373 20.0734 1.92222C20.0321 1.88071 19.9829 1.8479 19.9287 1.82574C19.8745 1.80357 19.8165 1.79179 19.7579 1.79248ZM2.70312 2.23766C2.22595 2.23766 1.82812 2.63549 1.82812 3.11267V24.9868C1.82812 25.464 2.22595 25.8619 2.70312 25.8619H11.0156C11.1749 25.8619 11.3242 25.8149 11.454 25.738C11.5836 25.8147 11.7324 25.8619 11.8915 25.8619H25.4523C25.9294 25.8619 26.3273 25.464 26.3273 24.9868V12.7369C26.3273 12.2597 25.9294 11.8618 25.4523 11.8618H18.0874C18.0612 11.8572 18.0346 11.855 18.0079 11.8552C17.9862 11.8558 17.9644 11.858 17.943 11.8618H11.8915V3.11267C11.8915 2.63549 11.4928 2.23766 11.0156 2.23766H2.70312ZM2.70312 3.11267H11.0156V8.80016H2.70312V3.11267ZM19.6169 3.99793C19.712 4.03183 19.8158 4.03183 19.9109 3.99793C20.2518 4.02042 20.6534 4.11732 20.9534 4.30469C21.1462 4.42523 21.1725 4.67472 21.2695 4.86356H18.26C18.357 4.67472 18.3834 4.42518 18.5762 4.30469C18.8757 4.11751 19.2764 4.02068 19.6169 3.99793ZM9.69458 4.41752C9.63713 4.41864 9.58045 4.43103 9.5278 4.45406C9.47515 4.47708 9.42755 4.51023 9.38771 4.55165C9.34788 4.59307 9.3166 4.64195 9.29565 4.69547C9.2747 4.74898 9.2645 4.8061 9.26562 4.86356V7.05018C9.26816 7.16453 9.31537 7.27333 9.39714 7.35331C9.47891 7.43328 9.58875 7.4781 9.70312 7.4781C9.8175 7.4781 9.92734 7.43328 10.0091 7.35331C10.0909 7.27333 10.1381 7.16453 10.1406 7.05018V4.86356C10.1418 4.80466 10.131 4.74612 10.109 4.69148C10.087 4.63684 10.0542 4.58719 10.0126 4.54554C9.9709 4.50389 9.92127 4.47112 9.86663 4.44911C9.81199 4.4271 9.75347 4.41637 9.69458 4.41752ZM2.70312 9.67517H11.0156V24.9868H2.70312V9.67517ZM11.8915 12.7369H17.5781V16.6735H11.8915V12.7369ZM18.454 12.7369H25.4523V24.9868H18.454V12.7369ZM9.69458 13.17C9.57914 13.1723 9.46928 13.2201 9.38893 13.303C9.30858 13.3859 9.26426 13.4972 9.26562 13.6127V15.7984C9.26816 15.9128 9.31537 16.0216 9.39714 16.1016C9.47891 16.1816 9.58875 16.2264 9.70312 16.2264C9.8175 16.2264 9.92734 16.1816 10.0091 16.1016C10.0909 16.0216 10.1381 15.9128 10.1406 15.7984V13.6127C10.1413 13.5541 10.1302 13.4959 10.108 13.4417C10.0858 13.3874 10.0529 13.3382 10.0113 13.2969C9.96971 13.2557 9.92023 13.2232 9.86582 13.2014C9.81142 13.1796 9.75318 13.1689 9.69458 13.17ZM24.1893 14.9252C24.1731 14.9248 24.1568 14.9254 24.1406 14.9268H19.7648C19.7497 14.926 19.7346 14.926 19.7195 14.9268C19.6099 14.9407 19.5096 14.9955 19.4387 15.0802C19.3678 15.1649 19.3316 15.2733 19.3374 15.3836C19.3431 15.494 19.3903 15.598 19.4696 15.675C19.5489 15.7519 19.6543 15.7959 19.7648 15.7983H24.1406C24.199 15.8035 24.2579 15.7968 24.3136 15.7788C24.3694 15.7607 24.421 15.7316 24.4653 15.6932C24.5097 15.6549 24.5458 15.608 24.5717 15.5553C24.5975 15.5027 24.6125 15.4454 24.6158 15.3869C24.619 15.3283 24.6105 15.2697 24.5907 15.2146C24.5708 15.1594 24.5401 15.1088 24.5003 15.0657C24.4606 15.0226 24.4125 14.988 24.3591 14.9638C24.3057 14.9397 24.2479 14.9266 24.1893 14.9252ZM20.2006 16.6735C19.7234 16.6735 19.329 17.0722 19.329 17.5493V20.1752C19.329 20.3346 19.3756 20.4829 19.452 20.6127C19.3758 20.7423 19.329 20.8911 19.329 21.0502V23.236C19.329 23.7131 19.7234 24.1118 20.2006 24.1118H23.7014C24.1786 24.1118 24.5764 23.7131 24.5764 23.236V21.0502C24.5764 20.891 24.5292 20.7424 24.4525 20.6127C24.5295 20.4829 24.5764 20.3346 24.5764 20.1752V17.5493C24.5764 17.0722 24.1786 16.6735 23.7014 16.6735H20.2006ZM11.8915 17.5493H17.5781V24.9868H11.8915V17.5493ZM20.2006 17.5493H23.7014V20.1752H20.2006V17.5493ZM20.2006 21.0502H23.7014V23.236H20.2006V21.0502Z"/>
</mask>
<path d="M19.7579 1.79248C19.7431 1.79283 19.7282 1.79395 19.7135 1.79581C19.606 1.80892 19.5072 1.86141 19.4362 1.94316C19.3651 2.02491 19.3269 2.13009 19.329 2.23836V3.14416C18.9272 3.19558 18.4987 3.32075 18.1113 3.56284C17.5793 3.89534 17.1389 4.49792 17.1389 5.3C17.1387 5.35774 17.1499 5.41496 17.1719 5.46834C17.1939 5.52173 17.2262 5.57027 17.2671 5.6111C17.3079 5.65193 17.3564 5.68423 17.4098 5.70622C17.4632 5.72822 17.5204 5.73945 17.5781 5.73923H21.9514C22.0092 5.73945 22.0664 5.72822 22.1198 5.70622C22.1731 5.68423 22.2216 5.65188 22.2625 5.61105C22.3033 5.57022 22.3356 5.52173 22.3576 5.46834C22.3796 5.41496 22.3908 5.35774 22.3906 5.3C22.3906 4.49792 21.9502 3.89534 21.4182 3.56284C21.0309 3.32075 20.6024 3.19562 20.2006 3.14416V2.23836C20.2016 2.17983 20.1909 2.12171 20.169 2.0674C20.1472 2.01309 20.1146 1.96373 20.0734 1.92222C20.0321 1.88071 19.9829 1.8479 19.9287 1.82574C19.8745 1.80357 19.8165 1.79179 19.7579 1.79248ZM2.70312 2.23766C2.22595 2.23766 1.82812 2.63549 1.82812 3.11267V24.9868C1.82812 25.464 2.22595 25.8619 2.70312 25.8619H11.0156C11.1749 25.8619 11.3242 25.8149 11.454 25.738C11.5836 25.8147 11.7324 25.8619 11.8915 25.8619H25.4523C25.9294 25.8619 26.3273 25.464 26.3273 24.9868V12.7369C26.3273 12.2597 25.9294 11.8618 25.4523 11.8618H18.0874C18.0612 11.8572 18.0346 11.855 18.0079 11.8552C17.9862 11.8558 17.9644 11.858 17.943 11.8618H11.8915V3.11267C11.8915 2.63549 11.4928 2.23766 11.0156 2.23766H2.70312ZM2.70312 3.11267H11.0156V8.80016H2.70312V3.11267ZM19.6169 3.99793C19.712 4.03183 19.8158 4.03183 19.9109 3.99793C20.2518 4.02042 20.6534 4.11732 20.9534 4.30469C21.1462 4.42523 21.1725 4.67472 21.2695 4.86356H18.26C18.357 4.67472 18.3834 4.42518 18.5762 4.30469C18.8757 4.11751 19.2764 4.02068 19.6169 3.99793ZM9.69458 4.41752C9.63713 4.41864 9.58045 4.43103 9.5278 4.45406C9.47515 4.47708 9.42755 4.51023 9.38771 4.55165C9.34788 4.59307 9.3166 4.64195 9.29565 4.69547C9.2747 4.74898 9.2645 4.8061 9.26562 4.86356V7.05018C9.26816 7.16453 9.31537 7.27333 9.39714 7.35331C9.47891 7.43328 9.58875 7.4781 9.70312 7.4781C9.8175 7.4781 9.92734 7.43328 10.0091 7.35331C10.0909 7.27333 10.1381 7.16453 10.1406 7.05018V4.86356C10.1418 4.80466 10.131 4.74612 10.109 4.69148C10.087 4.63684 10.0542 4.58719 10.0126 4.54554C9.9709 4.50389 9.92127 4.47112 9.86663 4.44911C9.81199 4.4271 9.75347 4.41637 9.69458 4.41752ZM2.70312 9.67517H11.0156V24.9868H2.70312V9.67517ZM11.8915 12.7369H17.5781V16.6735H11.8915V12.7369ZM18.454 12.7369H25.4523V24.9868H18.454V12.7369ZM9.69458 13.17C9.57914 13.1723 9.46928 13.2201 9.38893 13.303C9.30858 13.3859 9.26426 13.4972 9.26562 13.6127V15.7984C9.26816 15.9128 9.31537 16.0216 9.39714 16.1016C9.47891 16.1816 9.58875 16.2264 9.70312 16.2264C9.8175 16.2264 9.92734 16.1816 10.0091 16.1016C10.0909 16.0216 10.1381 15.9128 10.1406 15.7984V13.6127C10.1413 13.5541 10.1302 13.4959 10.108 13.4417C10.0858 13.3874 10.0529 13.3382 10.0113 13.2969C9.96971 13.2557 9.92023 13.2232 9.86582 13.2014C9.81142 13.1796 9.75318 13.1689 9.69458 13.17ZM24.1893 14.9252C24.1731 14.9248 24.1568 14.9254 24.1406 14.9268H19.7648C19.7497 14.926 19.7346 14.926 19.7195 14.9268C19.6099 14.9407 19.5096 14.9955 19.4387 15.0802C19.3678 15.1649 19.3316 15.2733 19.3374 15.3836C19.3431 15.494 19.3903 15.598 19.4696 15.675C19.5489 15.7519 19.6543 15.7959 19.7648 15.7983H24.1406C24.199 15.8035 24.2579 15.7968 24.3136 15.7788C24.3694 15.7607 24.421 15.7316 24.4653 15.6932C24.5097 15.6549 24.5458 15.608 24.5717 15.5553C24.5975 15.5027 24.6125 15.4454 24.6158 15.3869C24.619 15.3283 24.6105 15.2697 24.5907 15.2146C24.5708 15.1594 24.5401 15.1088 24.5003 15.0657C24.4606 15.0226 24.4125 14.988 24.3591 14.9638C24.3057 14.9397 24.2479 14.9266 24.1893 14.9252ZM20.2006 16.6735C19.7234 16.6735 19.329 17.0722 19.329 17.5493V20.1752C19.329 20.3346 19.3756 20.4829 19.452 20.6127C19.3758 20.7423 19.329 20.8911 19.329 21.0502V23.236C19.329 23.7131 19.7234 24.1118 20.2006 24.1118H23.7014C24.1786 24.1118 24.5764 23.7131 24.5764 23.236V21.0502C24.5764 20.891 24.5292 20.7424 24.4525 20.6127C24.5295 20.4829 24.5764 20.3346 24.5764 20.1752V17.5493C24.5764 17.0722 24.1786 16.6735 23.7014 16.6735H20.2006ZM11.8915 17.5493H17.5781V24.9868H11.8915V17.5493ZM20.2006 17.5493H23.7014V20.1752H20.2006V17.5493ZM20.2006 21.0502H23.7014V23.236H20.2006V21.0502Z" fill="#747474"/>
<path d="M19.7579 1.79248C19.7431 1.79283 19.7282 1.79395 19.7135 1.79581C19.606 1.80892 19.5072 1.86141 19.4362 1.94316C19.3651 2.02491 19.3269 2.13009 19.329 2.23836V3.14416C18.9272 3.19558 18.4987 3.32075 18.1113 3.56284C17.5793 3.89534 17.1389 4.49792 17.1389 5.3C17.1387 5.35774 17.1499 5.41496 17.1719 5.46834C17.1939 5.52173 17.2262 5.57027 17.2671 5.6111C17.3079 5.65193 17.3564 5.68423 17.4098 5.70622C17.4632 5.72822 17.5204 5.73945 17.5781 5.73923H21.9514C22.0092 5.73945 22.0664 5.72822 22.1198 5.70622C22.1731 5.68423 22.2216 5.65188 22.2625 5.61105C22.3033 5.57022 22.3356 5.52173 22.3576 5.46834C22.3796 5.41496 22.3908 5.35774 22.3906 5.3C22.3906 4.49792 21.9502 3.89534 21.4182 3.56284C21.0309 3.32075 20.6024 3.19562 20.2006 3.14416V2.23836C20.2016 2.17983 20.1909 2.12171 20.169 2.0674C20.1472 2.01309 20.1146 1.96373 20.0734 1.92222C20.0321 1.88071 19.9829 1.8479 19.9287 1.82574C19.8745 1.80357 19.8165 1.79179 19.7579 1.79248ZM2.70312 2.23766C2.22595 2.23766 1.82812 2.63549 1.82812 3.11267V24.9868C1.82812 25.464 2.22595 25.8619 2.70312 25.8619H11.0156C11.1749 25.8619 11.3242 25.8149 11.454 25.738C11.5836 25.8147 11.7324 25.8619 11.8915 25.8619H25.4523C25.9294 25.8619 26.3273 25.464 26.3273 24.9868V12.7369C26.3273 12.2597 25.9294 11.8618 25.4523 11.8618H18.0874C18.0612 11.8572 18.0346 11.855 18.0079 11.8552C17.9862 11.8558 17.9644 11.858 17.943 11.8618H11.8915V3.11267C11.8915 2.63549 11.4928 2.23766 11.0156 2.23766H2.70312ZM2.70312 3.11267H11.0156V8.80016H2.70312V3.11267ZM19.6169 3.99793C19.712 4.03183 19.8158 4.03183 19.9109 3.99793C20.2518 4.02042 20.6534 4.11732 20.9534 4.30469C21.1462 4.42523 21.1725 4.67472 21.2695 4.86356H18.26C18.357 4.67472 18.3834 4.42518 18.5762 4.30469C18.8757 4.11751 19.2764 4.02068 19.6169 3.99793ZM9.69458 4.41752C9.63713 4.41864 9.58045 4.43103 9.5278 4.45406C9.47515 4.47708 9.42755 4.51023 9.38771 4.55165C9.34788 4.59307 9.3166 4.64195 9.29565 4.69547C9.2747 4.74898 9.2645 4.8061 9.26562 4.86356V7.05018C9.26816 7.16453 9.31537 7.27333 9.39714 7.35331C9.47891 7.43328 9.58875 7.4781 9.70312 7.4781C9.8175 7.4781 9.92734 7.43328 10.0091 7.35331C10.0909 7.27333 10.1381 7.16453 10.1406 7.05018V4.86356C10.1418 4.80466 10.131 4.74612 10.109 4.69148C10.087 4.63684 10.0542 4.58719 10.0126 4.54554C9.9709 4.50389 9.92127 4.47112 9.86663 4.44911C9.81199 4.4271 9.75347 4.41637 9.69458 4.41752ZM2.70312 9.67517H11.0156V24.9868H2.70312V9.67517ZM11.8915 12.7369H17.5781V16.6735H11.8915V12.7369ZM18.454 12.7369H25.4523V24.9868H18.454V12.7369ZM9.69458 13.17C9.57914 13.1723 9.46928 13.2201 9.38893 13.303C9.30858 13.3859 9.26426 13.4972 9.26562 13.6127V15.7984C9.26816 15.9128 9.31537 16.0216 9.39714 16.1016C9.47891 16.1816 9.58875 16.2264 9.70312 16.2264C9.8175 16.2264 9.92734 16.1816 10.0091 16.1016C10.0909 16.0216 10.1381 15.9128 10.1406 15.7984V13.6127C10.1413 13.5541 10.1302 13.4959 10.108 13.4417C10.0858 13.3874 10.0529 13.3382 10.0113 13.2969C9.96971 13.2557 9.92023 13.2232 9.86582 13.2014C9.81142 13.1796 9.75318 13.1689 9.69458 13.17ZM24.1893 14.9252C24.1731 14.9248 24.1568 14.9254 24.1406 14.9268H19.7648C19.7497 14.926 19.7346 14.926 19.7195 14.9268C19.6099 14.9407 19.5096 14.9955 19.4387 15.0802C19.3678 15.1649 19.3316 15.2733 19.3374 15.3836C19.3431 15.494 19.3903 15.598 19.4696 15.675C19.5489 15.7519 19.6543 15.7959 19.7648 15.7983H24.1406C24.199 15.8035 24.2579 15.7968 24.3136 15.7788C24.3694 15.7607 24.421 15.7316 24.4653 15.6932C24.5097 15.6549 24.5458 15.608 24.5717 15.5553C24.5975 15.5027 24.6125 15.4454 24.6158 15.3869C24.619 15.3283 24.6105 15.2697 24.5907 15.2146C24.5708 15.1594 24.5401 15.1088 24.5003 15.0657C24.4606 15.0226 24.4125 14.988 24.3591 14.9638C24.3057 14.9397 24.2479 14.9266 24.1893 14.9252ZM20.2006 16.6735C19.7234 16.6735 19.329 17.0722 19.329 17.5493V20.1752C19.329 20.3346 19.3756 20.4829 19.452 20.6127C19.3758 20.7423 19.329 20.8911 19.329 21.0502V23.236C19.329 23.7131 19.7234 24.1118 20.2006 24.1118H23.7014C24.1786 24.1118 24.5764 23.7131 24.5764 23.236V21.0502C24.5764 20.891 24.5292 20.7424 24.4525 20.6127C24.5295 20.4829 24.5764 20.3346 24.5764 20.1752V17.5493C24.5764 17.0722 24.1786 16.6735 23.7014 16.6735H20.2006ZM11.8915 17.5493H17.5781V24.9868H11.8915V17.5493ZM20.2006 17.5493H23.7014V20.1752H20.2006V17.5493ZM20.2006 21.0502H23.7014V23.236H20.2006V21.0502Z" stroke="#747474" stroke-width="0.2" mask="url(#path-1-outside-1_938_9763)"/>
</svg>
