<svg width="16" height="14" viewBox="0 0 16 14" fill="none" xmlns="http://www.w3.org/2000/svg">
<path d="M3.85759 13.5H0.747768V4.82057H3.85759V13.5ZM2.301 3.63661C1.30658 3.63661 0.5 2.92276 0.5 2.06091C0.5 1.64693 0.689748 1.24991 1.0275 0.957179C1.36526 0.664452 1.82335 0.5 2.301 0.5C2.77866 0.5 3.23675 0.664452 3.57451 0.957179C3.91226 1.24991 4.10201 1.64693 4.10201 2.06091C4.10201 2.92276 3.29509 3.63661 2.301 3.63661ZM15.4967 13.5H12.3935V9.27491C12.3935 8.26796 12.3701 6.97664 10.7767 6.97664C9.15982 6.97664 8.91205 8.07064 8.91205 9.20236V13.5H5.80558V4.82057H8.78817V6.00452H8.8317C9.24687 5.32259 10.261 4.60293 11.7741 4.60293C14.9214 4.60293 15.5 6.39917 15.5 8.73226V13.5H15.4967Z" fill="#1873C7"/>
</svg>
