<svg width="25" height="36" viewBox="0 0 25 36" fill="none" xmlns="http://www.w3.org/2000/svg">
<path d="M19.5 10H5.5C4.70435 10 3.94129 10.3161 3.37868 10.8787C2.81607 11.4413 2.5 12.2043 2.5 13V23C2.5 23.7956 2.81607 24.5587 3.37868 25.1213C3.94129 25.6839 4.70435 26 5.5 26H19.5C20.2956 26 21.0587 25.6839 21.6213 25.1213C22.1839 24.5587 22.5 23.7956 22.5 23V13C22.5 12.2043 22.1839 11.4413 21.6213 10.8787C21.0587 10.3161 20.2956 10 19.5 10ZM5.5 12H19.5C19.7652 12 20.0196 12.1054 20.2071 12.2929C20.3946 12.4804 20.5 12.7348 20.5 13L12.5 17.88L4.5 13C4.5 12.7348 4.60536 12.4804 4.79289 12.2929C4.98043 12.1054 5.23478 12 5.5 12ZM20.5 23C20.5 23.2652 20.3946 23.5196 20.2071 23.7071C20.0196 23.8946 19.7652 24 19.5 24H5.5C5.23478 24 4.98043 23.8946 4.79289 23.7071C4.60536 23.5196 4.5 23.2652 4.5 23V15.28L11.98 19.85C12.132 19.9378 12.3045 19.984 12.48 19.984C12.6555 19.984 12.828 19.9378 12.98 19.85L20.5 15.28V23Z" fill="white"/>
</svg>
