<svg width="18" height="19" viewBox="0 0 18 19" fill="none" xmlns="http://www.w3.org/2000/svg">
<g id="notification-bing">
<g id="vuesax/linear/notification-bing">
<g id="notification-bing_2">
<path id="Vector" d="M9 5.33008V7.82758" stroke="#00A7CF" stroke-miterlimit="10" stroke-linecap="round"/>
<path id="Vector_2" d="M9.01517 2C6.25517 2 4.02017 4.235 4.02017 6.995V8.57C4.02017 9.08 3.81017 9.845 3.54767 10.28L2.59517 11.87C2.01017 12.8525 2.41517 13.9475 3.49517 14.3075C7.08017 15.5 10.9577 15.5 14.5427 14.3075C15.5552 13.97 15.9902 12.785 15.4427 11.87L14.4902 10.28C14.2277 9.845 14.0177 9.0725 14.0177 8.57V6.995C14.0102 4.25 11.7602 2 9.01517 2Z" stroke="#00A7CF" stroke-miterlimit="10" stroke-linecap="round"/>
<path id="Vector_3" d="M11.4974 14.615C11.4974 15.9875 10.3724 17.1125 8.99994 17.1125C8.31744 17.1125 7.68744 16.8275 7.23744 16.3775C6.78744 15.9275 6.50244 15.2975 6.50244 14.615" stroke="#00A7CF" stroke-miterlimit="10"/>
</g>
</g>
</g>
</svg>
