<svg width="21" height="36" viewBox="0 0 21 36" fill="none" xmlns="http://www.w3.org/2000/svg">
<g clip-path="url(#clip0_938_7879)">
<path d="M17.9176 19.0395C17.6975 19.0395 17.4674 18.9692 17.2473 18.9191C16.8019 18.8193 16.3639 18.6885 15.9366 18.5279C15.4724 18.3586 14.9622 18.3674 14.5042 18.5526C14.0461 18.7378 13.6725 19.0862 13.4553 19.5309L13.2352 19.9923C12.2635 19.4399 11.3659 18.7658 10.5639 17.9863C9.78631 17.1822 9.11391 16.2823 8.56283 15.3082L9.02306 15.0975C9.46666 14.8798 9.81425 14.5053 9.99896 14.0461C10.1837 13.5868 10.1924 13.0753 10.0236 12.61C9.86468 12.1778 9.73433 11.7355 9.63338 11.286C9.58335 11.0654 9.54333 10.8347 9.51332 10.614C9.39182 9.90747 9.02269 9.26766 8.4724 8.80977C7.92212 8.35189 7.22684 8.10601 6.51178 8.11644H3.50024C3.07727 8.11588 2.65896 8.20495 2.27273 8.37781C1.8865 8.55067 1.54107 8.80341 1.2591 9.11947C0.971267 9.4441 0.756953 9.82736 0.630877 10.2429C0.5048 10.6584 0.46995 11.0964 0.528721 11.5268C1.07259 15.7015 2.97518 19.5797 5.94149 22.5601C8.91436 25.5339 12.7828 27.4413 16.9471 27.9865C17.077 27.9965 17.2074 27.9965 17.3373 27.9865C18.0751 27.9876 18.7875 27.7162 19.3383 27.2242C19.6536 26.9415 19.9057 26.5952 20.0781 26.208C20.2506 25.8208 20.3394 25.4014 20.3389 24.9774V21.9683C20.3335 21.2753 20.0896 20.6053 19.6484 20.0717C19.2073 19.538 18.5959 19.1734 17.9176 19.0395ZM18.4079 25.0577C18.4075 25.1976 18.378 25.336 18.3211 25.4638C18.2643 25.5916 18.1813 25.7061 18.0777 25.7999C17.968 25.9001 17.8375 25.9745 17.6956 26.0179C17.5538 26.0613 17.404 26.0724 17.2573 26.0507C13.5236 25.5618 10.0538 23.856 7.38223 21.196C4.70833 18.5153 2.99201 15.0247 2.49973 11.266C2.47799 11.1188 2.48916 10.9687 2.53242 10.8265C2.57568 10.6842 2.64995 10.5534 2.74986 10.4435C2.84453 10.3383 2.96034 10.2544 3.08968 10.1974C3.21902 10.1403 3.35894 10.1114 3.50024 10.1125H6.50178C6.73306 10.1068 6.95915 10.1817 7.14157 10.3243C7.32399 10.467 7.45146 10.6686 7.50229 10.8948C7.50229 11.1657 7.59233 11.4465 7.65236 11.7173C7.768 12.2428 7.92182 12.759 8.1126 13.262L6.71188 13.924C6.47112 14.0348 6.28402 14.2368 6.19162 14.4857C6.09155 14.7299 6.09155 15.0038 6.19162 15.248C7.63155 18.3401 10.1109 20.8257 13.1952 22.2692C13.4388 22.3695 13.712 22.3695 13.9556 22.2692C14.2039 22.1766 14.4054 21.989 14.5159 21.7476L15.1462 20.3434C15.6624 20.5321 16.1905 20.6862 16.727 20.8048C16.9871 20.865 17.2673 20.9151 17.5374 20.9553C17.7631 21.0062 17.9642 21.134 18.1065 21.3169C18.2488 21.4998 18.3235 21.7264 18.3178 21.9583L18.4079 25.0577ZM12.5048 8.0061C12.2747 8.0061 12.0346 8.0061 11.8045 8.0061C11.5391 8.02872 11.2936 8.15608 11.1219 8.36017C10.9502 8.56426 10.8665 8.82837 10.889 9.09439C10.9116 9.36041 11.0386 9.60656 11.2422 9.77867C11.4458 9.95079 11.7092 10.0348 11.9746 10.0122H12.5048C14.097 10.0122 15.6239 10.6462 16.7497 11.7749C17.8755 12.9035 18.5079 14.4342 18.5079 16.0304C18.5079 16.2109 18.5079 16.3814 18.5079 16.562C18.4857 16.8266 18.5691 17.0892 18.7398 17.2923C18.9105 17.4954 19.1545 17.6223 19.4184 17.6453H19.4984C19.7489 17.6463 19.9906 17.5531 20.1759 17.3841C20.3611 17.2151 20.4764 16.9826 20.4989 16.7325C20.4989 16.5018 20.4989 16.2611 20.4989 16.0304C20.4989 13.9039 19.657 11.8644 18.1581 10.3599C16.6592 8.85535 14.6259 8.00876 12.5048 8.0061ZM14.5059 16.0304C14.5059 16.2964 14.6113 16.5515 14.7989 16.7396C14.9865 16.9277 15.241 17.0334 15.5064 17.0334C15.7717 17.0334 16.0262 16.9277 16.2138 16.7396C16.4015 16.5515 16.5069 16.2964 16.5069 16.0304C16.5069 14.9663 16.0852 13.9458 15.3347 13.1934C14.5842 12.4409 13.5663 12.0182 12.5048 12.0182C12.2395 12.0182 11.985 12.1239 11.7974 12.312C11.6097 12.5001 11.5043 12.7552 11.5043 13.0213C11.5043 13.2873 11.6097 13.5424 11.7974 13.7305C11.985 13.9186 12.2395 14.0243 12.5048 14.0243C13.0355 14.0243 13.5445 14.2356 13.9198 14.6119C14.295 14.9881 14.5059 15.4983 14.5059 16.0304Z" fill="white"/>
</g>
<defs>
<clipPath id="clip0_938_7879">
<rect width="20" height="20" fill="white" transform="translate(0.5 8)"/>
</clipPath>
</defs>
</svg>
