<svg width="12" height="12" viewBox="0 0 12 12" fill="none" xmlns="http://www.w3.org/2000/svg">
<g id="Group 1261153219">
<path id="Rectangle 6251" d="M1.5 5.25C1.5 2.35051 3.85051 0 6.75 0V0C9.64949 0 12 2.35051 12 5.25V5.25C12 8.14949 9.64949 10.5 6.75 10.5V10.5C3.85051 10.5 1.5 8.14949 1.5 5.25V5.25Z" fill="#FDB713"/>
<path id="Rectangle 6252" d="M0 6.75C0 3.85051 2.35051 1.5 5.25 1.5V1.5C8.14949 1.5 10.5 3.85051 10.5 6.75V6.75C10.5 9.64949 8.14949 12 5.25 12V12C2.35051 12 0 9.64949 0 6.75V6.75Z" fill="#B01E59"/>
</g>
</svg>
