<svg width="16" height="16" viewBox="0 0 16 16" fill="none" xmlns="http://www.w3.org/2000/svg">
<path d="M14.2306 7.12869V2.66169C14.2306 1.71842 13.4728 0.95 12.54 0.95H3.46004C2.5272 0.95 1.76951 1.71842 1.76951 2.66169V7.12869C0.72418 7.40176 -0.05 8.36389 -0.05 9.50588V12.8668C-0.05 13.1604 0.185193 13.3995 0.476658 13.3995H1.76948V14.5172C1.76948 14.8109 2.00467 15.05 2.29613 15.05C2.5876 15.05 2.82279 14.8109 2.82279 14.5172V13.3995H13.1772V14.5172C13.1772 14.8109 13.4124 15.05 13.7039 15.05C13.9953 15.05 14.2305 14.8109 14.2305 14.5172V13.3995H15.5233C15.8148 13.3995 16.05 13.1604 16.05 12.8668V9.50588C16.0501 8.36389 15.2759 7.40176 14.2306 7.12869ZM2.82282 2.66169C2.82282 2.30489 3.10935 2.0156 3.46004 2.0156H12.54C12.8907 2.0156 13.1772 2.30489 13.1772 2.66169V7.0506H11.7021V6.33893C11.7021 5.04996 10.6666 4.00031 9.39251 4.00031H6.60762C5.33346 4.00031 4.29805 5.04999 4.29805 6.33893V7.05057H2.82282V2.66169ZM10.6488 6.33893V7.05057H5.3513V6.33893C5.3513 5.6364 5.91549 5.06588 6.60756 5.06588H9.39248C10.0845 5.06585 10.6488 5.63643 10.6488 6.33893ZM1.00332 12.334V9.50588C1.00332 8.73903 1.61919 8.11617 2.37476 8.11617H13.6252C14.3808 8.11617 14.9967 8.73903 14.9967 9.50588V12.334H1.00332Z" fill="#272727" stroke="#272727" stroke-width="0.1"/>
</svg>
