<svg width="52" height="40" viewBox="0 0 52 40" fill="none" xmlns="http://www.w3.org/2000/svg">
<path d="M15.2568 11.6028L15.1118 11.641L15.2568 11.6028L12.5896 1.47494C12.4901 1.0967 12.1126 0.85 11.7031 0.85H4.42739C4.01789 0.85 3.64043 1.0967 3.54084 1.47493C3.54084 1.47493 3.54084 1.47494 3.54083 1.47494L0.873635 11.6028L1.01869 11.641L0.873634 11.6028C0.734451 12.1314 1.21034 12.5985 1.76019 12.5985H7.15471V35.1502H6.55846C4.62853 35.1502 3.02132 36.5172 3.02132 38.2405V38.3397C3.02132 38.8065 3.4497 39.15 3.93194 39.15H12.1986C12.6809 39.15 13.1093 38.8065 13.1093 38.3397V38.2405C13.1091 36.5172 11.5019 35.1503 9.57211 35.1503H8.97586V12.5985H10.6295V19.9194C10.6295 20.3862 11.0579 20.7297 11.5401 20.7297C12.0224 20.7297 12.4508 20.3862 12.4508 19.9194V12.5985H14.3703C14.9201 12.5985 15.396 12.1314 15.2568 11.6028ZM2.90885 10.978L5.14937 2.47061H10.9812L13.2216 10.978H2.90885ZM11.0729 37.5295H5.05747C5.34776 37.0827 5.90634 36.7708 6.55836 36.7708H9.57201C10.2241 36.7708 10.7826 37.0827 11.0729 37.5295Z" fill="black" stroke="#292D32" stroke-width="0.3"/>
<path d="M51.1486 29.5565C51.1485 28.0542 49.9825 26.8098 48.4425 26.4719V24.3249C48.4425 22.1097 46.4222 20.3368 43.9767 20.3368H27.4476C26.9971 20.3368 26.6009 20.6652 26.6009 21.1064C26.6009 21.5475 26.9971 21.8759 27.4476 21.8759H43.9767C45.5224 21.8759 46.7493 22.9907 46.7493 24.325V26.472C45.2092 26.8098 44.0432 28.0543 44.0432 29.5565V31.7074H22.0842V29.5565C22.0842 28.0542 20.9181 26.8098 19.3782 26.472V24.325C19.3782 22.9907 20.6051 21.8759 22.1508 21.8759H24.6611C25.1116 21.8759 25.5078 21.5475 25.5078 21.1064C25.5078 20.6652 25.1116 20.3368 24.6611 20.3368H22.1508C19.7052 20.3368 17.685 22.1097 17.685 24.3249V26.4719C16.145 26.8098 14.9789 28.0542 14.9789 29.5565V38.3801C14.9789 38.8212 15.3749 39.1496 15.8256 39.1496H37.3129C37.7635 39.1496 38.1595 38.8212 38.1595 38.3801C38.1595 37.939 37.7635 37.6105 37.3129 37.6105H22.0842V33.2464H44.0432V37.6105H40.0994C39.6487 37.6105 39.2527 37.939 39.2527 38.3801C39.2527 38.8212 39.6487 39.1496 40.0994 39.1496H50.3019C50.7525 39.1496 51.1486 38.8212 51.1486 38.3801V29.5565ZM16.6722 29.5565C16.6722 28.6702 17.4893 27.9197 18.5315 27.9197C19.5737 27.9197 20.3909 28.6702 20.3909 29.5565V37.6106H16.6722V29.5565ZM45.7365 37.6106V29.5565C45.7365 28.6702 46.5536 27.9197 47.5958 27.9197C48.6379 27.9197 49.4551 28.6702 49.4551 29.5565L49.4552 37.6106H45.7365Z" fill="black" stroke="#292D32" stroke-width="0.3"/>
</svg>
