<svg width="49" height="42" viewBox="0 0 49 42" fill="none" xmlns="http://www.w3.org/2000/svg">
<path d="M48.6122 26.9145C48.6126 26.3779 48.5081 25.8466 48.3046 25.3511C48.1012 24.8556 47.8028 24.4059 47.4267 24.0277L44.7985 21.3674C44.1787 20.7442 43.3754 20.342 42.5099 20.2215C41.6445 20.1011 40.7638 20.2688 40.0007 20.6994L38.1666 18.8429C38.3343 18.0509 38.2168 17.2243 37.8354 16.5123C37.4539 15.8003 36.8337 15.2497 36.0865 14.9599C36.2429 14.5429 36.3167 14.0988 36.3036 13.6529C36.2905 13.207 36.1907 12.7681 36.01 12.3613C35.8293 11.9545 35.5712 11.5876 35.2504 11.2818C34.9296 10.9759 34.5525 10.7371 34.1405 10.5788C34.2929 10.1938 34.3689 9.78218 34.3642 9.36746C34.3634 8.47258 34.0137 7.61417 33.3912 6.97881C33.0554 6.63611 32.6512 6.36982 32.2057 6.19768C32.354 5.80754 32.4298 5.39305 32.4294 4.97505C32.4304 4.53236 32.3438 4.09395 32.1748 3.68565C32.0058 3.27736 31.7577 2.90744 31.4452 2.59771C30.9609 2.11556 30.3435 1.79357 29.6745 1.67431C29.0056 1.55504 28.3166 1.64413 27.6987 1.92979C26.8314 1.06234 25.7007 0.515982 24.489 0.378864C23.2685 0.306503 22.0673 0.711811 21.1339 1.51093C20.5097 1.19908 19.8051 1.09149 19.1178 1.20305C18.4305 1.31461 17.7945 1.6398 17.2979 2.13356C16.7181 2.72224 16.3787 3.51044 16.3473 4.34109C15.5267 4.37287 14.748 4.71644 14.1665 5.30335C13.6689 5.81742 13.3456 6.47819 13.2431 7.19033C13.1406 7.90247 13.2642 8.62916 13.5961 9.26558C13.1793 9.42926 12.7991 9.67559 12.4777 9.9901C12.1639 10.3012 11.9151 10.6729 11.746 11.0833C11.5769 11.4936 11.4911 11.9342 11.4936 12.3788C11.5026 12.9282 11.6406 13.4676 11.8962 13.9523C11.4765 14.1101 11.0951 14.3572 10.7778 14.6768C10.217 15.2352 9.8725 15.9785 9.80684 16.7719C9.74118 17.5654 9.9587 18.3564 10.4199 19.0013L9.22327 20.3145C8.46565 19.8971 7.59538 19.7378 6.74133 19.8601C5.88727 19.9825 5.09484 20.38 4.48139 20.9938L1.79731 23.6428C1.42162 24.0224 1.12357 24.4733 0.920214 24.9696C0.716856 25.4659 0.612183 25.9979 0.612183 26.5352C0.612183 27.0725 0.716856 27.6046 0.920214 28.1009C1.12357 28.5972 1.42162 29.0481 1.79731 29.4277L12.0304 39.7861C12.4054 40.1664 12.8508 40.4681 13.3411 40.6739C13.8314 40.8797 14.357 40.9857 14.8878 40.9857C15.4186 40.9857 15.9442 40.8797 16.4345 40.6739C16.9248 40.4681 17.3702 40.1664 17.7452 39.7861L20.3734 37.137C20.9798 36.5111 21.3714 35.7044 21.4902 34.836C21.609 33.9677 21.4488 33.0836 21.0332 32.3144L22.1516 31.1824C22.9179 30.4181 23.7656 29.7423 24.6791 29.1673L28.1908 32.654C27.7653 33.4264 27.5996 34.3179 27.7187 35.194C27.8377 36.0701 28.235 36.8832 28.8506 37.5106L31.4788 40.171C31.8538 40.5513 32.2992 40.8529 32.7895 41.0588C33.2798 41.2646 33.8054 41.3706 34.3362 41.3706C34.867 41.3706 35.3926 41.2646 35.8829 41.0588C36.3732 40.8529 36.8186 40.5513 37.1936 40.171L47.4267 29.8126C47.8036 29.4327 48.1024 28.981 48.3059 28.4836C48.5094 27.9862 48.6135 27.4529 48.6122 26.9145ZM24.31 2.63167C24.9198 2.70762 25.4928 2.96802 25.954 3.37884L24.612 4.74863L22.9121 3.02789C23.326 2.75181 23.8147 2.6133 24.31 2.63167ZM18.886 3.76374C19.0915 3.55732 19.3681 3.43963 19.6576 3.43544C19.951 3.43669 20.2322 3.5546 20.4405 3.76374L23.7956 7.15994L24.1982 7.56748C24.3965 7.77802 24.5071 8.05773 24.5071 8.3486C24.5071 8.63948 24.3965 8.91919 24.1982 9.12973C23.9897 9.33377 23.711 9.44783 23.4209 9.44783C23.1309 9.44783 22.8522 9.33377 22.6437 9.12973L18.8748 5.31467C18.6714 5.10157 18.5586 4.81623 18.5607 4.51991C18.5628 4.22359 18.6795 3.93991 18.886 3.72978V3.76374ZM15.7434 6.94484C15.9517 6.7357 16.2328 6.61779 16.5262 6.61654C16.6702 6.61485 16.813 6.64312 16.9457 6.6996C17.0785 6.75607 17.1983 6.83954 17.2979 6.94484L21.0668 10.7599C21.2707 10.968 21.387 11.248 21.3911 11.541C21.3899 11.838 21.2734 12.1226 21.0668 12.3335C20.8588 12.5342 20.5825 12.6461 20.2951 12.6461C20.0078 12.6461 19.7314 12.5342 19.5234 12.3335L17.2867 10.0693L15.7434 8.54105C15.5367 8.3302 15.4203 8.04559 15.419 7.74861C15.4136 7.59395 15.4397 7.43982 15.4954 7.29573C15.5512 7.15164 15.6356 7.02066 15.7434 6.91088V6.94484ZM17.9801 15.5033C17.7715 15.7073 17.4929 15.8214 17.2028 15.8214C16.9128 15.8214 16.6341 15.7073 16.4256 15.5033L14.1888 13.2391C13.9849 13.0311 13.8686 12.7511 13.8645 12.458C13.8657 12.161 13.9822 11.8764 14.1888 11.6656C14.3974 11.4615 14.6761 11.3475 14.9661 11.3475C15.2561 11.3475 15.5348 11.4615 15.7434 11.6656L17.9801 13.9297C18.1616 14.1489 18.2544 14.4295 18.2399 14.7151C18.2253 15.0007 18.1046 15.2701 17.9018 15.4693L17.9801 15.5033ZM14.8487 18.673C14.6401 18.8771 14.3614 18.9911 14.0714 18.9911C13.7814 18.9911 13.5027 18.8771 13.2941 18.673L12.5001 17.8806C12.3528 17.6627 12.2854 17.3995 12.3095 17.1366C12.3336 16.8736 12.4478 16.6275 12.6323 16.4408C12.8167 16.2541 13.0598 16.1385 13.3196 16.1141C13.5793 16.0897 13.8393 16.1579 14.0546 16.307L14.8487 17.1108C15.0313 17.3251 15.128 17.6009 15.1197 17.8837C15.1114 18.1666 14.9987 18.4361 14.8039 18.6391L14.8487 18.673ZM18.83 35.5635L16.2131 38.2238C16.0458 38.3936 15.8471 38.5283 15.6283 38.6202C15.4095 38.7121 15.175 38.7594 14.9381 38.7594C14.7013 38.7594 14.4667 38.7121 14.2479 38.6202C14.0292 38.5283 13.8304 38.3936 13.6632 38.2238L3.36302 27.7862C3.19341 27.6179 3.05859 27.4171 2.96643 27.1955C2.87426 26.974 2.8266 26.736 2.82621 26.4956C2.8382 26.0223 3.03055 25.572 3.36302 25.239L5.98 22.59C6.32116 22.2492 6.7812 22.0581 7.26053 22.0581C7.73986 22.0581 8.19991 22.2492 8.54106 22.59L18.7629 32.9484C19.1019 33.2888 19.2945 33.7509 19.2987 34.2343C19.3029 34.7176 19.1184 35.1831 18.7853 35.5295L18.83 35.5635ZM20.6306 29.5635L19.6241 30.5824L10.9344 21.7862L12.1087 20.6542C12.5964 20.99 13.1631 21.1898 13.7515 21.2333C14.3399 21.2768 14.9292 21.1624 15.46 20.9018C15.9908 20.6412 16.4443 20.2435 16.7749 19.7489C17.1054 19.2542 17.3012 18.6801 17.3426 18.0844C18.1613 18.044 18.937 17.7017 19.5234 17.1221C20.096 16.5285 20.4342 15.7433 20.474 14.9146C21.2952 14.876 22.0726 14.5284 22.6539 13.94C23.2352 13.3516 23.5785 12.5647 23.6167 11.7335C24.4341 11.7022 25.2094 11.3583 25.7863 10.7712C26.3379 10.2052 26.6758 9.46125 26.7412 8.66895C26.8066 7.87665 26.5953 7.08623 26.1442 6.43541L28.3138 4.23921C28.5291 4.09009 28.7891 4.02184 29.0488 4.04628C29.3086 4.07071 29.5517 4.18628 29.7362 4.373C29.9206 4.55971 30.0348 4.80582 30.0589 5.06874C30.0831 5.33166 30.0156 5.59486 29.8683 5.81278L28.6717 7.02409C28.4634 7.23619 28.3465 7.52312 28.3465 7.82219C28.3465 8.12127 28.4634 8.40819 28.6717 8.6203C28.7756 8.72641 28.8993 8.81063 29.0356 8.8681C29.1719 8.92557 29.3181 8.95516 29.4657 8.95516C29.6134 8.95516 29.7595 8.92557 29.8958 8.8681C30.0321 8.81063 30.1558 8.72641 30.2598 8.6203C30.4678 8.4196 30.7441 8.30763 31.0314 8.30763C31.3188 8.30763 31.5951 8.4196 31.8031 8.6203C32.0047 8.83139 32.1174 9.1135 32.1174 9.40708C32.1174 9.70067 32.0047 9.98278 31.8031 10.1939L30.6176 11.4052C30.4344 11.6217 30.3387 11.9003 30.3496 12.1852C30.3604 12.4702 30.4771 12.7404 30.6763 12.942C30.8755 13.1436 31.1425 13.2618 31.4239 13.2728C31.7054 13.2838 31.9806 13.1869 32.1945 13.0014C32.4031 12.7973 32.6818 12.6833 32.9718 12.6833C33.2618 12.6833 33.5405 12.7973 33.7491 13.0014C33.9506 13.2125 34.0633 13.4946 34.0633 13.7882C34.0633 14.0818 33.9506 14.3639 33.7491 14.575L32.5524 15.741C32.3441 15.9531 32.2272 16.24 32.2272 16.5391C32.2272 16.8382 32.3441 17.1251 32.5524 17.3372C32.6564 17.4433 32.7801 17.5275 32.9164 17.585C33.0526 17.6425 33.1988 17.6721 33.3465 17.6721C33.4941 17.6721 33.6403 17.6425 33.7766 17.585C33.9128 17.5275 34.0365 17.4433 34.1405 17.3372C34.3558 17.1881 34.6158 17.1198 34.8755 17.1443C35.1353 17.1687 35.3784 17.2843 35.5629 17.471C35.7473 17.6577 35.8615 17.9038 35.8856 18.1667C35.9098 18.4297 35.8423 18.6929 35.695 18.9108L32.6643 21.9787C31.1374 23.5466 29.268 24.7293 27.2066 25.4315C24.7234 26.2763 22.4604 27.6771 20.5859 29.5296L20.6306 29.5635ZM27.9447 27.6164C30.345 26.8068 32.5218 25.4335 34.2971 23.6089L36.914 20.824L38.2896 22.1258L29.6447 30.922L26.7816 28.0239C27.1507 27.8654 27.5198 27.7069 27.9 27.5824L27.9447 27.6164ZM45.8386 28.2503L35.6056 38.5974C35.4383 38.7672 35.2396 38.9019 35.0208 38.9938C34.802 39.0857 34.5675 39.133 34.3306 39.133C34.0938 39.133 33.8592 39.0857 33.6404 38.9938C33.4217 38.9019 33.2229 38.7672 33.0557 38.5974L30.4387 35.9484C30.271 35.779 30.1379 35.5779 30.0471 35.3564C29.9563 35.135 29.9096 34.8976 29.9096 34.6578C29.9096 34.418 29.9563 34.1806 30.0471 33.9592C30.1379 33.7377 30.271 33.5366 30.4387 33.3673L40.6606 23.0089C40.828 22.8374 41.0274 22.7012 41.2473 22.6083C41.4671 22.5154 41.7029 22.4676 41.9411 22.4676C42.1793 22.4676 42.4152 22.5154 42.635 22.6083C42.8548 22.7012 43.0542 22.8374 43.2216 23.0089L45.861 25.6239C46.0306 25.7922 46.1654 25.993 46.2576 26.2146C46.3497 26.4361 46.3974 26.6741 46.3978 26.9145C46.3977 27.1566 46.3501 27.3963 46.258 27.6198C46.1659 27.8432 46.0309 28.046 45.861 28.2164L45.8386 28.2503Z" fill="black"/>
</svg>
