<svg width="38" height="50" viewBox="0 0 38 50" fill="none" xmlns="http://www.w3.org/2000/svg">
<path d="M37.3133 10.7096L27.0355 0.501221C26.8428 0.309814 26.5819 0.202148 26.3088 0.202148H4.72546C2.45921 0.202148 0.61441 2.03343 0.61441 4.28551V45.1189C0.61441 47.3709 2.45921 49.2021 4.72555 49.2021H33.5034C35.7696 49.2021 37.6144 47.3709 37.6144 45.1188V11.4313C37.6144 11.1602 37.506 10.901 37.3133 10.7096ZM27.3366 3.68737L34.1055 10.4105H29.3921C28.2579 10.4105 27.3366 9.49435 27.3366 8.36888V3.68737ZM35.5589 45.1188C35.5589 46.2443 34.6375 47.1604 33.5034 47.1604H4.72555C3.59137 47.1604 2.67003 46.2443 2.67003 45.1188V4.28551C2.67003 3.16004 3.59146 2.24388 4.72555 2.24388H25.2811V8.36888C25.2811 10.6209 27.1259 12.4521 29.3922 12.4521H35.5589V45.1188Z" fill="black"/>
<path d="M32.627 29.5281H15.6221C14.9507 29.5281 14.4074 30.0677 14.4074 30.7345C14.4074 31.4014 14.9507 31.941 15.6221 31.941H32.627C33.2984 31.941 33.8417 31.4014 33.8417 30.7345C33.8417 30.0677 33.2984 29.5281 32.627 29.5281Z" fill="black"/>
<path d="M5.90722 10.2244H20.4829C21.1543 10.2244 21.6976 9.6848 21.6976 9.01796C21.6976 8.35112 21.1543 7.81152 20.4829 7.81152H5.90722C5.23582 7.81152 4.69254 8.35112 4.69254 9.01796C4.69254 9.6848 5.23582 10.2244 5.90722 10.2244Z" fill="black"/>
<path d="M32.6293 22.2898H5.90722C5.23582 22.2898 4.69254 22.8294 4.69254 23.4962C4.69254 24.1631 5.23582 24.7027 5.90722 24.7027H32.6294C33.3008 24.7027 33.8441 24.1631 33.8441 23.4962C33.8439 22.8294 33.3007 22.2898 32.6293 22.2898Z" fill="black"/>
<path d="M4.69254 16.2567C4.69254 16.9236 5.23582 17.4632 5.90722 17.4632H32.6294C33.3008 17.4632 33.8441 16.9236 33.8441 16.2567C33.8441 15.5899 33.3008 15.0503 32.6294 15.0503H5.90722C5.23582 15.0504 4.69254 15.59 4.69254 16.2567Z" fill="black"/>
<path d="M22.5011 40C21.4418 41.9738 19.5011 43 17.5011 44C17.29 43.5252 16.68 42.5694 16.5353 42.0876C16.0419 40.4628 15.6551 39.1798 14.4096 39.1798C13.3444 39.1798 12.8652 40.147 12.1392 41.6104C11.7834 42.3267 11.0456 43.8183 10.7775 44.0056C10.5141 43.9784 10.0634 43.6733 9.56764 43.2138C10.9058 41.4973 11.5011 39.5364 11.5011 38C11.5011 35.3632 9.74562 34.354 8.33645 34.354C6.9036 34.354 4.69254 36.4264 4.69254 39.1798C4.69254 40.4004 5.37338 41.9084 6.3389 43.2315C5.95458 43.6132 5.56309 43.9596 5.17877 44.247C4.64266 44.6464 4.53345 45.4028 4.9344 45.9353C5.50113 46.5 6.00113 46 6.00113 46C6.00113 46 6.28284 45.6625 6.50113 45.5C6.92109 45.1878 7.04803 44.9478 7.50113 44.5C8.45242 45.3413 9.65654 45.5 10.5011 45.5C12.1428 45.5 13.5011 42 14.5011 40.5C15.5011 42 15.4923 45.5 17.0011 45.5C17.4069 45.5 18.4759 46.4184 23.7639 41.2463C24.2431 40.7786 24.2478 40.0152 23.7781 39.5404C23.3083 39.0632 22.9803 39.5346 22.5011 40ZM8.00113 42.0876C6.53589 42.7682 6.3389 39.7972 6.3389 39.1798C6.3389 37.7083 7.50113 36 8.50113 36C9.78891 36 10.0011 36.8512 10.0011 38C10.0011 38.7692 10.0011 41 8.00113 42.0876Z" fill="black"/>
</svg>
