<svg width="44" height="44" viewBox="0 0 44 44" fill="none" xmlns="http://www.w3.org/2000/svg">
<path fill-rule="evenodd" clip-rule="evenodd" d="M30.4738 31.7739C30.302 32.133 30.2056 32.5362 30.2056 32.9615V36.6088C30.2056 37.3353 30.4931 38.0334 31.0056 38.5495L34.6795 42.2501C35.4657 43.0427 36.6524 43.2824 37.6848 42.8572C38.7171 42.4319 39.3904 41.4253 39.3904 40.3093V39.3909H40.3088C41.423 39.3909 42.4278 38.7195 42.8549 37.6898C43.281 36.6602 43.045 35.4754 42.2569 34.6873L38.583 31.0134C38.0668 30.4963 37.366 30.2061 36.6349 30.2061H32.961C32.5358 30.2061 32.1325 30.3025 31.7734 30.4743L22.5886 21.2904C22.2304 20.9322 21.6481 20.9322 21.2899 21.2904C20.9317 21.6486 20.9317 22.2309 21.2899 22.5891L30.4738 31.7739ZM37.5534 40.3093C37.5534 40.6813 37.3293 41.0165 36.9849 41.1589C36.6404 41.3004 36.2455 41.2205 35.9828 40.956L32.3089 37.2554C32.1381 37.0836 32.0425 36.8503 32.0425 36.6088V32.9615C32.0425 32.4545 32.454 32.043 32.961 32.043H36.6349C36.8783 32.043 37.1125 32.1395 37.2843 32.3121L40.9582 35.986C41.2209 36.2487 41.2999 36.6437 41.1575 36.9872C41.0152 37.3298 40.6799 37.5539 40.3088 37.5539H38.4719C38.2276 37.5539 37.9943 37.6513 37.8216 37.8239C37.6498 37.9966 37.5525 38.2299 37.5534 38.4742V40.3093Z" fill="black"/>
<path fill-rule="evenodd" clip-rule="evenodd" d="M28.9781 39.9015C26.7977 40.7575 24.4234 41.2278 21.9398 41.2278C11.2947 41.2278 2.65178 32.5849 2.65178 21.9397C2.65178 11.2945 11.2947 2.65166 21.9398 2.65166C32.585 2.65166 41.2279 11.2945 41.2279 21.9397C41.2279 24.4169 40.7604 26.7856 39.908 28.9606C39.7234 29.4327 39.9567 29.9663 40.4288 30.1509C40.9009 30.3355 41.4336 30.1032 41.6182 29.6311C42.5523 27.2476 43.0649 24.6529 43.0649 21.9397C43.0649 10.2805 33.599 0.814697 21.9398 0.814697C10.2807 0.814697 0.814819 10.2805 0.814819 21.9397C0.814819 33.5989 10.2807 43.0647 21.9398 43.0647C24.6604 43.0647 27.2606 42.5495 29.6496 41.6108C30.1217 41.4262 30.354 40.8925 30.1694 40.4204C29.9839 39.9483 29.4502 39.716 28.9781 39.9015Z" fill="black"/>
<path fill-rule="evenodd" clip-rule="evenodd" d="M27.0574 32.7298C25.5061 33.4674 23.771 33.8798 21.9405 33.8798C15.3504 33.8798 10.0003 28.5296 10.0003 21.9395C10.0003 15.3495 15.3504 9.99931 21.9405 9.99931C28.5306 9.99931 33.8807 15.3495 33.8807 21.9395C33.8807 23.7701 33.4683 25.5051 32.7308 27.0555C32.5131 27.5138 32.7079 28.0621 33.1653 28.2798C33.6236 28.4975 34.1719 28.3027 34.3896 27.8444C35.241 26.0543 35.7177 24.052 35.7177 21.9395C35.7177 14.3355 29.5446 8.16235 21.9405 8.16235C14.3364 8.16235 8.16333 14.3355 8.16333 21.9395C8.16333 29.5436 14.3364 35.7167 21.9405 35.7167C24.053 35.7167 26.0553 35.24 27.8454 34.3886C28.3037 34.1709 28.4985 33.6226 28.2808 33.1643C28.0631 32.7069 27.5148 32.5121 27.0574 32.7298Z" fill="black"/>
<path fill-rule="evenodd" clip-rule="evenodd" d="M22.1955 26.5249C22.1101 26.5295 22.0247 26.5322 21.9392 26.5322C19.4042 26.5322 17.3468 24.4749 17.3468 21.9399C17.3468 19.4048 19.4042 17.3475 21.9392 17.3475C24.4742 17.3475 26.5316 19.4048 26.5316 21.9399C26.5316 22.0253 26.5289 22.1107 26.5243 22.1961C26.4967 22.7022 26.8853 23.1357 27.3913 23.1633C27.8974 23.1917 28.3309 22.8032 28.3585 22.2971C28.3649 22.1787 28.3686 22.0593 28.3686 21.9399C28.3686 18.3918 25.4873 15.5105 21.9392 15.5105C18.3912 15.5105 15.5099 18.3918 15.5099 21.9399C15.5099 25.4879 18.3912 28.3692 21.9392 28.3692C22.0586 28.3692 22.1781 28.3655 22.2965 28.3591C22.8026 28.3316 23.1911 27.898 23.1636 27.3919C23.1351 26.8859 22.7016 26.4973 22.1955 26.5249Z" fill="black"/>
</svg>
