<svg width="48" height="48" viewBox="0 0 48 48" fill="none" xmlns="http://www.w3.org/2000/svg">
<path d="M27.13 19.3551L27.2046 19.4217C26.8373 19.833 26.2062 19.8686 25.7948 19.5013C25.3227 19.0797 24.6864 18.8456 24.0013 18.8456C22.6197 18.8456 21.523 19.8047 21.523 20.952C21.523 22.0993 22.6196 23.0583 24.0014 23.0583C26.4606 23.0583 28.4767 24.8908 28.4767 27.1616C28.4767 29.1092 26.9925 30.7353 25.0195 31.1577L25.0408 32.0421C25.0542 32.5934 24.6181 33.0511 24.0669 33.0644L24.0424 33.0647C23.5022 33.0647 23.0577 32.6335 23.0447 32.0904L23.0225 31.1746C21.8631 30.9476 21.112 30.3231 20.4074 29.6584C20.0062 29.28 19.9877 28.6481 20.3662 28.247C20.7445 27.8459 21.3764 27.8274 21.7775 28.2058C22.1838 28.589 22.5033 28.8527 22.8384 29.0221C23.1706 29.19 23.524 29.268 24.0015 29.268C25.3832 29.268 26.4799 28.3089 26.4799 27.1616C26.4799 26.0143 25.3832 25.0552 24.0015 25.0552C21.5422 25.0552 19.5262 23.2227 19.5262 20.952C19.5262 19.0035 21.0117 17.3769 22.9859 16.9553L22.962 15.957C22.9488 15.4057 23.385 14.9481 23.9363 14.935M27.13 19.3551L23.9387 15.0349M27.13 19.3551L27.2046 19.4217C27.5719 19.0103 27.5363 18.3792 27.125 18.0119C26.5237 17.4748 25.7846 17.1109 24.9831 16.9473M27.13 19.3551L24.8851 17.03M23.9363 14.935L23.9387 15.0349M23.9363 14.935C23.9362 14.935 23.9362 14.935 23.9362 14.935L23.9387 15.0349M23.9363 14.935C24.4861 14.9213 24.9451 15.358 24.9583 15.9092L24.9831 16.9473M23.9387 15.0349C24.4333 15.0226 24.8464 15.4156 24.8583 15.9116L24.8851 17.03M24.9831 16.9473C24.9566 16.9419 24.9301 16.9367 24.9034 16.9317L24.8851 17.03M24.9831 16.9473L24.9851 17.0276L24.8851 17.03M2.2157 20.1241L2.21563 20.1241C1.66901 20.0532 1.16785 20.4381 1.09655 20.985C0.96724 21.9768 0.901648 22.991 0.901648 23.9997C0.901648 30.1698 3.30454 35.9711 7.66742 40.334C12.0302 44.697 17.8315 47.1 24.0015 47.1C30.1714 47.1 35.9727 44.697 40.3357 40.334C44.6987 35.971 47.1016 30.1698 47.1016 23.9997C47.1016 17.8298 44.6987 12.0286 40.3357 7.66568C35.9727 3.30289 30.1715 0.9 24.0015 0.9C20.3807 0.9 16.9132 1.71439 13.696 3.32059L13.7407 3.41006L13.696 3.32059C11.3836 4.47516 9.25956 6.03516 7.44767 7.89403V5.81248C7.44767 5.26104 7.00067 4.81404 6.44923 4.81404C5.8978 4.81404 5.4508 5.26104 5.4508 5.81248V10.5696C5.4508 11.1211 5.8978 11.5681 6.44923 11.5681H11.2058C11.7573 11.5681 12.2043 11.1211 12.2043 10.5696C12.2043 10.0182 11.7573 9.57118 11.2058 9.57118H8.60142C12.5848 5.30801 18.0973 2.89688 24.0015 2.89688C35.6378 2.89688 45.1048 12.3637 45.1048 23.9997C45.1048 35.636 35.6378 45.1031 24.0015 45.1031C12.3653 45.1031 2.89852 35.6361 2.89852 23.9997C2.89852 23.077 2.95844 22.1496 3.07665 21.2432C3.14794 20.6965 2.76255 20.1954 2.2157 20.1241ZM9.65 23.9997C9.65 31.9132 16.088 38.3512 24.0015 38.3512C31.9149 38.3512 38.3529 31.9133 38.3529 23.9998C38.3529 16.0863 31.915 9.64836 24.0015 9.64836C16.088 9.64836 9.65 16.0862 9.65 23.9997ZM36.3561 23.9997C36.3561 30.812 30.8137 36.3543 24.0015 36.3543C17.1892 36.3543 11.6469 30.812 11.6469 23.9997C11.6469 17.1875 17.1892 11.6451 24.0015 11.6451C30.8137 11.6451 36.3561 17.1875 36.3561 23.9997Z" fill="black" stroke="black" stroke-width="0.2"/>
</svg>
