<svg width="49" height="34" viewBox="0 0 49 34" fill="none" xmlns="http://www.w3.org/2000/svg">
<path d="M1.65115 33.3661H47.5732C47.7921 33.3661 48.002 33.2792 48.1568 33.1244C48.3116 32.9696 48.3986 32.7597 48.3986 32.5408C48.3986 32.3219 48.3116 32.112 48.1568 31.9572C48.002 31.8024 47.7921 31.7155 47.5732 31.7155H1.65115C1.43227 31.7155 1.22234 31.8024 1.06756 31.9572C0.912784 32.112 0.82583 32.3219 0.82583 32.5408C0.82583 32.7597 0.912784 32.9696 1.06756 33.1244C1.22234 33.2792 1.43226 33.3661 1.65115 33.3661Z" fill="black" stroke="black" stroke-width="0.3"/>
<path d="M6.37796 29.2664H12.0005C12.1106 29.2704 12.2204 29.2523 12.3234 29.2132L12.2702 29.073C12.3552 29.0407 12.4329 28.9915 12.4985 28.9284C12.5641 28.8653 12.6163 28.7897 12.6519 28.7059C12.6875 28.6222 12.7058 28.5321 12.7058 28.4411H12.8558V28.441V20.7356C12.8558 20.5167 12.7688 20.3068 12.614 20.152C12.4592 19.9973 12.2493 19.9103 12.0304 19.9103H6.37796C6.15907 19.9103 5.94915 19.9973 5.79437 20.152C5.63959 20.3068 5.55264 20.5167 5.55264 20.7356V28.4411C5.55264 28.66 5.63959 28.8699 5.79437 29.0247C5.94915 29.1795 6.15907 29.2664 6.37796 29.2664ZM11.2051 21.561V27.6158H7.20329V21.561H11.2051Z" fill="black" stroke="black" stroke-width="0.3"/>
<path d="M16.6378 29.2665H22.2971C22.516 29.2665 22.7259 29.1795 22.8807 29.0247C23.0354 28.8699 23.1224 28.66 23.1224 28.4411V10.491C23.1224 10.2721 23.0354 10.0622 22.8807 9.90741C22.7259 9.75263 22.516 9.66567 22.2971 9.66567H16.6378C16.419 9.66567 16.209 9.75263 16.0543 9.90741C15.8995 10.0622 15.8125 10.2721 15.8125 10.491V28.4411C15.8125 28.66 15.8995 28.8699 16.0543 29.0247C16.209 29.1795 16.419 29.2665 16.6378 29.2665ZM21.4717 11.3163V27.6158H17.4632V11.3163H21.4717Z" fill="black" stroke="black" stroke-width="0.3"/>
<path d="M26.9292 29.2665H32.5885C32.8073 29.2665 33.0173 29.1795 33.172 29.0247C33.3268 28.87 33.4138 28.66 33.4138 28.4411V13.503C33.4138 13.2841 33.3268 13.0741 33.172 12.9194C33.0173 12.7646 32.8073 12.6776 32.5885 12.6776H26.9292C26.7103 12.6776 26.5004 12.7646 26.3456 12.9194C26.1909 13.0741 26.1039 13.2841 26.1039 13.503V28.4411C26.1039 28.66 26.1909 28.87 26.3456 29.0247C26.5004 29.1795 26.7103 29.2665 26.9292 29.2665ZM31.7631 14.3283V27.6158H27.7546V14.3283H31.7631Z" fill="black" stroke="black" stroke-width="0.3"/>
<path d="M37.2205 29.2663H42.8459C43.0648 29.2663 43.2748 29.1794 43.4295 29.0246C43.5843 28.8698 43.6713 28.6599 43.6713 28.441V1.52933C43.6713 1.31044 43.5843 1.10052 43.4295 0.945737C43.2748 0.790959 43.0648 0.704004 42.8459 0.704004H37.2205C37.0016 0.704004 36.7917 0.790959 36.6369 0.945737C36.4821 1.10051 36.3952 1.31044 36.3952 1.52933V28.441C36.3952 28.6599 36.4821 28.8698 36.6369 29.0246C36.7917 29.1794 37.0016 29.2663 37.2205 29.2663ZM42.0206 2.35465V27.6157H38.019L38.0457 2.35465H42.0206Z" fill="black" stroke="black" stroke-width="0.3"/>
<path d="M11.0084 7.10407C11.5708 7.4813 12.2323 7.68338 12.9095 7.68478C13.3599 7.6857 13.8061 7.59779 14.2225 7.42607C14.6389 7.25435 15.0173 7.00218 15.3361 6.68402C15.655 6.36586 15.9079 5.98794 16.0805 5.5719C16.2531 5.15586 16.3419 4.70986 16.3419 4.25945C16.3419 3.58229 16.1412 2.92031 15.7651 2.35718C15.389 1.79404 14.8545 1.355 14.229 1.09554C13.6035 0.836082 12.9152 0.767839 12.2509 0.899434C11.5867 1.03103 10.9763 1.35656 10.497 1.83489C10.0177 2.31323 9.69088 2.9229 9.55792 3.58688C9.42495 4.25086 9.49178 4.93936 9.74995 5.56538C10.0081 6.1914 10.4461 6.72685 11.0084 7.10407ZM11.9254 2.79408C12.2166 2.59805 12.5593 2.49276 12.9103 2.49153C13.1434 2.49071 13.3743 2.5358 13.59 2.62423C13.8056 2.71266 14.0017 2.84269 14.167 3.00691C14.3324 3.17113 14.4638 3.36631 14.5538 3.58131C14.6437 3.79631 14.6904 4.02692 14.6912 4.25997C14.6925 4.61097 14.5896 4.95445 14.3956 5.24697C14.2016 5.5395 13.9253 5.76793 13.6015 5.90339C13.2777 6.03884 12.9209 6.07524 12.5765 6.00797C12.232 5.9407 11.9152 5.77279 11.6661 5.52547C11.417 5.27815 11.2469 4.96253 11.1772 4.61852C11.1075 4.27451 11.1414 3.91756 11.2746 3.59281C11.4078 3.26807 11.6343 2.9901 11.9254 2.79408Z" fill="black" stroke="black" stroke-width="0.3"/>
<path d="M13.2191 14.511L13.2191 14.5111L13.2247 14.5109C13.3336 14.5073 13.4408 14.482 13.54 14.4367L13.4776 14.3003L13.54 14.4367C13.639 14.3914 13.7281 14.327 13.8021 14.2472C13.8022 14.2471 13.8023 14.2469 13.8024 14.2468L20.555 7.04178L20.5553 7.04147C20.7051 6.88072 20.785 6.66705 20.7772 6.44745C20.7695 6.22785 20.6748 6.02032 20.5141 5.87051C20.3533 5.7207 20.1397 5.64088 19.9201 5.64861C19.7005 5.65634 19.4931 5.75093 19.3433 5.91159C19.3432 5.91164 19.3432 5.91169 19.3431 5.91174L12.5902 13.1171L12.5901 13.1171L12.5877 13.1199C12.515 13.2014 12.4592 13.2966 12.4235 13.3998L12.5649 13.4486L12.4235 13.3998C12.3879 13.5031 12.3731 13.6124 12.38 13.7214C12.3869 13.8304 12.4154 13.937 12.4638 14.0349C12.5118 14.132 12.5784 14.2187 12.6599 14.29C12.8118 14.4314 13.0115 14.5103 13.2191 14.511Z" fill="black" stroke="black" stroke-width="0.3"/>
</svg>
