<svg width="50" height="50" viewBox="0 0 50 50" fill="none" xmlns="http://www.w3.org/2000/svg">
<path d="M48.1061 28.1944V21.806C48.1061 21.2871 47.6855 20.8665 47.1666 20.8665H43.6513C43.1641 18.6525 42.2934 16.5823 41.1111 14.73L43.5956 12.2455C43.9625 11.8786 43.9625 11.2838 43.5956 10.9168L39.0784 6.39953C38.7114 6.03266 38.1166 6.03266 37.7497 6.39953L35.2652 8.88407C33.4129 7.70174 31.3427 6.83112 29.1287 6.34391V2.82858C29.1287 2.30971 28.7081 1.8891 28.1892 1.8891H21.8007C21.2819 1.8891 20.8613 2.30971 20.8613 2.82858V6.34908C18.6504 6.83864 16.5833 7.71038 14.7339 8.89327L12.2403 6.39953C11.8733 6.03266 11.2785 6.03266 10.9116 6.39953L6.39428 10.9168C6.02741 11.2838 6.02741 11.8786 6.39428 12.2455L8.89347 14.7447C7.71584 16.5932 6.84851 18.6583 6.36252 20.8665H2.82333C2.30445 20.8665 1.88385 21.2871 1.88385 21.806V28.1944C1.88385 28.7133 2.30445 29.1339 2.82333 29.1339H6.36769C6.85593 31.339 7.72457 33.4009 8.90268 35.2466L6.39428 37.7549C6.02741 38.1219 6.02741 38.7167 6.39428 39.0836L10.9116 43.6009C11.2785 43.9678 11.8733 43.9678 12.2403 43.6009L14.7486 41.0925C16.5943 42.2706 18.6562 43.1392 20.8613 43.6275V47.1719C20.8613 47.6907 21.2819 48.1113 21.8007 48.1113H28.1892C28.7081 48.1113 29.1287 47.6907 29.1287 47.1719V43.6327C31.3369 43.1467 33.402 42.2793 35.2505 41.1017L37.7497 43.6009C38.1166 43.9678 38.7114 43.9678 39.0784 43.6009L43.5956 39.0836C43.9625 38.7167 43.9625 38.1219 43.5956 37.7549L41.1019 35.2613C42.2848 33.4119 43.1565 31.3448 43.6461 29.1339H47.1666C47.6855 29.1339 48.1061 28.7133 48.1061 28.1944Z" stroke="black" stroke-width="1.9" stroke-miterlimit="10" stroke-linecap="round" stroke-linejoin="round"/>
<path d="M36.446 19.27C38.8331 24.0486 38.0342 30.0128 34.0494 33.9976C29.0654 38.9816 20.9847 38.9816 16.0007 33.9976C11.0168 29.0137 11.0168 20.9329 16.0007 15.949C20.1356 11.8141 26.4019 11.1096 31.2631 13.8357" stroke="black" stroke-width="1.9" stroke-miterlimit="10" stroke-linecap="round" stroke-linejoin="round"/>
<path d="M28.9106 18.9988L23.6934 24.2159L21.1248 21.6473L17.7589 25.0133L20.3275 27.5819L23.6934 30.9478L32.2765 22.3647L28.9106 18.9988Z" stroke="black" stroke-width="1.9" stroke-miterlimit="10" stroke-linecap="round" stroke-linejoin="round"/>
</svg>
