<svg width="49" height="49" viewBox="0 0 49 49" fill="none" xmlns="http://www.w3.org/2000/svg">
<path d="M0.462183 24.3705V24.5205H0.612183H2.45834H2.60834V24.3705C2.60834 12.2411 12.4827 2.36675 24.6122 2.36675H24.7622V2.21675V0.370605V0.220605H24.6122C11.2924 0.220605 0.462183 11.0508 0.462183 24.3705Z" fill="black" stroke="black" stroke-width="0.3"/>
<path d="M46.766 24.2206H46.616V24.3706C46.616 36.5 36.7416 46.3743 24.6122 46.3743H24.4622V46.5243V48.3705V48.5205H24.6122C37.9319 48.5205 48.7622 37.6903 48.7622 24.3706V24.2206H48.6122H46.766Z" fill="black" stroke="black" stroke-width="0.3"/>
<path d="M28.7622 0.370605V0.220605H28.6122H26.6122H26.4622V0.370605V2.3706V2.5206H26.6122H28.6122H28.7622V2.3706V0.370605Z" fill="black" stroke="black" stroke-width="0.3"/>
<path d="M22.7622 46.3701V46.2201H22.6122H20.6122H20.4622V46.3701V48.3701V48.5201H20.6122H22.6122H22.7622V48.3701V46.3701Z" fill="black" stroke="black" stroke-width="0.3"/>
<path d="M6.46218 24.3705C6.46218 34.3803 14.6023 42.5204 24.6122 42.5204C34.622 42.5204 42.7622 34.3803 42.7622 24.3705C42.7622 14.3607 34.622 6.22061 24.6122 6.22061C14.6023 6.22061 6.46218 14.3607 6.46218 24.3705ZM40.6622 24.3705C40.6622 33.2246 33.4663 40.4204 24.6122 40.4204C15.758 40.4204 8.56218 33.2246 8.56218 24.3705C8.56218 15.5164 15.758 8.3206 24.6122 8.3206C33.4663 8.3206 40.6622 15.5164 40.6622 24.3705Z" fill="black" stroke="black" stroke-width="0.3"/>
<path d="M32.5691 31.9833L32.5685 31.9839C30.4846 34.1635 27.6577 35.3633 24.6273 35.3633C18.5493 35.3633 13.6102 30.4354 13.6102 24.3727C13.6102 22.5868 14.0323 20.8838 14.8588 19.2989L14.859 19.2983C15.1711 18.6941 15.5379 18.1271 15.95 17.6154L16.0451 17.4973L15.926 17.4035L14.465 16.2523L14.3473 16.1596L14.2544 16.2771C13.7646 16.8974 13.3222 17.583 12.9457 18.3058C11.9664 20.166 11.4583 22.2695 11.4583 24.3727C11.4583 31.623 17.3699 37.52 24.6366 37.52C28.2598 37.52 31.6397 36.0832 34.1342 33.4822C34.7371 32.8619 35.2736 32.1762 35.7347 31.4534L35.8154 31.3269L35.6889 31.2462L34.1162 30.2436L33.9898 30.1629L33.9091 30.2894C33.5238 30.8934 33.0741 31.4611 32.5691 31.9833Z" fill="black" stroke="black" stroke-width="0.3"/>
<path d="M37.4106 27.3995C37.6419 26.4138 37.7622 25.3999 37.7622 24.3672C37.7622 17.1198 31.9506 11.2208 24.8017 11.2208C23.0902 11.2208 21.4146 11.555 19.8391 12.2234H19.8207L19.7925 12.2355C18.6258 12.7334 17.5243 13.4096 16.5159 14.2543L16.4021 14.3496L16.4962 14.4643L17.6674 15.8939L17.7637 16.0115L17.88 15.9136C18.7291 15.1989 19.6496 14.6314 20.6234 14.2197C21.95 13.6613 23.3576 13.3775 24.8017 13.3775C30.7744 13.3775 35.6321 18.3026 35.6321 24.3672C35.6321 25.2283 35.5328 26.0803 35.3431 26.905L35.3429 26.906C35.2167 27.4728 35.0365 28.0395 34.8023 28.5878L34.7436 28.7254L34.881 28.7845L36.5647 29.5086L36.7034 29.5682L36.7621 29.4291C37.0404 28.7704 37.2534 28.0844 37.4106 27.3995ZM37.4106 27.3995C37.4106 27.3996 37.4105 27.3997 37.4105 27.3999L37.2645 27.3656L37.4107 27.3992C37.4106 27.3993 37.4106 27.3994 37.4106 27.3995Z" fill="black" stroke="black" stroke-width="0.3"/>
</svg>
