<svg width="24" height="24" viewBox="0 0 24 24" fill="none" xmlns="http://www.w3.org/2000/svg">
<g id="shield (1) 1">
<path id="Vector" d="M20.8334 4.31324C20.5668 4.04542 20.2047 3.89437 19.8268 3.89324H19.0268C17.3508 3.88746 15.7079 3.42661 14.2734 2.5599L12.3668 1.43324C12.256 1.36685 12.1293 1.33179 12.0001 1.33179C11.8709 1.33179 11.7442 1.36685 11.6334 1.43324L9.73343 2.57324C8.29897 3.43994 6.65605 3.90079 4.9801 3.90657H4.1801C3.9925 3.90569 3.80659 3.94199 3.6331 4.01337C3.45961 4.08476 3.30198 4.18981 3.16933 4.32246C3.03667 4.45512 2.93162 4.61274 2.86023 4.78623C2.78885 4.95972 2.75255 5.14564 2.75343 5.33324V10.7466C2.76314 13.0427 3.42418 15.2889 4.65974 17.2243C5.89531 19.1597 7.65468 20.7047 9.73343 21.6799L11.7334 22.5999C11.8274 22.6435 11.9298 22.6661 12.0334 22.6661C12.1371 22.6661 12.2394 22.6435 12.3334 22.5999L14.3334 21.6799C16.4028 20.6937 18.1504 19.1414 19.374 17.2029C20.5975 15.2644 21.2468 13.0189 21.2468 10.7266V5.33324C21.2492 5.14427 21.2139 4.95672 21.1429 4.78157C21.072 4.60642 20.9667 4.4472 20.8334 4.31324ZM4.97343 5.33324C6.91041 5.3282 8.80945 4.79582 10.4668 3.79324L12.0001 2.87324L13.5401 3.79324C15.1955 4.79466 17.0921 5.32699 19.0268 5.33324H19.8268V7.46657H19.0268C17.3508 7.46079 15.7079 6.99994 14.2734 6.13324L12.3668 4.99324C12.256 4.92685 12.1293 4.89179 12.0001 4.89179C11.8709 4.89179 11.7442 4.92685 11.6334 4.99324L9.73343 6.13324C8.29897 6.99994 6.65605 7.46079 4.9801 7.46657H4.1801V5.33324H4.97343ZM13.6401 20.4132L12.0001 21.1732L10.3334 20.3932C8.49732 19.5305 6.94411 18.1638 5.85471 16.4524C4.76531 14.741 4.18456 12.7553 4.1801 10.7266V8.87324H4.9801C6.91481 8.86699 8.81138 8.33466 10.4668 7.33324L12.0001 6.42657L13.5401 7.33324C15.1975 8.32764 17.0939 8.85303 19.0268 8.85324H19.8268V10.7066C19.8255 12.7394 19.2455 14.7299 18.1547 16.4452C17.0638 18.1606 15.5072 19.53 13.6668 20.3932L13.6401 20.4132Z" fill="black"/>
<path id="Vector_2" d="M11.8667 15.3C11.6794 15.2994 11.4998 15.2252 11.3667 15.0933L9.3667 13.0933L10.3734 12.0867L11.86 13.5733L14.3467 11.0867L15.3334 12.1L12.3467 15.0867C12.2197 15.2162 12.048 15.2925 11.8667 15.3Z" fill="black"/>
</g>
</svg>
