<svg width="28" height="28" viewBox="0 0 28 28" fill="none" xmlns="http://www.w3.org/2000/svg">
<path d="M24.5599 13.2115V6.49253C24.5599 5.08651 23.3131 3.95 21.7899 3.95H6.73639C5.21319 3.95 3.96655 5.08652 3.96655 6.49253V13.2115C2.23863 13.6096 0.95 15.046 0.95 16.7588V21.8001C0.95 22.2317 1.33039 22.5743 1.79025 22.5743H3.9665V24.2758C3.9665 24.7074 4.34689 25.05 4.80675 25.05C5.26661 25.05 5.647 24.7074 5.647 24.2758V22.5743H22.8793V24.2758C22.8793 24.7074 23.2597 25.05 23.7196 25.05C24.1794 25.05 24.5598 24.7074 24.5598 24.2758V22.5743H26.7361C27.1959 22.5743 27.5763 22.2317 27.5763 21.8001V16.7588C27.5764 15.046 26.2878 13.6096 24.5599 13.2115ZM5.64705 6.49253C5.64705 5.94845 6.13162 5.4984 6.73639 5.4984H21.79C22.3948 5.4984 22.8794 5.94845 22.8794 6.49253V13.1009H20.3679V12.0084C20.3679 10.0838 18.6608 8.52547 16.5718 8.52547H11.9547C9.86568 8.52547 8.15861 10.0839 8.15861 12.0084V13.1008H5.64705V6.49253ZM18.6874 12.0084V13.1008H9.839V12.0084C9.839 10.9457 10.7839 10.0738 11.9546 10.0738H16.5717C17.7424 10.0738 18.6874 10.9458 18.6874 12.0084ZM2.6305 21.026V16.7588C2.6305 15.5997 3.66108 14.6493 4.9371 14.6493H23.5892C24.8652 14.6493 25.8958 15.5997 25.8958 16.7588V21.026H2.6305Z" fill="#747474" stroke="#747474" stroke-width="0.1"/>
</svg>
