<svg width="20" height="20" viewBox="0 0 20 20" fill="none" xmlns="http://www.w3.org/2000/svg">
<g id="single-bed 1">
<g id="Group">
<g id="Group_2">
<path id="Vector" d="M16.2306 9.12869V4.66169C16.2306 3.71842 15.4728 2.95 14.54 2.95H5.46004C4.5272 2.95 3.76951 3.71842 3.76951 4.66169V9.12869C2.72418 9.40176 1.95 10.3639 1.95 11.5059V14.8668C1.95 15.1604 2.18519 15.3995 2.47666 15.3995H3.76948V16.5172C3.76948 16.8109 4.00467 17.05 4.29613 17.05C4.5876 17.05 4.82279 16.8109 4.82279 16.5172V15.3995H15.1772V16.5172C15.1772 16.8109 15.4124 17.05 15.7039 17.05C15.9953 17.05 16.2305 16.8109 16.2305 16.5172V15.3995H17.5233C17.8148 15.3995 18.05 15.1604 18.05 14.8668V11.5059C18.0501 10.3639 17.2759 9.40176 16.2306 9.12869ZM4.82282 4.66169C4.82282 4.30489 5.10935 4.0156 5.46004 4.0156H14.54C14.8907 4.0156 15.1772 4.30489 15.1772 4.66169V9.0506H13.7021V8.33893C13.7021 7.04996 12.6666 6.00031 11.3925 6.00031H8.60762C7.33346 6.00031 6.29805 7.04999 6.29805 8.33893V9.05057H4.82282V4.66169ZM12.6488 8.33893V9.05057H7.3513V8.33893C7.3513 7.6364 7.91549 7.06588 8.60756 7.06588H11.3925C12.0845 7.06585 12.6488 7.63643 12.6488 8.33893ZM3.00332 14.334V11.5059C3.00332 10.739 3.61919 10.1162 4.37476 10.1162H15.6252C16.3808 10.1162 16.9967 10.739 16.9967 11.5059V14.334H3.00332Z" fill="black" stroke="black" stroke-width="0.1"/>
</g>
</g>
</g>
</svg>
