<svg width="24" height="24" viewBox="0 0 24 24" fill="none" xmlns="http://www.w3.org/2000/svg">
<g id="smart-door 1">
<g id="Group">
<g id="Group_2">
<path id="Vector" d="M4.95 18.3938C4.95 20.965 7.21932 23.05 10.0001 23.05C12.7807 23.05 15.05 20.965 15.05 18.3938V17.3281C15.05 17.1069 14.8566 16.9344 14.6268 16.9344C14.3971 16.9344 14.2037 17.1069 14.2037 17.3281V18.3938C14.2037 20.5233 12.3219 22.2625 10 22.2625C7.67814 22.2625 5.79627 20.5233 5.79627 18.3938V5.60621C5.79627 3.47684 7.67818 1.7375 10.0001 1.7375C12.322 1.7375 14.2037 3.47683 14.2037 5.60621V15.1968C14.2037 15.418 14.3971 15.5905 14.6269 15.5905C14.8566 15.5905 15.05 15.418 15.05 15.1968V5.60621C15.05 3.03497 12.7807 0.95 10.0001 0.95C7.21932 0.95 4.95 3.03497 4.95 5.60621V18.3938Z" fill="black" stroke="black" stroke-width="0.1"/>
<path id="Vector_2" d="M12.7875 14.9925L12.7875 14.9925C12.8971 15.1804 12.8337 15.4216 12.6458 15.531L12.6458 15.531C12.4575 15.6405 12.2167 15.577 12.1073 15.3892C11.7966 14.8564 11.2209 14.5253 10.605 14.5253C9.64692 14.5253 8.86738 15.3047 8.86738 16.2627C8.86738 17.2207 9.64688 18.0003 10.605 18.0003C11.2021 18.0003 11.7503 17.6992 12.0718 17.1946C12.1886 17.0112 12.4318 16.9568 12.6155 17.0741L12.7875 14.9925ZM12.7875 14.9925C12.3363 14.2186 11.5001 13.7378 10.605 13.7378C9.21258 13.7378 8.07988 14.8705 8.07988 16.2628C8.07988 17.6551 9.21258 18.7878 10.605 18.7878C11.4725 18.7878 12.2692 18.3502 12.736 17.6176L12.7875 14.9925Z" fill="black" stroke="black" stroke-width="0.1"/>
<path id="Vector_3" d="M11.6686 17.7216H16.9968C17.8016 17.7216 18.4561 17.0669 18.4561 16.2622C18.4561 15.4575 17.8016 14.8028 16.9968 14.8028H11.6686C10.8639 14.8028 10.2093 15.4575 10.2093 16.2622C10.2093 17.0669 10.8639 17.7216 11.6686 17.7216ZM10.9968 16.2622C10.9968 15.8917 11.2982 15.5903 11.6686 15.5903H16.9968C17.3672 15.5903 17.6686 15.8917 17.6686 16.2622C17.6686 16.6327 17.3672 16.9341 16.9968 16.9341H11.6686C11.2982 16.9341 10.9968 16.6327 10.9968 16.2622Z" fill="black" stroke="black" stroke-width="0.1"/>
</g>
<path id="Vector_4" d="M7.53281 7.11562C7.85469 7.11562 8.11563 6.85469 8.11563 6.53281C8.11563 6.21093 7.85469 5.95 7.53281 5.95C7.21093 5.95 6.95 6.21093 6.95 6.53281C6.95 6.85469 7.21093 7.11562 7.53281 7.11562Z" fill="black" stroke="black" stroke-width="0.1"/>
<path id="Vector_5" d="M9.79844 7.11562C10.1203 7.11562 10.3813 6.85469 10.3813 6.53281C10.3813 6.21093 10.1203 5.95 9.79844 5.95C9.47656 5.95 9.21562 6.21093 9.21562 6.53281C9.21562 6.85469 9.47656 7.11562 9.79844 7.11562Z" fill="black" stroke="black" stroke-width="0.1"/>
<path id="Vector_6" d="M12.0641 7.11562C12.3859 7.11562 12.6469 6.85469 12.6469 6.53281C12.6469 6.21093 12.3859 5.95 12.0641 5.95C11.7422 5.95 11.4812 6.21093 11.4812 6.53281C11.4812 6.85469 11.7422 7.11562 12.0641 7.11562Z" fill="black" stroke="black" stroke-width="0.1"/>
<path id="Vector_7" d="M7.53281 9.18105C7.85469 9.18105 8.11563 8.92012 8.11563 8.59824C8.11563 8.27636 7.85469 8.01543 7.53281 8.01543C7.21093 8.01543 6.95 8.27636 6.95 8.59824C6.95 8.92012 7.21093 9.18105 7.53281 9.18105Z" fill="black" stroke="black" stroke-width="0.1"/>
<path id="Vector_8" d="M9.79844 9.18105C10.1203 9.18105 10.3813 8.92012 10.3813 8.59824C10.3813 8.27636 10.1203 8.01543 9.79844 8.01543C9.47656 8.01543 9.21562 8.27636 9.21562 8.59824C9.21562 8.92012 9.47656 9.18105 9.79844 9.18105Z" fill="black" stroke="black" stroke-width="0.1"/>
<path id="Vector_9" d="M12.0641 9.18105C12.3859 9.18105 12.6469 8.92012 12.6469 8.59824C12.6469 8.27636 12.3859 8.01543 12.0641 8.01543C11.7422 8.01543 11.4812 8.27636 11.4812 8.59824C11.4812 8.92012 11.7422 9.18105 12.0641 9.18105Z" fill="black" stroke="black" stroke-width="0.1"/>
<path id="Vector_10" d="M7.53281 11.2465C7.85469 11.2465 8.11563 10.9856 8.11563 10.6637C8.11563 10.3418 7.85469 10.0809 7.53281 10.0809C7.21093 10.0809 6.95 10.3418 6.95 10.6637C6.95 10.9856 7.21093 11.2465 7.53281 11.2465Z" fill="black" stroke="black" stroke-width="0.1"/>
<path id="Vector_11" d="M9.79844 11.2465C10.1203 11.2465 10.3813 10.9856 10.3813 10.6637C10.3813 10.3418 10.1203 10.0809 9.79844 10.0809C9.47656 10.0809 9.21562 10.3418 9.21562 10.6637C9.21562 10.9856 9.47656 11.2465 9.79844 11.2465Z" fill="black" stroke="black" stroke-width="0.1"/>
<path id="Vector_12" d="M12.0641 11.2465C12.3859 11.2465 12.6469 10.9856 12.6469 10.6637C12.6469 10.3418 12.3859 10.0809 12.0641 10.0809C11.7422 10.0809 11.4812 10.3418 11.4812 10.6637C11.4812 10.9856 11.7422 11.2465 12.0641 11.2465Z" fill="black" stroke="black" stroke-width="0.1"/>
</g>
</g>
</svg>
