<svg width="24" height="24" viewBox="0 0 24 24" fill="none" xmlns="http://www.w3.org/2000/svg">
<path d="M11.9894 1.3307C15.2105 1.33182 17.8936 4.11724 17.8975 7.47109C17.8984 8.25663 17.9217 8.98 17.9644 9.64636C17.9908 10.0575 18.32 10.3622 18.6975 10.3622C18.7531 10.3622 18.8097 10.3556 18.8666 10.3417L19.8757 10.096C19.9186 10.0855 19.9617 10.0805 20.0043 10.0805C20.2606 10.0805 20.4965 10.2624 20.5541 10.5318C20.6354 10.9125 20.4301 11.2971 20.0749 11.4265L18.5432 12.0687C18.1565 12.2309 17.9488 12.668 18.0577 13.0862C19.2866 17.8051 22.7189 17.3143 22.7189 17.9291C22.7189 18.7011 20.1318 18.8101 19.8981 19.0529C19.6644 19.2958 19.888 20.4742 19.3657 20.7023C19.2673 20.7453 19.1274 20.7603 18.9568 20.7603C18.5635 20.7603 18.0072 20.6805 17.4208 20.6805C16.9122 20.6805 16.381 20.7405 15.914 20.9646C14.6751 21.5591 13.4807 22.6694 12 22.6694C10.5194 22.6694 9.32494 21.5591 8.08604 20.9646C7.61894 20.7405 7.08789 20.6805 6.57923 20.6805C5.99294 20.6805 5.43652 20.7603 5.04322 20.7603C4.87273 20.7603 4.73273 20.7453 4.63434 20.7023C4.1121 20.4742 4.33568 19.2958 4.10195 19.0529C3.86822 18.8101 1.28112 18.701 1.28112 17.929C1.28112 17.3142 4.71346 17.8049 5.94231 13.0861C6.05121 12.668 5.84351 12.2308 5.45677 12.0687L3.92505 11.4264C3.56988 11.2971 3.36454 10.9124 3.44591 10.5318C3.50346 10.2623 3.73945 10.0804 3.99572 10.0805C4.03825 10.0805 4.0814 10.0855 4.12435 10.096L5.13341 10.3417C5.19029 10.3555 5.24692 10.3621 5.30252 10.3621C5.67999 10.3621 6.00924 10.0574 6.03558 9.64631C6.07826 8.97995 6.10163 8.25658 6.10255 7.47104C6.10645 4.11724 8.76821 1.33187 11.9894 1.3307ZM11.9898 0H11.9893H11.9889C11.0274 0.000319368 10.0908 0.200989 9.20518 0.596474C8.35508 0.976043 7.58999 1.51727 6.93118 2.20513C6.27325 2.89209 5.75547 3.68961 5.39225 4.57554C5.01457 5.49676 4.82251 6.4704 4.82133 7.46944C4.82076 7.95994 4.81098 8.43596 4.79212 8.8918L4.4167 8.80035C4.27895 8.76682 4.13731 8.74979 3.99582 8.74973C3.58725 8.74968 3.18421 8.89313 2.86095 9.15363C2.52371 9.42541 2.28721 9.81243 2.19513 10.2434C1.97595 11.2693 2.5213 12.3049 3.46636 12.6691L4.59052 13.1405C3.84614 15.5137 2.47354 15.9685 1.54924 16.2748C1.30398 16.3561 1.09213 16.4263 0.890432 16.5302C0.0867577 16.9446 0 17.6465 0 17.929C0 18.4702 0.246591 18.964 0.69442 19.3195C0.917387 19.4966 1.1936 19.6426 1.53878 19.7661C2.00926 19.9343 2.55466 20.0411 2.99793 20.1267C3.01935 20.2973 3.05076 20.4806 3.1037 20.6653C3.32349 21.4323 3.78731 21.7758 4.13772 21.9288C4.4702 22.0741 4.81374 22.0909 5.04322 22.0909C5.26767 22.0909 5.50494 22.0726 5.75614 22.0533C6.02564 22.0325 6.30431 22.0111 6.57923 22.0111C7.00528 22.0111 7.32244 22.0639 7.54879 22.1725C7.85959 22.3217 8.1892 22.5228 8.53817 22.7356C9.50968 23.3283 10.6108 24 12 24C13.3893 24 14.4903 23.3283 15.4618 22.7356C15.8108 22.5227 16.1404 22.3217 16.4513 22.1725C16.6776 22.0639 16.9948 22.0111 17.4208 22.0111C17.6957 22.0111 17.9744 22.0326 18.2439 22.0533C18.4951 22.0726 18.7323 22.0909 18.9568 22.0909C19.1863 22.0909 19.5298 22.0741 19.8623 21.9288C20.2127 21.7758 20.6765 21.4323 20.8963 20.6653C20.9492 20.4806 20.9807 20.2973 21.0021 20.1267C21.4453 20.0411 21.9908 19.9343 22.4612 19.7661C22.8065 19.6426 23.0826 19.4966 23.3056 19.3195C23.7534 18.964 24 18.4702 24 17.929C24 17.6465 23.9132 16.9446 23.1095 16.5303C22.9078 16.4263 22.6959 16.3561 22.4507 16.2749C21.5264 15.9686 20.1538 15.5137 19.4094 13.1405L20.5335 12.6692C21.4785 12.305 22.0239 11.2693 21.8048 10.2434C21.7127 9.81243 21.4762 9.42541 21.1389 9.15363C20.8157 8.89318 20.4128 8.74973 20.0043 8.74973C19.8628 8.74973 19.7212 8.76677 19.5833 8.8003L19.2078 8.89175C19.189 8.43596 19.1792 7.95994 19.1786 7.46939C19.1774 6.46955 18.9838 5.49495 18.6031 4.5725C18.2377 3.687 17.7171 2.8897 17.0559 2.20268C16.3946 1.51572 15.6274 0.975085 14.7756 0.595835C13.8882 0.200829 12.951 0.000372596 11.9898 0Z" fill="#DBDF19"/>
</svg>
