<svg width="16" height="20" viewBox="0 0 16 20" fill="none" xmlns="http://www.w3.org/2000/svg">
<path d="M15.9973 8.20205C14.425 8.20617 12.8912 7.66984 11.6127 6.66885V13.6501C11.6122 14.9431 11.2509 16.2051 10.577 17.2675C9.90306 18.3298 8.94868 19.1418 7.84145 19.5948C6.73422 20.0479 5.52692 20.1204 4.38098 19.8027C3.23504 19.4851 2.20509 18.7923 1.42884 17.8171C0.652587 16.8419 0.16704 15.6307 0.0371218 14.3456C-0.0927966 13.0604 0.139106 11.7625 0.701822 10.6254C1.26454 9.48823 2.13124 8.5661 3.18605 7.98228C4.24085 7.39845 5.43348 7.18076 6.60446 7.3583V10.8696C6.06862 10.6853 5.49322 10.6908 4.96044 10.8855C4.42765 11.0802 3.96473 11.454 3.63777 11.9536C3.31082 12.4531 3.13655 13.053 3.13986 13.6673C3.14317 14.2817 3.32388 14.8792 3.6562 15.3746C3.98851 15.8699 4.45543 16.2377 4.99027 16.4255C5.52511 16.6133 6.10053 16.6114 6.63435 16.4202C7.16817 16.229 7.63309 15.8581 7.96272 15.3606C8.29235 14.8632 8.46983 14.2645 8.46982 13.6501V0.00244141H11.6127C11.6105 0.292731 11.6327 0.582624 11.6791 0.868457C11.7883 1.50654 12.0154 2.11354 12.3464 2.65234C12.6775 3.19114 13.1056 3.65041 13.6045 4.00205C14.3142 4.51537 15.1464 4.78897 15.9973 4.78877V8.20205Z" fill="black"/>
</svg>
