<svg width="20" height="16" viewBox="0 0 20 16" fill="none" xmlns="http://www.w3.org/2000/svg">
<path d="M20 1.85424C19.3023 2.19446 18.4884 2.42128 17.6744 2.53468C18.5465 2.02435 19.186 1.2305 19.5349 0.266547C18.7209 0.720174 17.8488 1.06039 16.9186 1.2305C16.2859 0.598507 15.4601 0.183677 14.5652 0.0482659C13.6702 -0.0871448 12.7544 0.0641687 11.9551 0.479499C11.1558 0.894829 10.5162 1.55177 10.1322 2.35174C9.74827 3.15171 9.64067 4.05155 9.82558 4.91622C6.56977 4.74611 3.43023 3.27183 1.39535 0.720174C1.11846 1.15149 0.931857 1.632 0.846288 2.13399C0.76072 2.63598 0.777882 3.14953 0.896785 3.64502C1.01569 4.14051 1.23398 4.60814 1.53908 5.02096C1.84417 5.43378 2.23003 5.78361 2.67442 6.05029C2.03488 6.05029 1.39535 5.93688 0.813954 5.65337C0.872093 7.52458 2.2093 9.16898 4.06977 9.5659C3.48837 9.73601 2.84884 9.73601 2.2093 9.6226C2.7907 11.267 4.36047 12.4011 6.10465 12.4578C4.4186 13.8187 2.15116 14.4424 0 14.1022C1.79763 15.2721 3.89528 15.9275 6.05529 15.9943C8.2153 16.0611 10.3513 15.5365 12.2213 14.48C14.0913 13.4235 15.6205 11.8773 16.6357 10.0166C17.6509 8.15595 18.1114 6.05515 17.9651 3.95227C18.7791 3.38523 19.4767 2.70479 20 1.85424Z" fill="#45B2D3"/>
</svg>
