<svg width="21" height="22" viewBox="0 0 21 22" fill="none" xmlns="http://www.w3.org/2000/svg">
<path d="M20.5501 1.00024V0.950244H20.5001H14.3134H14.2634V1.00024V2.23759V2.28759H14.3134H18.2667L13.5325 7.02479L13.4972 7.06015L13.5325 7.09549L14.4048 7.96782L14.4402 8.00316L14.4755 7.96783L19.2127 3.23366V7.18696V7.23696H19.2627H20.5001H20.5501V7.18696V1.00024Z" fill="#747474" stroke="#747474" stroke-width="0.1"/>
<path d="M1.78686 7.18696V3.23366L6.52406 7.96783L6.55942 8.00316L6.59476 7.96782L7.46709 7.09549L7.50243 7.06015L7.4671 7.02479L2.73293 2.28759H6.68623H6.73623V2.23759V1.00024V0.950244H6.68623H0.499512H0.449512V1.00024V7.18696V7.23696H0.499512H1.73686H1.78686V7.18696Z" fill="#747474" stroke="#747474" stroke-width="0.1"/>
<path d="M6.73623 19.7623V19.7123H6.68623H2.73293L7.4671 14.9751L7.50243 14.9397L7.46709 14.9044L6.59476 14.032L6.55942 13.9967L6.52406 14.032L1.78686 18.7662V14.8129V14.7629H1.73686H0.499512H0.449512V14.8129V20.9996V21.0496H0.499512H6.68623H6.73623V20.9996V19.7623Z" fill="#747474" stroke="#747474" stroke-width="0.1"/>
<path d="M20.5501 14.8129V14.7629H20.5001H19.2627H19.2127V14.8129V18.7662L14.4755 14.032L14.4402 13.9967L14.4048 14.032L13.5325 14.9044L13.4972 14.9397L13.5325 14.9751L18.2667 19.7123H14.3134H14.2634V19.7623V20.9996V21.0496H14.3134H20.5001H20.5501V20.9996V14.8129Z" fill="#747474" stroke="#747474" stroke-width="0.1"/>
</svg>
