<svg width="23" height="24" viewBox="0 0 23 24" fill="none" xmlns="http://www.w3.org/2000/svg">
<g clip-path="url(#clip0_938_9789)">
<path d="M18.8446 14.0578H18.5077V5.7375H18.9929C19.2534 5.7375 19.4601 5.51719 19.4601 5.25C19.4601 4.98281 19.2489 4.7625 18.9929 4.7625H18.4853C18.2472 2.09531 16.0954 0 13.481 0H9.51436C6.8999 0 4.75264 2.09531 4.51455 4.75781H4.00693C3.74639 4.75781 3.53975 4.97813 3.53975 5.24531C3.53975 5.5125 3.75088 5.73281 4.00693 5.73281H4.49209V14.0531H4.15068C3.23877 14.0531 2.49756 14.7891 2.49756 15.6984C2.49756 16.6031 3.23877 17.3438 4.15068 17.3438H4.546V23.5078C4.546 23.7797 4.75713 23.9953 5.01318 23.9953C5.26924 23.9953 5.48037 23.775 5.48037 23.5078V17.3438H6.60342V23.5078C6.60342 23.7797 6.81455 23.9953 7.0706 23.9953C7.32666 23.9953 7.53779 23.775 7.53779 23.5078V22.0312L11.4954 19.8516L15.453 22.0312V23.5078C15.453 23.7797 15.6642 23.9953 15.9202 23.9953C16.1763 23.9953 16.3874 23.775 16.3874 23.5078V17.3438H17.5015V23.5078C17.5015 23.7797 17.7126 23.9953 17.9687 23.9953C18.2247 23.9953 18.4358 23.775 18.4358 23.5078V17.3438H18.8312C19.7431 17.3438 20.4843 16.6078 20.4843 15.6984C20.5022 14.7937 19.7565 14.0578 18.8446 14.0578ZM9.51885 0.979687H13.4854C15.5788 0.979687 17.3128 2.63438 17.5464 4.75781H5.4624C5.6915 2.63438 7.421 0.979687 9.51885 0.979687ZM17.5688 5.7375V14.0531H5.43096V5.7375H17.5688ZM7.54228 20.925V17.6672L10.4937 19.2938L7.54228 20.925ZM15.4575 20.925L12.5062 19.2984L15.4575 17.6719V20.925ZM11.4999 18.7406L8.96631 17.3438H14.0335L11.4999 18.7406ZM18.8446 16.3641H4.15518C3.75986 16.3641 3.44092 16.0641 3.44092 15.6984C3.44092 15.3328 3.75986 15.0328 4.15518 15.0328H18.8491C19.2444 15.0328 19.5634 15.3328 19.5634 15.6984C19.5634 16.0688 19.2399 16.3641 18.8446 16.3641Z" fill="black"/>
<path d="M11.4999 12.7407C12.6499 12.7407 13.5843 11.7657 13.5843 10.5657C13.5843 9.51572 12.1558 7.60322 11.8683 7.22822C11.7784 7.11103 11.6437 7.04541 11.4999 7.04541C11.3562 7.04541 11.2214 7.11103 11.1315 7.22822C10.844 7.60322 9.41553 9.51572 9.41553 10.5657C9.41553 11.7657 10.3499 12.7407 11.4999 12.7407ZM11.4999 8.34385C12.0569 9.14072 12.6454 10.1392 12.6454 10.5657C12.6454 11.222 12.1333 11.761 11.4999 11.761C10.871 11.761 10.3544 11.2267 10.3544 10.5657C10.3544 10.1438 10.9429 9.14541 11.4999 8.34385Z" fill="black"/>
</g>
<defs>
<clipPath id="clip0_938_9789">
<rect width="23" height="24" fill="white"/>
</clipPath>
</defs>
</svg>
