<svg width="18" height="18" viewBox="0 0 18 18" fill="none" xmlns="http://www.w3.org/2000/svg">
<path d="M6.05343 9.0512C6.05343 7.40985 7.38364 6.07893 9.02499 6.07893C10.6663 6.07893 11.9973 7.40985 11.9973 9.0512C11.9973 10.6925 10.6663 12.0235 9.02499 12.0235C7.38364 12.0235 6.05343 10.6925 6.05343 9.0512ZM4.44668 9.0512C4.44668 11.5798 6.49638 13.6295 9.02499 13.6295C11.5536 13.6295 13.6033 11.5798 13.6033 9.0512C13.6033 6.52259 11.5536 4.47289 9.02499 4.47289C6.49638 4.47289 4.44668 6.52245 4.44668 9.0512ZM12.7147 4.29136C12.7146 4.50297 12.7773 4.70986 12.8948 4.88585C13.0123 5.06185 13.1793 5.19905 13.3748 5.28011C13.5702 5.36117 13.7854 5.38244 13.9929 5.34124C14.2005 5.30004 14.3912 5.19822 14.5409 5.04865C14.6906 4.89907 14.7925 4.70847 14.8339 4.50094C14.8753 4.29341 14.8542 4.07827 14.7733 3.88274C14.6924 3.6872 14.5553 3.52004 14.3794 3.40241C14.2035 3.28477 13.9967 3.22194 13.785 3.22186C13.5014 3.22199 13.229 3.3347 13.0284 3.53523C12.8277 3.73576 12.7149 4.00771 12.7147 4.29136ZM5.42288 16.3088C4.5536 16.2692 4.08112 16.1244 3.76713 16.002C3.35085 15.84 3.05384 15.647 2.74156 15.3351C2.42928 15.0233 2.23598 14.7265 2.07464 14.3103C1.95224 13.9964 1.80744 13.5238 1.76792 12.6545C1.7247 11.7147 1.71607 11.4324 1.71607 9.05134C1.71607 6.67032 1.72541 6.38878 1.76792 5.44817C1.80751 4.57889 1.95338 4.10719 2.07464 3.79241C2.2367 3.37614 2.42971 3.07913 2.74156 2.76685C3.05341 2.45457 3.35014 2.26127 3.76713 2.09992C4.08097 1.97752 4.5536 1.83273 5.42288 1.79321C6.36271 1.74999 6.64503 1.74135 9.02499 1.74135C11.4049 1.74135 11.6875 1.75056 12.6282 1.79335C13.4974 1.83294 13.9691 1.97881 14.2839 2.10007C14.7002 2.26141 14.9972 2.45514 15.3095 2.76699C15.6218 3.07884 15.8143 3.37628 15.9764 3.79256C16.0988 4.1064 16.2436 4.57903 16.2831 5.44831C16.3263 6.38893 16.335 6.67046 16.335 9.05149C16.335 11.4325 16.3263 11.714 16.2831 12.6547C16.2435 13.5239 16.098 13.9964 15.9764 14.3104C15.8143 14.7267 15.6213 15.0237 15.3095 15.3353C14.9976 15.6468 14.7002 15.8401 14.2839 16.0022C13.9701 16.1246 13.4974 16.2694 12.6282 16.3089C11.6883 16.3521 11.406 16.3608 9.02499 16.3608C6.64396 16.3608 6.36243 16.352 5.42288 16.3088ZM5.34906 0.189097C4.39988 0.232323 3.75129 0.382826 3.18487 0.603232C2.59862 0.830842 2.10167 1.1362 1.60544 1.63165C1.1092 2.1271 0.804628 2.62412 0.577018 3.21108C0.356612 3.77786 0.206108 4.4261 0.162883 5.37527C0.118944 6.32594 0.108887 6.62987 0.108887 9.0512C0.108887 11.4725 0.118944 11.7765 0.162883 12.7271C0.206108 13.6764 0.356612 14.3245 0.577018 14.8913C0.804628 15.4776 1.10927 15.9755 1.60544 16.4708C2.1016 16.966 2.59791 17.2709 3.18487 17.4992C3.75236 17.7196 4.39988 17.8701 5.34906 17.9133C6.30023 17.9565 6.60366 17.9673 9.02499 17.9673C11.4463 17.9673 11.7502 17.9572 12.7009 17.9133C13.6502 17.8701 14.2983 17.7196 14.8651 17.4992C15.4514 17.2709 15.9483 16.9662 16.4445 16.4708C16.9408 15.9753 17.2447 15.4776 17.473 14.8913C17.6934 14.3245 17.8446 13.6763 17.8871 12.7271C17.9303 11.7757 17.9404 11.4725 17.9404 9.0512C17.9404 6.62987 17.9303 6.32594 17.8871 5.37527C17.8439 4.42603 17.6934 3.77751 17.473 3.21108C17.2447 2.62483 16.94 2.12789 16.4445 1.63165C15.9491 1.13542 15.4514 0.830842 14.8658 0.603232C14.2983 0.382826 13.6501 0.231609 12.7016 0.189097C11.7508 0.145658 11.447 0.135101 9.02606 0.135101C6.60509 0.135101 6.30023 0.145159 5.34906 0.189097Z" fill="url(#paint0_linear_938_7914)"/>
<defs>
<linearGradient id="paint0_linear_938_7914" x1="1.50049" y1="0.999847" x2="17.0005" y2="17.9998" gradientUnits="userSpaceOnUse">
<stop stop-color="#FF3939"/>
<stop offset="0.503125" stop-color="#B01E59"/>
<stop offset="0.654167" stop-color="#F4761B"/>
<stop offset="0.721875" stop-color="#FDD813"/>
<stop offset="0.826042" stop-color="#FDB322"/>
<stop offset="1" stop-color="#FF47B5"/>
</linearGradient>
</defs>
</svg>
